SplineFontDB: 3.2
FontName: BMLucidaTypewriter26BoldBold
FullName: BM Lucida Typewriter 26 Bold
FamilyName: BM Lucida Typewriter 26
Weight: Bold
Copyright: Copyright Bigelow & Holmes 1986, 1985.
UComments: "2021-12-18: Created with FontForge (http://fontforge.org)"
Version: 001.000
ItalicAngle: 0
UnderlinePosition: -100
UnderlineWidth: 50
Ascent: 960
Descent: 160
InvalidEm: 0
LayerCount: 2
Layer: 0 0 "Back" 1
Layer: 1 0 "Fore" 0
XUID: [1021 839 -1355931530 11297243]
StyleMap: 0x0020
FSType: 0
OS2Version: 0
OS2_WeightWidthSlopeOnly: 0
OS2_UseTypoMetrics: 1
CreationTime: 1639845852
ModificationTime: 1639845853
PfmFamily: 48
TTFWeight: 700
TTFWidth: 5
LineGap: 0
VLineGap: 101
Panose: 2 0 8 9 0 0 0 0 0 0
OS2TypoAscent: 960
OS2TypoAOffset: 0
OS2TypoDescent: -160
OS2TypoDOffset: 0
OS2TypoLinegap: 0
OS2WinAscent: 960
OS2WinAOffset: 0
OS2WinDescent: 160
OS2WinDOffset: 0
HheadAscent: 960
HheadAOffset: 0
HheadDescent: -160
HheadDOffset: 0
OS2SubXSize: 728
OS2SubYSize: 784
OS2SubXOff: 0
OS2SubYOff: 156
OS2SupXSize: 728
OS2SupYSize: 784
OS2SupXOff: 0
OS2SupYOff: 537
OS2StrikeYSize: 55
OS2StrikeYPos: 289
OS2Vendor: 'PfEd'
DEI: 91125
Encoding: UnicodeBmp
UnicodeInterp: none
NameList: AGL For New Fonts
DisplaySize: 26
AntiAlias: 1
FitToEm: 0
BeginChars: 65536 881

StartChar: char0
Encoding: 0 0 0
Width: 717
Flags: HW
LayerCount: 2
Back
Fore
SplineSet
45 806 m 1
 45 851 l 1
 90 851 l 1
 90 806 l 1
 45 806 l 1
134 806 m 1
 134 851 l 1
 179 851 l 1
 179 806 l 1
 134 806 l 1
224 806 m 1
 224 851 l 1
 269 851 l 1
 269 806 l 1
 224 806 l 1
314 806 m 1
 314 851 l 1
 358 851 l 1
 358 806 l 1
 314 806 l 1
403 806 m 1
 403 851 l 1
 448 851 l 1
 448 806 l 1
 403 806 l 1
493 806 m 1
 493 851 l 1
 538 851 l 1
 538 806 l 1
 493 806 l 1
582 806 m 1
 582 851 l 1
 627 851 l 1
 627 806 l 1
 582 806 l 1
45 717 m 1
 45 762 l 1
 90 762 l 1
 90 717 l 1
 45 717 l 1
582 717 m 1
 582 762 l 1
 627 762 l 1
 627 717 l 1
 582 717 l 1
45 627 m 1
 45 672 l 1
 90 672 l 1
 90 627 l 1
 45 627 l 1
582 627 m 1
 582 672 l 1
 627 672 l 1
 627 627 l 1
 582 627 l 1
45 538 m 1
 45 582 l 1
 90 582 l 1
 90 538 l 1
 45 538 l 1
582 538 m 1
 582 582 l 1
 627 582 l 1
 627 538 l 1
 582 538 l 1
45 448 m 1
 45 493 l 1
 90 493 l 1
 90 448 l 1
 45 448 l 1
582 448 m 1
 582 493 l 1
 627 493 l 1
 627 448 l 1
 582 448 l 1
45 358 m 1
 45 403 l 1
 90 403 l 1
 90 358 l 1
 45 358 l 1
582 358 m 1
 582 403 l 1
 627 403 l 1
 627 358 l 1
 582 358 l 1
45 269 m 1
 45 314 l 1
 90 314 l 1
 90 269 l 1
 45 269 l 1
582 269 m 1
 582 314 l 1
 627 314 l 1
 627 269 l 1
 582 269 l 1
45 179 m 1
 45 224 l 1
 90 224 l 1
 90 179 l 1
 45 179 l 1
582 179 m 1
 582 224 l 1
 627 224 l 1
 627 179 l 1
 582 179 l 1
45 90 m 1
 45 134 l 1
 90 134 l 1
 90 90 l 1
 45 90 l 1
582 90 m 1
 582 134 l 1
 627 134 l 1
 627 90 l 1
 582 90 l 1
45 0 m 1
 45 45 l 1
 90 45 l 1
 90 0 l 1
 45 0 l 1
134 0 m 1
 134 45 l 1
 179 45 l 1
 179 0 l 1
 134 0 l 1
224 0 m 1
 224 45 l 1
 269 45 l 1
 269 0 l 1
 224 0 l 1
314 0 m 1
 314 45 l 1
 358 45 l 1
 358 0 l 1
 314 0 l 1
403 0 m 1
 403 45 l 1
 448 45 l 1
 448 0 l 1
 403 0 l 1
493 0 m 1
 493 45 l 1
 538 45 l 1
 538 0 l 1
 493 0 l 1
582 0 m 1
 582 45 l 1
 627 45 l 1
 627 0 l 1
 582 0 l 1
EndSplineSet
EndChar

StartChar: exclam
Encoding: 33 33 2
Width: 717
Flags: HW
LayerCount: 2
Back
Fore
SplineSet
269 806 m 1
 269 851 l 1
 448 851 l 1
 448 806 l 1
 269 806 l 1
269 762 m 1
 269 806 l 1
 448 806 l 1
 448 762 l 1
 269 762 l 1
269 717 m 1
 269 762 l 1
 448 762 l 1
 448 717 l 1
 269 717 l 1
269 672 m 1
 269 717 l 1
 448 717 l 1
 448 672 l 1
 269 672 l 1
269 627 m 1
 269 672 l 1
 448 672 l 1
 448 627 l 1
 269 627 l 1
269 582 m 1
 269 627 l 1
 448 627 l 1
 448 582 l 1
 269 582 l 1
269 538 m 1
 269 582 l 1
 448 582 l 1
 448 538 l 1
 269 538 l 1
269 493 m 1
 269 538 l 1
 448 538 l 1
 448 493 l 1
 269 493 l 1
269 448 m 1
 269 493 l 1
 448 493 l 1
 448 448 l 1
 269 448 l 1
314 403 m 1
 314 448 l 1
 448 448 l 1
 448 403 l 1
 314 403 l 1
314 358 m 1
 314 403 l 1
 448 403 l 1
 448 358 l 1
 314 358 l 1
314 314 m 1
 314 358 l 1
 448 358 l 1
 448 314 l 1
 314 314 l 1
314 269 m 1
 314 314 l 1
 448 314 l 1
 448 269 l 1
 314 269 l 1
269 90 m 1
 269 134 l 1
 448 134 l 1
 448 90 l 1
 269 90 l 1
269 45 m 1
 269 90 l 1
 448 90 l 1
 448 45 l 1
 269 45 l 1
269 0 m 1
 269 45 l 1
 448 45 l 1
 448 0 l 1
 269 0 l 1
EndSplineSet
EndChar

StartChar: quotedbl
Encoding: 34 34 3
Width: 717
Flags: HW
LayerCount: 2
Back
Fore
SplineSet
90 851 m 1
 90 896 l 1
 314 896 l 1
 314 851 l 1
 90 851 l 1
358 851 m 1
 358 896 l 1
 582 896 l 1
 582 851 l 1
 358 851 l 1
90 806 m 1
 90 851 l 1
 314 851 l 1
 314 806 l 1
 90 806 l 1
358 806 m 1
 358 851 l 1
 582 851 l 1
 582 806 l 1
 358 806 l 1
90 762 m 1
 90 806 l 1
 314 806 l 1
 314 762 l 1
 90 762 l 1
358 762 m 1
 358 806 l 1
 582 806 l 1
 582 762 l 1
 358 762 l 1
90 717 m 1
 90 762 l 1
 314 762 l 1
 314 717 l 1
 90 717 l 1
358 717 m 1
 358 762 l 1
 582 762 l 1
 582 717 l 1
 358 717 l 1
134 672 m 1
 134 717 l 1
 269 717 l 1
 269 672 l 1
 134 672 l 1
403 672 m 1
 403 717 l 1
 538 717 l 1
 538 672 l 1
 403 672 l 1
134 627 m 1
 134 672 l 1
 269 672 l 1
 269 627 l 1
 134 627 l 1
403 627 m 1
 403 672 l 1
 538 672 l 1
 538 627 l 1
 403 627 l 1
134 582 m 1
 134 627 l 1
 269 627 l 1
 269 582 l 1
 134 582 l 1
403 582 m 1
 403 627 l 1
 538 627 l 1
 538 582 l 1
 403 582 l 1
134 538 m 1
 134 582 l 1
 269 582 l 1
 269 538 l 1
 134 538 l 1
403 538 m 1
 403 582 l 1
 538 582 l 1
 538 538 l 1
 403 538 l 1
EndSplineSet
EndChar

StartChar: numbersign
Encoding: 35 35 4
Width: 717
Flags: HW
LayerCount: 2
Back
Fore
SplineSet
269 806 m 1
 269 851 l 1
 448 851 l 1
 448 806 l 1
 269 806 l 1
493 806 m 1
 493 851 l 1
 627 851 l 1
 627 806 l 1
 493 806 l 1
269 762 m 1
 269 806 l 1
 403 806 l 1
 403 762 l 1
 269 762 l 1
493 762 m 1
 493 806 l 1
 627 806 l 1
 627 762 l 1
 493 762 l 1
269 717 m 1
 269 762 l 1
 403 762 l 1
 403 717 l 1
 269 717 l 1
448 717 m 1
 448 762 l 1
 627 762 l 1
 627 717 l 1
 448 717 l 1
269 672 m 1
 269 717 l 1
 403 717 l 1
 403 672 l 1
 269 672 l 1
448 672 m 1
 448 717 l 1
 582 717 l 1
 582 672 l 1
 448 672 l 1
224 627 m 1
 224 672 l 1
 358 672 l 1
 358 627 l 1
 224 627 l 1
448 627 m 1
 448 672 l 1
 582 672 l 1
 582 627 l 1
 448 627 l 1
90 582 m 1
 90 627 l 1
 672 627 l 1
 672 582 l 1
 90 582 l 1
90 538 m 1
 90 582 l 1
 672 582 l 1
 672 538 l 1
 90 538 l 1
90 493 m 1
 90 538 l 1
 672 538 l 1
 672 493 l 1
 90 493 l 1
179 448 m 1
 179 493 l 1
 358 493 l 1
 358 448 l 1
 179 448 l 1
403 448 m 1
 403 493 l 1
 538 493 l 1
 538 448 l 1
 403 448 l 1
179 403 m 1
 179 448 l 1
 314 448 l 1
 314 403 l 1
 179 403 l 1
403 403 m 1
 403 448 l 1
 538 448 l 1
 538 403 l 1
 403 403 l 1
179 358 m 1
 179 403 l 1
 314 403 l 1
 314 358 l 1
 179 358 l 1
358 358 m 1
 358 403 l 1
 538 403 l 1
 538 358 l 1
 358 358 l 1
45 314 m 1
 45 358 l 1
 627 358 l 1
 627 314 l 1
 45 314 l 1
45 269 m 1
 45 314 l 1
 627 314 l 1
 627 269 l 1
 45 269 l 1
45 224 m 1
 45 269 l 1
 627 269 l 1
 627 224 l 1
 45 224 l 1
134 179 m 1
 134 224 l 1
 269 224 l 1
 269 179 l 1
 134 179 l 1
358 179 m 1
 358 224 l 1
 493 224 l 1
 493 179 l 1
 358 179 l 1
134 134 m 1
 134 179 l 1
 269 179 l 1
 269 134 l 1
 134 134 l 1
314 134 m 1
 314 179 l 1
 448 179 l 1
 448 134 l 1
 314 134 l 1
90 90 m 1
 90 134 l 1
 269 134 l 1
 269 90 l 1
 90 90 l 1
314 90 m 1
 314 134 l 1
 448 134 l 1
 448 90 l 1
 314 90 l 1
90 45 m 1
 90 90 l 1
 224 90 l 1
 224 45 l 1
 90 45 l 1
314 45 m 1
 314 90 l 1
 448 90 l 1
 448 45 l 1
 314 45 l 1
90 0 m 1
 90 45 l 1
 224 45 l 1
 224 0 l 1
 90 0 l 1
269 0 m 1
 269 45 l 1
 448 45 l 1
 448 0 l 1
 269 0 l 1
EndSplineSet
EndChar

StartChar: dollar
Encoding: 36 36 5
Width: 717
Flags: HW
LayerCount: 2
Back
Fore
SplineSet
314 896 m 1
 314 941 l 1
 448 941 l 1
 448 896 l 1
 314 896 l 1
314 851 m 1
 314 896 l 1
 448 896 l 1
 448 851 l 1
 314 851 l 1
269 806 m 1
 269 851 l 1
 582 851 l 1
 582 806 l 1
 269 806 l 1
179 762 m 1
 179 806 l 1
 582 806 l 1
 582 762 l 1
 179 762 l 1
134 717 m 1
 134 762 l 1
 582 762 l 1
 582 717 l 1
 134 717 l 1
90 672 m 1
 90 717 l 1
 314 717 l 1
 314 672 l 1
 90 672 l 1
538 672 m 1
 538 717 l 1
 582 717 l 1
 582 672 l 1
 538 672 l 1
90 627 m 1
 90 672 l 1
 269 672 l 1
 269 627 l 1
 90 627 l 1
90 582 m 1
 90 627 l 1
 269 627 l 1
 269 582 l 1
 90 582 l 1
90 538 m 1
 90 582 l 1
 314 582 l 1
 314 538 l 1
 90 538 l 1
134 493 m 1
 134 538 l 1
 403 538 l 1
 403 493 l 1
 134 493 l 1
134 448 m 1
 134 493 l 1
 448 493 l 1
 448 448 l 1
 134 448 l 1
224 403 m 1
 224 448 l 1
 538 448 l 1
 538 403 l 1
 224 403 l 1
269 358 m 1
 269 403 l 1
 582 403 l 1
 582 358 l 1
 269 358 l 1
358 314 m 1
 358 358 l 1
 582 358 l 1
 582 314 l 1
 358 314 l 1
403 269 m 1
 403 314 l 1
 627 314 l 1
 627 269 l 1
 403 269 l 1
448 224 m 1
 448 269 l 1
 627 269 l 1
 627 224 l 1
 448 224 l 1
448 179 m 1
 448 224 l 1
 627 224 l 1
 627 179 l 1
 448 179 l 1
90 134 m 1
 90 179 l 1
 179 179 l 1
 179 134 l 1
 90 134 l 1
403 134 m 1
 403 179 l 1
 627 179 l 1
 627 134 l 1
 403 134 l 1
90 90 m 1
 90 134 l 1
 582 134 l 1
 582 90 l 1
 90 90 l 1
90 45 m 1
 90 90 l 1
 582 90 l 1
 582 45 l 1
 90 45 l 1
134 0 m 1
 134 45 l 1
 538 45 l 1
 538 0 l 1
 134 0 l 1
314 -45 m 1
 314 0 l 1
 448 0 l 1
 448 -45 l 1
 314 -45 l 1
314 -90 m 1
 314 -45 l 1
 448 -45 l 1
 448 -90 l 1
 314 -90 l 1
314 -134 m 1
 314 -90 l 1
 448 -90 l 1
 448 -134 l 1
 314 -134 l 1
EndSplineSet
EndChar

StartChar: percent
Encoding: 37 37 6
Width: 717
Flags: HW
LayerCount: 2
Back
Fore
SplineSet
90 806 m 1
 90 851 l 1
 269 851 l 1
 269 806 l 1
 90 806 l 1
538 806 m 1
 538 851 l 1
 717 851 l 1
 717 806 l 1
 538 806 l 1
45 762 m 1
 45 806 l 1
 314 806 l 1
 314 762 l 1
 45 762 l 1
493 762 m 1
 493 806 l 1
 672 806 l 1
 672 762 l 1
 493 762 l 1
0 717 m 1
 0 762 l 1
 358 762 l 1
 358 717 l 1
 0 717 l 1
493 717 m 1
 493 762 l 1
 627 762 l 1
 627 717 l 1
 493 717 l 1
0 672 m 1
 0 717 l 1
 134 717 l 1
 134 672 l 1
 0 672 l 1
224 672 m 1
 224 717 l 1
 358 717 l 1
 358 672 l 1
 224 672 l 1
448 672 m 1
 448 717 l 1
 627 717 l 1
 627 672 l 1
 448 672 l 1
0 627 m 1
 0 672 l 1
 134 672 l 1
 134 627 l 1
 0 627 l 1
224 627 m 1
 224 672 l 1
 358 672 l 1
 358 627 l 1
 224 627 l 1
448 627 m 1
 448 672 l 1
 582 672 l 1
 582 627 l 1
 448 627 l 1
0 582 m 1
 0 627 l 1
 134 627 l 1
 134 582 l 1
 0 582 l 1
224 582 m 1
 224 627 l 1
 358 627 l 1
 358 582 l 1
 224 582 l 1
403 582 m 1
 403 627 l 1
 582 627 l 1
 582 582 l 1
 403 582 l 1
0 538 m 1
 0 582 l 1
 134 582 l 1
 134 538 l 1
 0 538 l 1
224 538 m 1
 224 582 l 1
 358 582 l 1
 358 538 l 1
 224 538 l 1
403 538 m 1
 403 582 l 1
 538 582 l 1
 538 538 l 1
 403 538 l 1
0 493 m 1
 0 538 l 1
 493 538 l 1
 493 493 l 1
 0 493 l 1
45 448 m 1
 45 493 l 1
 493 493 l 1
 493 448 l 1
 45 448 l 1
90 403 m 1
 90 448 l 1
 269 448 l 1
 269 403 l 1
 90 403 l 1
314 403 m 1
 314 448 l 1
 448 448 l 1
 448 403 l 1
 314 403 l 1
269 358 m 1
 269 403 l 1
 448 403 l 1
 448 358 l 1
 269 358 l 1
493 358 m 1
 493 403 l 1
 672 403 l 1
 672 358 l 1
 493 358 l 1
269 314 m 1
 269 358 l 1
 403 358 l 1
 403 314 l 1
 269 314 l 1
448 314 m 1
 448 358 l 1
 717 358 l 1
 717 314 l 1
 448 314 l 1
224 269 m 1
 224 314 l 1
 358 314 l 1
 358 269 l 1
 224 269 l 1
403 269 m 1
 403 314 l 1
 762 314 l 1
 762 269 l 1
 403 269 l 1
179 224 m 1
 179 269 l 1
 358 269 l 1
 358 224 l 1
 179 224 l 1
403 224 m 1
 403 269 l 1
 538 269 l 1
 538 224 l 1
 403 224 l 1
627 224 m 1
 627 269 l 1
 762 269 l 1
 762 224 l 1
 627 224 l 1
179 179 m 1
 179 224 l 1
 314 224 l 1
 314 179 l 1
 179 179 l 1
403 179 m 1
 403 224 l 1
 538 224 l 1
 538 179 l 1
 403 179 l 1
627 179 m 1
 627 224 l 1
 762 224 l 1
 762 179 l 1
 627 179 l 1
134 134 m 1
 134 179 l 1
 314 179 l 1
 314 134 l 1
 134 134 l 1
403 134 m 1
 403 179 l 1
 538 179 l 1
 538 134 l 1
 403 134 l 1
627 134 m 1
 627 179 l 1
 762 179 l 1
 762 134 l 1
 627 134 l 1
134 90 m 1
 134 134 l 1
 269 134 l 1
 269 90 l 1
 134 90 l 1
403 90 m 1
 403 134 l 1
 762 134 l 1
 762 90 l 1
 403 90 l 1
90 45 m 1
 90 90 l 1
 269 90 l 1
 269 45 l 1
 90 45 l 1
448 45 m 1
 448 90 l 1
 717 90 l 1
 717 45 l 1
 448 45 l 1
45 0 m 1
 45 45 l 1
 224 45 l 1
 224 0 l 1
 45 0 l 1
493 0 m 1
 493 45 l 1
 672 45 l 1
 672 0 l 1
 493 0 l 1
EndSplineSet
EndChar

StartChar: ampersand
Encoding: 38 38 7
Width: 717
Flags: HW
LayerCount: 2
Back
Fore
SplineSet
179 806 m 1
 179 851 l 1
 403 851 l 1
 403 806 l 1
 179 806 l 1
134 762 m 1
 134 806 l 1
 448 806 l 1
 448 762 l 1
 134 762 l 1
90 717 m 1
 90 762 l 1
 493 762 l 1
 493 717 l 1
 90 717 l 1
90 672 m 1
 90 717 l 1
 269 717 l 1
 269 672 l 1
 90 672 l 1
314 672 m 1
 314 717 l 1
 493 717 l 1
 493 672 l 1
 314 672 l 1
90 627 m 1
 90 672 l 1
 269 672 l 1
 269 627 l 1
 90 627 l 1
314 627 m 1
 314 672 l 1
 493 672 l 1
 493 627 l 1
 314 627 l 1
90 582 m 1
 90 627 l 1
 269 627 l 1
 269 582 l 1
 90 582 l 1
314 582 m 1
 314 627 l 1
 493 627 l 1
 493 582 l 1
 314 582 l 1
134 538 m 1
 134 582 l 1
 448 582 l 1
 448 538 l 1
 134 538 l 1
134 493 m 1
 134 538 l 1
 403 538 l 1
 403 493 l 1
 134 493 l 1
134 448 m 1
 134 493 l 1
 358 493 l 1
 358 448 l 1
 134 448 l 1
493 448 m 1
 493 493 l 1
 672 493 l 1
 672 448 l 1
 493 448 l 1
90 403 m 1
 90 448 l 1
 358 448 l 1
 358 403 l 1
 90 403 l 1
493 403 m 1
 493 448 l 1
 672 448 l 1
 672 403 l 1
 493 403 l 1
45 358 m 1
 45 403 l 1
 403 403 l 1
 403 358 l 1
 45 358 l 1
493 358 m 1
 493 403 l 1
 672 403 l 1
 672 358 l 1
 493 358 l 1
0 314 m 1
 0 358 l 1
 179 358 l 1
 179 314 l 1
 0 314 l 1
224 314 m 1
 224 358 l 1
 403 358 l 1
 403 314 l 1
 224 314 l 1
493 314 m 1
 493 358 l 1
 672 358 l 1
 672 314 l 1
 493 314 l 1
0 269 m 1
 0 314 l 1
 179 314 l 1
 179 269 l 1
 0 269 l 1
224 269 m 1
 224 314 l 1
 448 314 l 1
 448 269 l 1
 224 269 l 1
493 269 m 1
 493 314 l 1
 627 314 l 1
 627 269 l 1
 493 269 l 1
0 224 m 1
 0 269 l 1
 179 269 l 1
 179 224 l 1
 0 224 l 1
269 224 m 1
 269 269 l 1
 627 269 l 1
 627 224 l 1
 269 224 l 1
0 179 m 1
 0 224 l 1
 179 224 l 1
 179 179 l 1
 0 179 l 1
269 179 m 1
 269 224 l 1
 582 224 l 1
 582 179 l 1
 269 179 l 1
0 134 m 1
 0 179 l 1
 224 179 l 1
 224 134 l 1
 0 134 l 1
314 134 m 1
 314 179 l 1
 538 179 l 1
 538 134 l 1
 314 134 l 1
45 90 m 1
 45 134 l 1
 538 134 l 1
 538 90 l 1
 45 90 l 1
90 45 m 1
 90 90 l 1
 582 90 l 1
 582 45 l 1
 90 45 l 1
134 0 m 1
 134 45 l 1
 403 45 l 1
 403 0 l 1
 134 0 l 1
448 0 m 1
 448 45 l 1
 672 45 l 1
 672 0 l 1
 448 0 l 1
EndSplineSet
EndChar

StartChar: quotesingle
Encoding: 39 39 8
Width: 717
Flags: HW
LayerCount: 2
Back
Fore
SplineSet
269 851 m 1
 269 896 l 1
 448 896 l 1
 448 851 l 1
 269 851 l 1
269 806 m 1
 269 851 l 1
 448 851 l 1
 448 806 l 1
 269 806 l 1
269 762 m 1
 269 806 l 1
 448 806 l 1
 448 762 l 1
 269 762 l 1
269 717 m 1
 269 762 l 1
 448 762 l 1
 448 717 l 1
 269 717 l 1
269 672 m 1
 269 717 l 1
 448 717 l 1
 448 672 l 1
 269 672 l 1
314 627 m 1
 314 672 l 1
 448 672 l 1
 448 627 l 1
 314 627 l 1
314 582 m 1
 314 627 l 1
 448 627 l 1
 448 582 l 1
 314 582 l 1
314 538 m 1
 314 582 l 1
 448 582 l 1
 448 538 l 1
 314 538 l 1
314 493 m 1
 314 538 l 1
 448 538 l 1
 448 493 l 1
 314 493 l 1
EndSplineSet
EndChar

StartChar: parenleft
Encoding: 40 40 9
Width: 717
Flags: HW
LayerCount: 2
Back
Fore
SplineSet
493 851 m 1
 493 896 l 1
 627 896 l 1
 627 851 l 1
 493 851 l 1
403 806 m 1
 403 851 l 1
 627 851 l 1
 627 806 l 1
 403 806 l 1
314 762 m 1
 314 806 l 1
 627 806 l 1
 627 762 l 1
 314 762 l 1
269 717 m 1
 269 762 l 1
 538 762 l 1
 538 717 l 1
 269 717 l 1
224 672 m 1
 224 717 l 1
 448 717 l 1
 448 672 l 1
 224 672 l 1
224 627 m 1
 224 672 l 1
 403 672 l 1
 403 627 l 1
 224 627 l 1
179 582 m 1
 179 627 l 1
 358 627 l 1
 358 582 l 1
 179 582 l 1
179 538 m 1
 179 582 l 1
 358 582 l 1
 358 538 l 1
 179 538 l 1
134 493 m 1
 134 538 l 1
 358 538 l 1
 358 493 l 1
 134 493 l 1
134 448 m 1
 134 493 l 1
 314 493 l 1
 314 448 l 1
 134 448 l 1
134 403 m 1
 134 448 l 1
 314 448 l 1
 314 403 l 1
 134 403 l 1
134 358 m 1
 134 403 l 1
 314 403 l 1
 314 358 l 1
 134 358 l 1
134 314 m 1
 134 358 l 1
 314 358 l 1
 314 314 l 1
 134 314 l 1
134 269 m 1
 134 314 l 1
 314 314 l 1
 314 269 l 1
 134 269 l 1
134 224 m 1
 134 269 l 1
 314 269 l 1
 314 224 l 1
 134 224 l 1
134 179 m 1
 134 224 l 1
 314 224 l 1
 314 179 l 1
 134 179 l 1
179 134 m 1
 179 179 l 1
 358 179 l 1
 358 134 l 1
 179 134 l 1
179 90 m 1
 179 134 l 1
 358 134 l 1
 358 90 l 1
 179 90 l 1
224 45 m 1
 224 90 l 1
 403 90 l 1
 403 45 l 1
 224 45 l 1
224 0 m 1
 224 45 l 1
 448 45 l 1
 448 0 l 1
 224 0 l 1
269 -45 m 1
 269 0 l 1
 493 0 l 1
 493 -45 l 1
 269 -45 l 1
358 -90 m 1
 358 -45 l 1
 627 -45 l 1
 627 -90 l 1
 358 -90 l 1
403 -134 m 1
 403 -90 l 1
 627 -90 l 1
 627 -134 l 1
 403 -134 l 1
538 -179 m 1
 538 -134 l 1
 627 -134 l 1
 627 -179 l 1
 538 -179 l 1
EndSplineSet
EndChar

StartChar: parenright
Encoding: 41 41 10
Width: 717
Flags: HW
LayerCount: 2
Back
Fore
SplineSet
45 851 m 1
 45 896 l 1
 134 896 l 1
 134 851 l 1
 45 851 l 1
45 806 m 1
 45 851 l 1
 269 851 l 1
 269 806 l 1
 45 806 l 1
45 762 m 1
 45 806 l 1
 314 806 l 1
 314 762 l 1
 45 762 l 1
179 717 m 1
 179 762 l 1
 403 762 l 1
 403 717 l 1
 179 717 l 1
224 672 m 1
 224 717 l 1
 448 717 l 1
 448 672 l 1
 224 672 l 1
269 627 m 1
 269 672 l 1
 448 672 l 1
 448 627 l 1
 269 627 l 1
314 582 m 1
 314 627 l 1
 493 627 l 1
 493 582 l 1
 314 582 l 1
314 538 m 1
 314 582 l 1
 493 582 l 1
 493 538 l 1
 314 538 l 1
358 493 m 1
 358 538 l 1
 538 538 l 1
 538 493 l 1
 358 493 l 1
358 448 m 1
 358 493 l 1
 538 493 l 1
 538 448 l 1
 358 448 l 1
358 403 m 1
 358 448 l 1
 538 448 l 1
 538 403 l 1
 358 403 l 1
358 358 m 1
 358 403 l 1
 538 403 l 1
 538 358 l 1
 358 358 l 1
358 314 m 1
 358 358 l 1
 538 358 l 1
 538 314 l 1
 358 314 l 1
358 269 m 1
 358 314 l 1
 538 314 l 1
 538 269 l 1
 358 269 l 1
358 224 m 1
 358 269 l 1
 538 269 l 1
 538 224 l 1
 358 224 l 1
314 179 m 1
 314 224 l 1
 538 224 l 1
 538 179 l 1
 314 179 l 1
314 134 m 1
 314 179 l 1
 493 179 l 1
 493 134 l 1
 314 134 l 1
314 90 m 1
 314 134 l 1
 493 134 l 1
 493 90 l 1
 314 90 l 1
269 45 m 1
 269 90 l 1
 448 90 l 1
 448 45 l 1
 269 45 l 1
224 0 m 1
 224 45 l 1
 448 45 l 1
 448 0 l 1
 224 0 l 1
134 -45 m 1
 134 0 l 1
 403 0 l 1
 403 -45 l 1
 134 -45 l 1
45 -90 m 1
 45 -45 l 1
 358 -45 l 1
 358 -90 l 1
 45 -90 l 1
45 -134 m 1
 45 -90 l 1
 269 -90 l 1
 269 -134 l 1
 45 -134 l 1
45 -179 m 1
 45 -134 l 1
 179 -134 l 1
 179 -179 l 1
 45 -179 l 1
EndSplineSet
EndChar

StartChar: asterisk
Encoding: 42 42 11
Width: 717
Flags: HW
LayerCount: 2
Back
Fore
SplineSet
269 806 m 1
 269 851 l 1
 448 851 l 1
 448 806 l 1
 269 806 l 1
314 762 m 1
 314 806 l 1
 403 806 l 1
 403 762 l 1
 314 762 l 1
134 717 m 1
 134 762 l 1
 179 762 l 1
 179 717 l 1
 134 717 l 1
314 717 m 1
 314 762 l 1
 403 762 l 1
 403 717 l 1
 314 717 l 1
538 717 m 1
 538 762 l 1
 582 762 l 1
 582 717 l 1
 538 717 l 1
134 672 m 1
 134 717 l 1
 224 717 l 1
 224 672 l 1
 134 672 l 1
314 672 m 1
 314 717 l 1
 403 717 l 1
 403 672 l 1
 314 672 l 1
493 672 m 1
 493 717 l 1
 582 717 l 1
 582 672 l 1
 493 672 l 1
90 627 m 1
 90 672 l 1
 314 672 l 1
 314 627 l 1
 90 627 l 1
403 627 m 1
 403 672 l 1
 627 672 l 1
 627 627 l 1
 403 627 l 1
90 582 m 1
 90 627 l 1
 269 627 l 1
 269 582 l 1
 90 582 l 1
448 582 m 1
 448 627 l 1
 627 627 l 1
 627 582 l 1
 448 582 l 1
269 538 m 1
 269 582 l 1
 314 582 l 1
 314 538 l 1
 269 538 l 1
403 538 m 1
 403 582 l 1
 448 582 l 1
 448 538 l 1
 403 538 l 1
224 493 m 1
 224 538 l 1
 493 538 l 1
 493 493 l 1
 224 493 l 1
134 448 m 1
 134 493 l 1
 314 493 l 1
 314 448 l 1
 134 448 l 1
403 448 m 1
 403 493 l 1
 538 493 l 1
 538 448 l 1
 403 448 l 1
179 403 m 1
 179 448 l 1
 314 448 l 1
 314 403 l 1
 179 403 l 1
403 403 m 1
 403 448 l 1
 582 448 l 1
 582 403 l 1
 403 403 l 1
224 358 m 1
 224 403 l 1
 269 403 l 1
 269 358 l 1
 224 358 l 1
448 358 m 1
 448 403 l 1
 493 403 l 1
 493 358 l 1
 448 358 l 1
EndSplineSet
EndChar

StartChar: plus
Encoding: 43 43 12
Width: 717
Flags: HW
LayerCount: 2
Back
Fore
SplineSet
269 582 m 1
 269 627 l 1
 403 627 l 1
 403 582 l 1
 269 582 l 1
269 538 m 1
 269 582 l 1
 403 582 l 1
 403 538 l 1
 269 538 l 1
269 493 m 1
 269 538 l 1
 403 538 l 1
 403 493 l 1
 269 493 l 1
269 448 m 1
 269 493 l 1
 403 493 l 1
 403 448 l 1
 269 448 l 1
269 403 m 1
 269 448 l 1
 403 448 l 1
 403 403 l 1
 269 403 l 1
45 358 m 1
 45 403 l 1
 627 403 l 1
 627 358 l 1
 45 358 l 1
45 314 m 1
 45 358 l 1
 627 358 l 1
 627 314 l 1
 45 314 l 1
45 269 m 1
 45 314 l 1
 627 314 l 1
 627 269 l 1
 45 269 l 1
269 224 m 1
 269 269 l 1
 403 269 l 1
 403 224 l 1
 269 224 l 1
269 179 m 1
 269 224 l 1
 403 224 l 1
 403 179 l 1
 269 179 l 1
269 134 m 1
 269 179 l 1
 403 179 l 1
 403 134 l 1
 269 134 l 1
269 90 m 1
 269 134 l 1
 403 134 l 1
 403 90 l 1
 269 90 l 1
269 45 m 1
 269 90 l 1
 403 90 l 1
 403 45 l 1
 269 45 l 1
269 0 m 1
 269 45 l 1
 403 45 l 1
 403 0 l 1
 269 0 l 1
EndSplineSet
EndChar

StartChar: comma
Encoding: 44 44 13
Width: 717
Flags: HW
LayerCount: 2
Back
Fore
SplineSet
269 179 m 1
 269 224 l 1
 448 224 l 1
 448 179 l 1
 269 179 l 1
269 134 m 1
 269 179 l 1
 448 179 l 1
 448 134 l 1
 269 134 l 1
269 90 m 1
 269 134 l 1
 448 134 l 1
 448 90 l 1
 269 90 l 1
269 45 m 1
 269 90 l 1
 448 90 l 1
 448 45 l 1
 269 45 l 1
269 0 m 1
 269 45 l 1
 448 45 l 1
 448 0 l 1
 269 0 l 1
314 -45 m 1
 314 0 l 1
 448 0 l 1
 448 -45 l 1
 314 -45 l 1
314 -90 m 1
 314 -45 l 1
 448 -45 l 1
 448 -90 l 1
 314 -90 l 1
269 -134 m 1
 269 -90 l 1
 403 -90 l 1
 403 -134 l 1
 269 -134 l 1
269 -179 m 1
 269 -134 l 1
 358 -134 l 1
 358 -179 l 1
 269 -179 l 1
EndSplineSet
EndChar

StartChar: period
Encoding: 46 46 15
Width: 717
Flags: HW
LayerCount: 2
Back
Fore
SplineSet
269 134 m 1
 269 179 l 1
 448 179 l 1
 448 134 l 1
 269 134 l 1
269 90 m 1
 269 134 l 1
 448 134 l 1
 448 90 l 1
 269 90 l 1
269 45 m 1
 269 90 l 1
 448 90 l 1
 448 45 l 1
 269 45 l 1
269 0 m 1
 269 45 l 1
 448 45 l 1
 448 0 l 1
 269 0 l 1
EndSplineSet
EndChar

StartChar: slash
Encoding: 47 47 16
Width: 717
Flags: HW
LayerCount: 2
Back
Fore
SplineSet
493 851 m 1
 493 896 l 1
 672 896 l 1
 672 851 l 1
 493 851 l 1
493 806 m 1
 493 851 l 1
 627 851 l 1
 627 806 l 1
 493 806 l 1
448 762 m 1
 448 806 l 1
 627 806 l 1
 627 762 l 1
 448 762 l 1
448 717 m 1
 448 762 l 1
 582 762 l 1
 582 717 l 1
 448 717 l 1
403 672 m 1
 403 717 l 1
 582 717 l 1
 582 672 l 1
 403 672 l 1
403 627 m 1
 403 672 l 1
 538 672 l 1
 538 627 l 1
 403 627 l 1
358 582 m 1
 358 627 l 1
 538 627 l 1
 538 582 l 1
 358 582 l 1
358 538 m 1
 358 582 l 1
 493 582 l 1
 493 538 l 1
 358 538 l 1
358 493 m 1
 358 538 l 1
 493 538 l 1
 493 493 l 1
 358 493 l 1
314 448 m 1
 314 493 l 1
 448 493 l 1
 448 448 l 1
 314 448 l 1
314 403 m 1
 314 448 l 1
 448 448 l 1
 448 403 l 1
 314 403 l 1
269 358 m 1
 269 403 l 1
 403 403 l 1
 403 358 l 1
 269 358 l 1
269 314 m 1
 269 358 l 1
 403 358 l 1
 403 314 l 1
 269 314 l 1
224 269 m 1
 224 314 l 1
 358 314 l 1
 358 269 l 1
 224 269 l 1
224 224 m 1
 224 269 l 1
 358 269 l 1
 358 224 l 1
 224 224 l 1
179 179 m 1
 179 224 l 1
 314 224 l 1
 314 179 l 1
 179 179 l 1
179 134 m 1
 179 179 l 1
 314 179 l 1
 314 134 l 1
 179 134 l 1
134 90 m 1
 134 134 l 1
 269 134 l 1
 269 90 l 1
 134 90 l 1
134 45 m 1
 134 90 l 1
 269 90 l 1
 269 45 l 1
 134 45 l 1
90 0 m 1
 90 45 l 1
 224 45 l 1
 224 0 l 1
 90 0 l 1
90 -45 m 1
 90 0 l 1
 224 0 l 1
 224 -45 l 1
 90 -45 l 1
45 -90 m 1
 45 -45 l 1
 179 -45 l 1
 179 -90 l 1
 45 -90 l 1
45 -134 m 1
 45 -90 l 1
 179 -90 l 1
 179 -134 l 1
 45 -134 l 1
0 -179 m 1
 0 -134 l 1
 134 -134 l 1
 134 -179 l 1
 0 -179 l 1
EndSplineSet
EndChar

StartChar: zero
Encoding: 48 48 17
Width: 717
Flags: HW
LayerCount: 2
Back
Fore
SplineSet
224 806 m 1
 224 851 l 1
 493 851 l 1
 493 806 l 1
 224 806 l 1
179 762 m 1
 179 806 l 1
 538 806 l 1
 538 762 l 1
 179 762 l 1
134 717 m 1
 134 762 l 1
 582 762 l 1
 582 717 l 1
 134 717 l 1
90 672 m 1
 90 717 l 1
 269 717 l 1
 269 672 l 1
 90 672 l 1
448 672 m 1
 448 717 l 1
 627 717 l 1
 627 672 l 1
 448 672 l 1
90 627 m 1
 90 672 l 1
 269 672 l 1
 269 627 l 1
 90 627 l 1
448 627 m 1
 448 672 l 1
 627 672 l 1
 627 627 l 1
 448 627 l 1
45 582 m 1
 45 627 l 1
 224 627 l 1
 224 582 l 1
 45 582 l 1
493 582 m 1
 493 627 l 1
 672 627 l 1
 672 582 l 1
 493 582 l 1
45 538 m 1
 45 582 l 1
 224 582 l 1
 224 538 l 1
 45 538 l 1
493 538 m 1
 493 582 l 1
 672 582 l 1
 672 538 l 1
 493 538 l 1
45 493 m 1
 45 538 l 1
 224 538 l 1
 224 493 l 1
 45 493 l 1
493 493 m 1
 493 538 l 1
 672 538 l 1
 672 493 l 1
 493 493 l 1
45 448 m 1
 45 493 l 1
 224 493 l 1
 224 448 l 1
 45 448 l 1
493 448 m 1
 493 493 l 1
 672 493 l 1
 672 448 l 1
 493 448 l 1
45 403 m 1
 45 448 l 1
 224 448 l 1
 224 403 l 1
 45 403 l 1
493 403 m 1
 493 448 l 1
 672 448 l 1
 672 403 l 1
 493 403 l 1
45 358 m 1
 45 403 l 1
 224 403 l 1
 224 358 l 1
 45 358 l 1
493 358 m 1
 493 403 l 1
 672 403 l 1
 672 358 l 1
 493 358 l 1
45 314 m 1
 45 358 l 1
 224 358 l 1
 224 314 l 1
 45 314 l 1
493 314 m 1
 493 358 l 1
 672 358 l 1
 672 314 l 1
 493 314 l 1
45 269 m 1
 45 314 l 1
 224 314 l 1
 224 269 l 1
 45 269 l 1
493 269 m 1
 493 314 l 1
 672 314 l 1
 672 269 l 1
 493 269 l 1
45 224 m 1
 45 269 l 1
 224 269 l 1
 224 224 l 1
 45 224 l 1
493 224 m 1
 493 269 l 1
 672 269 l 1
 672 224 l 1
 493 224 l 1
90 179 m 1
 90 224 l 1
 269 224 l 1
 269 179 l 1
 90 179 l 1
448 179 m 1
 448 224 l 1
 627 224 l 1
 627 179 l 1
 448 179 l 1
90 134 m 1
 90 179 l 1
 269 179 l 1
 269 134 l 1
 90 134 l 1
448 134 m 1
 448 179 l 1
 627 179 l 1
 627 134 l 1
 448 134 l 1
134 90 m 1
 134 134 l 1
 582 134 l 1
 582 90 l 1
 134 90 l 1
179 45 m 1
 179 90 l 1
 538 90 l 1
 538 45 l 1
 179 45 l 1
224 0 m 1
 224 45 l 1
 493 45 l 1
 493 0 l 1
 224 0 l 1
EndSplineSet
EndChar

StartChar: one
Encoding: 49 49 18
Width: 717
Flags: HW
LayerCount: 2
Back
Fore
SplineSet
90 806 m 1
 90 851 l 1
 448 851 l 1
 448 806 l 1
 90 806 l 1
90 762 m 1
 90 806 l 1
 448 806 l 1
 448 762 l 1
 90 762 l 1
90 717 m 1
 90 762 l 1
 448 762 l 1
 448 717 l 1
 90 717 l 1
269 672 m 1
 269 717 l 1
 448 717 l 1
 448 672 l 1
 269 672 l 1
269 627 m 1
 269 672 l 1
 448 672 l 1
 448 627 l 1
 269 627 l 1
269 582 m 1
 269 627 l 1
 448 627 l 1
 448 582 l 1
 269 582 l 1
269 538 m 1
 269 582 l 1
 448 582 l 1
 448 538 l 1
 269 538 l 1
269 493 m 1
 269 538 l 1
 448 538 l 1
 448 493 l 1
 269 493 l 1
269 448 m 1
 269 493 l 1
 448 493 l 1
 448 448 l 1
 269 448 l 1
269 403 m 1
 269 448 l 1
 448 448 l 1
 448 403 l 1
 269 403 l 1
269 358 m 1
 269 403 l 1
 448 403 l 1
 448 358 l 1
 269 358 l 1
269 314 m 1
 269 358 l 1
 448 358 l 1
 448 314 l 1
 269 314 l 1
269 269 m 1
 269 314 l 1
 448 314 l 1
 448 269 l 1
 269 269 l 1
269 224 m 1
 269 269 l 1
 448 269 l 1
 448 224 l 1
 269 224 l 1
269 179 m 1
 269 224 l 1
 448 224 l 1
 448 179 l 1
 269 179 l 1
269 134 m 1
 269 179 l 1
 448 179 l 1
 448 134 l 1
 269 134 l 1
90 90 m 1
 90 134 l 1
 627 134 l 1
 627 90 l 1
 90 90 l 1
90 45 m 1
 90 90 l 1
 627 90 l 1
 627 45 l 1
 90 45 l 1
90 0 m 1
 90 45 l 1
 627 45 l 1
 627 0 l 1
 90 0 l 1
EndSplineSet
EndChar

StartChar: two
Encoding: 50 50 19
Width: 717
Flags: HW
LayerCount: 2
Back
Fore
SplineSet
179 806 m 1
 179 851 l 1
 448 851 l 1
 448 806 l 1
 179 806 l 1
134 762 m 1
 134 806 l 1
 493 806 l 1
 493 762 l 1
 134 762 l 1
134 717 m 1
 134 762 l 1
 538 762 l 1
 538 717 l 1
 134 717 l 1
134 672 m 1
 134 717 l 1
 179 717 l 1
 179 672 l 1
 134 672 l 1
358 672 m 1
 358 717 l 1
 582 717 l 1
 582 672 l 1
 358 672 l 1
403 627 m 1
 403 672 l 1
 582 672 l 1
 582 627 l 1
 403 627 l 1
403 582 m 1
 403 627 l 1
 582 627 l 1
 582 582 l 1
 403 582 l 1
403 538 m 1
 403 582 l 1
 582 582 l 1
 582 538 l 1
 403 538 l 1
358 493 m 1
 358 538 l 1
 582 538 l 1
 582 493 l 1
 358 493 l 1
358 448 m 1
 358 493 l 1
 538 493 l 1
 538 448 l 1
 358 448 l 1
314 403 m 1
 314 448 l 1
 493 448 l 1
 493 403 l 1
 314 403 l 1
269 358 m 1
 269 403 l 1
 448 403 l 1
 448 358 l 1
 269 358 l 1
224 314 m 1
 224 358 l 1
 448 358 l 1
 448 314 l 1
 224 314 l 1
179 269 m 1
 179 314 l 1
 358 314 l 1
 358 269 l 1
 179 269 l 1
134 224 m 1
 134 269 l 1
 314 269 l 1
 314 224 l 1
 134 224 l 1
134 179 m 1
 134 224 l 1
 314 224 l 1
 314 179 l 1
 134 179 l 1
90 134 m 1
 90 179 l 1
 269 179 l 1
 269 134 l 1
 90 134 l 1
90 90 m 1
 90 134 l 1
 582 134 l 1
 582 90 l 1
 90 90 l 1
90 45 m 1
 90 90 l 1
 582 90 l 1
 582 45 l 1
 90 45 l 1
90 0 m 1
 90 45 l 1
 582 45 l 1
 582 0 l 1
 90 0 l 1
EndSplineSet
EndChar

StartChar: three
Encoding: 51 51 20
Width: 717
Flags: HW
LayerCount: 2
Back
Fore
SplineSet
134 806 m 1
 134 851 l 1
 448 851 l 1
 448 806 l 1
 134 806 l 1
90 762 m 1
 90 806 l 1
 538 806 l 1
 538 762 l 1
 90 762 l 1
90 717 m 1
 90 762 l 1
 538 762 l 1
 538 717 l 1
 90 717 l 1
90 672 m 1
 90 717 l 1
 134 717 l 1
 134 672 l 1
 90 672 l 1
358 672 m 1
 358 717 l 1
 582 717 l 1
 582 672 l 1
 358 672 l 1
403 627 m 1
 403 672 l 1
 582 672 l 1
 582 627 l 1
 403 627 l 1
403 582 m 1
 403 627 l 1
 582 627 l 1
 582 582 l 1
 403 582 l 1
358 538 m 1
 358 582 l 1
 538 582 l 1
 538 538 l 1
 358 538 l 1
314 493 m 1
 314 538 l 1
 538 538 l 1
 538 493 l 1
 314 493 l 1
179 448 m 1
 179 493 l 1
 403 493 l 1
 403 448 l 1
 179 448 l 1
179 403 m 1
 179 448 l 1
 448 448 l 1
 448 403 l 1
 179 403 l 1
179 358 m 1
 179 403 l 1
 538 403 l 1
 538 358 l 1
 179 358 l 1
314 314 m 1
 314 358 l 1
 538 358 l 1
 538 314 l 1
 314 314 l 1
403 269 m 1
 403 314 l 1
 582 314 l 1
 582 269 l 1
 403 269 l 1
403 224 m 1
 403 269 l 1
 582 269 l 1
 582 224 l 1
 403 224 l 1
403 179 m 1
 403 224 l 1
 582 224 l 1
 582 179 l 1
 403 179 l 1
90 134 m 1
 90 179 l 1
 134 179 l 1
 134 134 l 1
 90 134 l 1
358 134 m 1
 358 179 l 1
 582 179 l 1
 582 134 l 1
 358 134 l 1
90 90 m 1
 90 134 l 1
 538 134 l 1
 538 90 l 1
 90 90 l 1
90 45 m 1
 90 90 l 1
 493 90 l 1
 493 45 l 1
 90 45 l 1
134 0 m 1
 134 45 l 1
 403 45 l 1
 403 0 l 1
 134 0 l 1
EndSplineSet
EndChar

StartChar: four
Encoding: 52 52 21
Width: 717
Flags: HW
LayerCount: 2
Back
Fore
SplineSet
314 806 m 1
 314 851 l 1
 538 851 l 1
 538 806 l 1
 314 806 l 1
314 762 m 1
 314 806 l 1
 538 806 l 1
 538 762 l 1
 314 762 l 1
269 717 m 1
 269 762 l 1
 538 762 l 1
 538 717 l 1
 269 717 l 1
224 672 m 1
 224 717 l 1
 538 717 l 1
 538 672 l 1
 224 672 l 1
224 627 m 1
 224 672 l 1
 538 672 l 1
 538 627 l 1
 224 627 l 1
179 582 m 1
 179 627 l 1
 538 627 l 1
 538 582 l 1
 179 582 l 1
134 538 m 1
 134 582 l 1
 314 582 l 1
 314 538 l 1
 134 538 l 1
358 538 m 1
 358 582 l 1
 538 582 l 1
 538 538 l 1
 358 538 l 1
134 493 m 1
 134 538 l 1
 269 538 l 1
 269 493 l 1
 134 493 l 1
358 493 m 1
 358 538 l 1
 538 538 l 1
 538 493 l 1
 358 493 l 1
90 448 m 1
 90 493 l 1
 269 493 l 1
 269 448 l 1
 90 448 l 1
358 448 m 1
 358 493 l 1
 538 493 l 1
 538 448 l 1
 358 448 l 1
45 403 m 1
 45 448 l 1
 224 448 l 1
 224 403 l 1
 45 403 l 1
358 403 m 1
 358 448 l 1
 538 448 l 1
 538 403 l 1
 358 403 l 1
45 358 m 1
 45 403 l 1
 672 403 l 1
 672 358 l 1
 45 358 l 1
45 314 m 1
 45 358 l 1
 672 358 l 1
 672 314 l 1
 45 314 l 1
45 269 m 1
 45 314 l 1
 672 314 l 1
 672 269 l 1
 45 269 l 1
45 224 m 1
 45 269 l 1
 672 269 l 1
 672 224 l 1
 45 224 l 1
358 179 m 1
 358 224 l 1
 538 224 l 1
 538 179 l 1
 358 179 l 1
358 134 m 1
 358 179 l 1
 538 179 l 1
 538 134 l 1
 358 134 l 1
358 90 m 1
 358 134 l 1
 538 134 l 1
 538 90 l 1
 358 90 l 1
358 45 m 1
 358 90 l 1
 538 90 l 1
 538 45 l 1
 358 45 l 1
358 0 m 1
 358 45 l 1
 538 45 l 1
 538 0 l 1
 358 0 l 1
EndSplineSet
EndChar

StartChar: five
Encoding: 53 53 22
Width: 717
Flags: HW
LayerCount: 2
Back
Fore
SplineSet
134 806 m 1
 134 851 l 1
 582 851 l 1
 582 806 l 1
 134 806 l 1
134 762 m 1
 134 806 l 1
 582 806 l 1
 582 762 l 1
 134 762 l 1
134 717 m 1
 134 762 l 1
 582 762 l 1
 582 717 l 1
 134 717 l 1
134 672 m 1
 134 717 l 1
 269 717 l 1
 269 672 l 1
 134 672 l 1
134 627 m 1
 134 672 l 1
 269 672 l 1
 269 627 l 1
 134 627 l 1
134 582 m 1
 134 627 l 1
 269 627 l 1
 269 582 l 1
 134 582 l 1
134 538 m 1
 134 582 l 1
 269 582 l 1
 269 538 l 1
 134 538 l 1
134 493 m 1
 134 538 l 1
 358 538 l 1
 358 493 l 1
 134 493 l 1
134 448 m 1
 134 493 l 1
 493 493 l 1
 493 448 l 1
 134 448 l 1
134 403 m 1
 134 448 l 1
 538 448 l 1
 538 403 l 1
 134 403 l 1
314 358 m 1
 314 403 l 1
 538 403 l 1
 538 358 l 1
 314 358 l 1
358 314 m 1
 358 358 l 1
 582 358 l 1
 582 314 l 1
 358 314 l 1
403 269 m 1
 403 314 l 1
 582 314 l 1
 582 269 l 1
 403 269 l 1
403 224 m 1
 403 269 l 1
 582 269 l 1
 582 224 l 1
 403 224 l 1
403 179 m 1
 403 224 l 1
 582 224 l 1
 582 179 l 1
 403 179 l 1
134 134 m 1
 134 179 l 1
 179 179 l 1
 179 134 l 1
 134 134 l 1
358 134 m 1
 358 179 l 1
 538 179 l 1
 538 134 l 1
 358 134 l 1
134 90 m 1
 134 134 l 1
 538 134 l 1
 538 90 l 1
 134 90 l 1
134 45 m 1
 134 90 l 1
 493 90 l 1
 493 45 l 1
 134 45 l 1
179 0 m 1
 179 45 l 1
 403 45 l 1
 403 0 l 1
 179 0 l 1
EndSplineSet
EndChar

StartChar: six
Encoding: 54 54 23
Width: 717
Flags: HW
LayerCount: 2
Back
Fore
SplineSet
314 806 m 1
 314 851 l 1
 582 851 l 1
 582 806 l 1
 314 806 l 1
224 762 m 1
 224 806 l 1
 582 806 l 1
 582 762 l 1
 224 762 l 1
179 717 m 1
 179 762 l 1
 582 762 l 1
 582 717 l 1
 179 717 l 1
134 672 m 1
 134 717 l 1
 358 717 l 1
 358 672 l 1
 134 672 l 1
538 672 m 1
 538 717 l 1
 582 717 l 1
 582 672 l 1
 538 672 l 1
90 627 m 1
 90 672 l 1
 269 672 l 1
 269 627 l 1
 90 627 l 1
90 582 m 1
 90 627 l 1
 269 627 l 1
 269 582 l 1
 90 582 l 1
45 538 m 1
 45 582 l 1
 224 582 l 1
 224 538 l 1
 45 538 l 1
45 493 m 1
 45 538 l 1
 224 538 l 1
 224 493 l 1
 45 493 l 1
314 493 m 1
 314 538 l 1
 493 538 l 1
 493 493 l 1
 314 493 l 1
45 448 m 1
 45 493 l 1
 582 493 l 1
 582 448 l 1
 45 448 l 1
45 403 m 1
 45 448 l 1
 582 448 l 1
 582 403 l 1
 45 403 l 1
45 358 m 1
 45 403 l 1
 269 403 l 1
 269 358 l 1
 45 358 l 1
403 358 m 1
 403 403 l 1
 627 403 l 1
 627 358 l 1
 403 358 l 1
45 314 m 1
 45 358 l 1
 224 358 l 1
 224 314 l 1
 45 314 l 1
448 314 m 1
 448 358 l 1
 627 358 l 1
 627 314 l 1
 448 314 l 1
45 269 m 1
 45 314 l 1
 224 314 l 1
 224 269 l 1
 45 269 l 1
448 269 m 1
 448 314 l 1
 627 314 l 1
 627 269 l 1
 448 269 l 1
45 224 m 1
 45 269 l 1
 224 269 l 1
 224 224 l 1
 45 224 l 1
448 224 m 1
 448 269 l 1
 627 269 l 1
 627 224 l 1
 448 224 l 1
90 179 m 1
 90 224 l 1
 224 224 l 1
 224 179 l 1
 90 179 l 1
448 179 m 1
 448 224 l 1
 627 224 l 1
 627 179 l 1
 448 179 l 1
90 134 m 1
 90 179 l 1
 269 179 l 1
 269 134 l 1
 90 134 l 1
403 134 m 1
 403 179 l 1
 582 179 l 1
 582 134 l 1
 403 134 l 1
134 90 m 1
 134 134 l 1
 582 134 l 1
 582 90 l 1
 134 90 l 1
179 45 m 1
 179 90 l 1
 538 90 l 1
 538 45 l 1
 179 45 l 1
224 0 m 1
 224 45 l 1
 493 45 l 1
 493 0 l 1
 224 0 l 1
EndSplineSet
EndChar

StartChar: seven
Encoding: 55 55 24
Width: 717
Flags: HW
LayerCount: 2
Back
Fore
SplineSet
134 806 m 1
 134 851 l 1
 627 851 l 1
 627 806 l 1
 134 806 l 1
134 762 m 1
 134 806 l 1
 627 806 l 1
 627 762 l 1
 134 762 l 1
134 717 m 1
 134 762 l 1
 627 762 l 1
 627 717 l 1
 134 717 l 1
448 672 m 1
 448 717 l 1
 627 717 l 1
 627 672 l 1
 448 672 l 1
448 627 m 1
 448 672 l 1
 627 672 l 1
 627 627 l 1
 448 627 l 1
403 582 m 1
 403 627 l 1
 582 627 l 1
 582 582 l 1
 403 582 l 1
403 538 m 1
 403 582 l 1
 538 582 l 1
 538 538 l 1
 403 538 l 1
358 493 m 1
 358 538 l 1
 538 538 l 1
 538 493 l 1
 358 493 l 1
314 448 m 1
 314 493 l 1
 493 493 l 1
 493 448 l 1
 314 448 l 1
314 403 m 1
 314 448 l 1
 493 448 l 1
 493 403 l 1
 314 403 l 1
269 358 m 1
 269 403 l 1
 448 403 l 1
 448 358 l 1
 269 358 l 1
269 314 m 1
 269 358 l 1
 448 358 l 1
 448 314 l 1
 269 314 l 1
224 269 m 1
 224 314 l 1
 403 314 l 1
 403 269 l 1
 224 269 l 1
224 224 m 1
 224 269 l 1
 403 269 l 1
 403 224 l 1
 224 224 l 1
224 179 m 1
 224 224 l 1
 358 224 l 1
 358 179 l 1
 224 179 l 1
179 134 m 1
 179 179 l 1
 358 179 l 1
 358 134 l 1
 179 134 l 1
179 90 m 1
 179 134 l 1
 358 134 l 1
 358 90 l 1
 179 90 l 1
179 45 m 1
 179 90 l 1
 358 90 l 1
 358 45 l 1
 179 45 l 1
179 0 m 1
 179 45 l 1
 358 45 l 1
 358 0 l 1
 179 0 l 1
EndSplineSet
EndChar

StartChar: eight
Encoding: 56 56 25
Width: 717
Flags: HW
LayerCount: 2
Back
Fore
SplineSet
224 806 m 1
 224 851 l 1
 448 851 l 1
 448 806 l 1
 224 806 l 1
134 762 m 1
 134 806 l 1
 538 806 l 1
 538 762 l 1
 134 762 l 1
134 717 m 1
 134 762 l 1
 582 762 l 1
 582 717 l 1
 134 717 l 1
90 672 m 1
 90 717 l 1
 269 717 l 1
 269 672 l 1
 90 672 l 1
403 672 m 1
 403 717 l 1
 582 717 l 1
 582 672 l 1
 403 672 l 1
90 627 m 1
 90 672 l 1
 269 672 l 1
 269 627 l 1
 90 627 l 1
403 627 m 1
 403 672 l 1
 582 672 l 1
 582 627 l 1
 403 627 l 1
90 582 m 1
 90 627 l 1
 314 627 l 1
 314 582 l 1
 90 582 l 1
403 582 m 1
 403 627 l 1
 582 627 l 1
 582 582 l 1
 403 582 l 1
90 538 m 1
 90 582 l 1
 538 582 l 1
 538 538 l 1
 90 538 l 1
134 493 m 1
 134 538 l 1
 493 538 l 1
 493 493 l 1
 134 493 l 1
179 448 m 1
 179 493 l 1
 448 493 l 1
 448 448 l 1
 179 448 l 1
179 403 m 1
 179 448 l 1
 538 448 l 1
 538 403 l 1
 179 403 l 1
134 358 m 1
 134 403 l 1
 269 403 l 1
 269 358 l 1
 134 358 l 1
314 358 m 1
 314 403 l 1
 582 403 l 1
 582 358 l 1
 314 358 l 1
90 314 m 1
 90 358 l 1
 224 358 l 1
 224 314 l 1
 90 314 l 1
358 314 m 1
 358 358 l 1
 582 358 l 1
 582 314 l 1
 358 314 l 1
45 269 m 1
 45 314 l 1
 224 314 l 1
 224 269 l 1
 45 269 l 1
403 269 m 1
 403 314 l 1
 627 314 l 1
 627 269 l 1
 403 269 l 1
45 224 m 1
 45 269 l 1
 224 269 l 1
 224 224 l 1
 45 224 l 1
448 224 m 1
 448 269 l 1
 627 269 l 1
 627 224 l 1
 448 224 l 1
45 179 m 1
 45 224 l 1
 224 224 l 1
 224 179 l 1
 45 179 l 1
448 179 m 1
 448 224 l 1
 627 224 l 1
 627 179 l 1
 448 179 l 1
45 134 m 1
 45 179 l 1
 269 179 l 1
 269 134 l 1
 45 134 l 1
403 134 m 1
 403 179 l 1
 627 179 l 1
 627 134 l 1
 403 134 l 1
90 90 m 1
 90 134 l 1
 582 134 l 1
 582 90 l 1
 90 90 l 1
134 45 m 1
 134 90 l 1
 538 90 l 1
 538 45 l 1
 134 45 l 1
179 0 m 1
 179 45 l 1
 448 45 l 1
 448 0 l 1
 179 0 l 1
EndSplineSet
EndChar

StartChar: nine
Encoding: 57 57 26
Width: 717
Flags: HW
LayerCount: 2
Back
Fore
SplineSet
224 806 m 1
 224 851 l 1
 493 851 l 1
 493 806 l 1
 224 806 l 1
179 762 m 1
 179 806 l 1
 538 806 l 1
 538 762 l 1
 179 762 l 1
134 717 m 1
 134 762 l 1
 582 762 l 1
 582 717 l 1
 134 717 l 1
134 672 m 1
 134 717 l 1
 314 717 l 1
 314 672 l 1
 134 672 l 1
448 672 m 1
 448 717 l 1
 627 717 l 1
 627 672 l 1
 448 672 l 1
90 627 m 1
 90 672 l 1
 269 672 l 1
 269 627 l 1
 90 627 l 1
493 627 m 1
 493 672 l 1
 627 672 l 1
 627 627 l 1
 493 627 l 1
90 582 m 1
 90 627 l 1
 269 627 l 1
 269 582 l 1
 90 582 l 1
493 582 m 1
 493 627 l 1
 672 627 l 1
 672 582 l 1
 493 582 l 1
90 538 m 1
 90 582 l 1
 269 582 l 1
 269 538 l 1
 90 538 l 1
493 538 m 1
 493 582 l 1
 672 582 l 1
 672 538 l 1
 493 538 l 1
90 493 m 1
 90 538 l 1
 269 538 l 1
 269 493 l 1
 90 493 l 1
493 493 m 1
 493 538 l 1
 672 538 l 1
 672 493 l 1
 493 493 l 1
90 448 m 1
 90 493 l 1
 314 493 l 1
 314 448 l 1
 90 448 l 1
448 448 m 1
 448 493 l 1
 672 493 l 1
 672 448 l 1
 448 448 l 1
134 403 m 1
 134 448 l 1
 672 448 l 1
 672 403 l 1
 134 403 l 1
134 358 m 1
 134 403 l 1
 672 403 l 1
 672 358 l 1
 134 358 l 1
224 314 m 1
 224 358 l 1
 403 358 l 1
 403 314 l 1
 224 314 l 1
493 314 m 1
 493 358 l 1
 672 358 l 1
 672 314 l 1
 493 314 l 1
493 269 m 1
 493 314 l 1
 672 314 l 1
 672 269 l 1
 493 269 l 1
448 224 m 1
 448 269 l 1
 627 269 l 1
 627 224 l 1
 448 224 l 1
448 179 m 1
 448 224 l 1
 627 224 l 1
 627 179 l 1
 448 179 l 1
134 134 m 1
 134 179 l 1
 179 179 l 1
 179 134 l 1
 134 134 l 1
358 134 m 1
 358 179 l 1
 582 179 l 1
 582 134 l 1
 358 134 l 1
134 90 m 1
 134 134 l 1
 538 134 l 1
 538 90 l 1
 134 90 l 1
134 45 m 1
 134 90 l 1
 493 90 l 1
 493 45 l 1
 134 45 l 1
134 0 m 1
 134 45 l 1
 403 45 l 1
 403 0 l 1
 134 0 l 1
EndSplineSet
EndChar

StartChar: colon
Encoding: 58 58 27
Width: 717
Flags: HW
LayerCount: 2
Back
Fore
SplineSet
269 582 m 1
 269 627 l 1
 448 627 l 1
 448 582 l 1
 269 582 l 1
269 538 m 1
 269 582 l 1
 448 582 l 1
 448 538 l 1
 269 538 l 1
269 493 m 1
 269 538 l 1
 448 538 l 1
 448 493 l 1
 269 493 l 1
269 448 m 1
 269 493 l 1
 448 493 l 1
 448 448 l 1
 269 448 l 1
269 134 m 1
 269 179 l 1
 448 179 l 1
 448 134 l 1
 269 134 l 1
269 90 m 1
 269 134 l 1
 448 134 l 1
 448 90 l 1
 269 90 l 1
269 45 m 1
 269 90 l 1
 448 90 l 1
 448 45 l 1
 269 45 l 1
269 0 m 1
 269 45 l 1
 448 45 l 1
 448 0 l 1
 269 0 l 1
EndSplineSet
EndChar

StartChar: semicolon
Encoding: 59 59 28
Width: 717
Flags: HW
LayerCount: 2
Back
Fore
SplineSet
269 582 m 1
 269 627 l 1
 448 627 l 1
 448 582 l 1
 269 582 l 1
269 538 m 1
 269 582 l 1
 448 582 l 1
 448 538 l 1
 269 538 l 1
269 493 m 1
 269 538 l 1
 448 538 l 1
 448 493 l 1
 269 493 l 1
269 448 m 1
 269 493 l 1
 448 493 l 1
 448 448 l 1
 269 448 l 1
269 134 m 1
 269 179 l 1
 448 179 l 1
 448 134 l 1
 269 134 l 1
269 90 m 1
 269 134 l 1
 448 134 l 1
 448 90 l 1
 269 90 l 1
269 45 m 1
 269 90 l 1
 448 90 l 1
 448 45 l 1
 269 45 l 1
269 0 m 1
 269 45 l 1
 448 45 l 1
 448 0 l 1
 269 0 l 1
314 -45 m 1
 314 0 l 1
 448 0 l 1
 448 -45 l 1
 314 -45 l 1
314 -90 m 1
 314 -45 l 1
 448 -45 l 1
 448 -90 l 1
 314 -90 l 1
269 -134 m 1
 269 -90 l 1
 403 -90 l 1
 403 -134 l 1
 269 -134 l 1
269 -179 m 1
 269 -134 l 1
 358 -134 l 1
 358 -179 l 1
 269 -179 l 1
EndSplineSet
EndChar

StartChar: less
Encoding: 60 60 29
Width: 717
Flags: HW
LayerCount: 2
Back
Fore
SplineSet
582 582 m 1
 582 627 l 1
 627 627 l 1
 627 582 l 1
 582 582 l 1
493 538 m 1
 493 582 l 1
 627 582 l 1
 627 538 l 1
 493 538 l 1
403 493 m 1
 403 538 l 1
 627 538 l 1
 627 493 l 1
 403 493 l 1
314 448 m 1
 314 493 l 1
 627 493 l 1
 627 448 l 1
 314 448 l 1
224 403 m 1
 224 448 l 1
 538 448 l 1
 538 403 l 1
 224 403 l 1
179 358 m 1
 179 403 l 1
 448 403 l 1
 448 358 l 1
 179 358 l 1
45 314 m 1
 45 358 l 1
 358 358 l 1
 358 314 l 1
 45 314 l 1
90 269 m 1
 90 314 l 1
 358 314 l 1
 358 269 l 1
 90 269 l 1
179 224 m 1
 179 269 l 1
 448 269 l 1
 448 224 l 1
 179 224 l 1
224 179 m 1
 224 224 l 1
 538 224 l 1
 538 179 l 1
 224 179 l 1
314 134 m 1
 314 179 l 1
 627 179 l 1
 627 134 l 1
 314 134 l 1
403 90 m 1
 403 134 l 1
 627 134 l 1
 627 90 l 1
 403 90 l 1
493 45 m 1
 493 90 l 1
 627 90 l 1
 627 45 l 1
 493 45 l 1
582 0 m 1
 582 45 l 1
 627 45 l 1
 627 0 l 1
 582 0 l 1
EndSplineSet
EndChar

StartChar: equal
Encoding: 61 61 30
Width: 717
Flags: HW
LayerCount: 2
Back
Fore
SplineSet
45 493 m 1
 45 538 l 1
 627 538 l 1
 627 493 l 1
 45 493 l 1
45 448 m 1
 45 493 l 1
 627 493 l 1
 627 448 l 1
 45 448 l 1
45 403 m 1
 45 448 l 1
 627 448 l 1
 627 403 l 1
 45 403 l 1
45 179 m 1
 45 224 l 1
 627 224 l 1
 627 179 l 1
 45 179 l 1
45 134 m 1
 45 179 l 1
 627 179 l 1
 627 134 l 1
 45 134 l 1
45 90 m 1
 45 134 l 1
 627 134 l 1
 627 90 l 1
 45 90 l 1
EndSplineSet
EndChar

StartChar: greater
Encoding: 62 62 31
Width: 717
Flags: HW
LayerCount: 2
Back
Fore
SplineSet
45 582 m 1
 45 627 l 1
 90 627 l 1
 90 582 l 1
 45 582 l 1
45 538 m 1
 45 582 l 1
 179 582 l 1
 179 538 l 1
 45 538 l 1
45 493 m 1
 45 538 l 1
 269 538 l 1
 269 493 l 1
 45 493 l 1
45 448 m 1
 45 493 l 1
 358 493 l 1
 358 448 l 1
 45 448 l 1
134 403 m 1
 134 448 l 1
 403 448 l 1
 403 403 l 1
 134 403 l 1
224 358 m 1
 224 403 l 1
 493 403 l 1
 493 358 l 1
 224 358 l 1
314 314 m 1
 314 358 l 1
 582 358 l 1
 582 314 l 1
 314 314 l 1
314 269 m 1
 314 314 l 1
 627 314 l 1
 627 269 l 1
 314 269 l 1
224 224 m 1
 224 269 l 1
 493 269 l 1
 493 224 l 1
 224 224 l 1
134 179 m 1
 134 224 l 1
 403 224 l 1
 403 179 l 1
 134 179 l 1
45 134 m 1
 45 179 l 1
 358 179 l 1
 358 134 l 1
 45 134 l 1
45 90 m 1
 45 134 l 1
 269 134 l 1
 269 90 l 1
 45 90 l 1
45 45 m 1
 45 90 l 1
 179 90 l 1
 179 45 l 1
 45 45 l 1
45 0 m 1
 45 45 l 1
 90 45 l 1
 90 0 l 1
 45 0 l 1
EndSplineSet
EndChar

StartChar: question
Encoding: 63 63 32
Width: 717
Flags: HW
LayerCount: 2
Back
Fore
SplineSet
179 806 m 1
 179 851 l 1
 538 851 l 1
 538 806 l 1
 179 806 l 1
90 762 m 1
 90 806 l 1
 627 806 l 1
 627 762 l 1
 90 762 l 1
90 717 m 1
 90 762 l 1
 627 762 l 1
 627 717 l 1
 90 717 l 1
90 672 m 1
 90 717 l 1
 179 717 l 1
 179 672 l 1
 90 672 l 1
448 672 m 1
 448 717 l 1
 672 717 l 1
 672 672 l 1
 448 672 l 1
90 627 m 1
 90 672 l 1
 179 672 l 1
 179 627 l 1
 90 627 l 1
493 627 m 1
 493 672 l 1
 672 672 l 1
 672 627 l 1
 493 627 l 1
90 582 m 1
 90 627 l 1
 179 627 l 1
 179 582 l 1
 90 582 l 1
493 582 m 1
 493 627 l 1
 672 627 l 1
 672 582 l 1
 493 582 l 1
448 538 m 1
 448 582 l 1
 672 582 l 1
 672 538 l 1
 448 538 l 1
403 493 m 1
 403 538 l 1
 627 538 l 1
 627 493 l 1
 403 493 l 1
314 448 m 1
 314 493 l 1
 582 493 l 1
 582 448 l 1
 314 448 l 1
269 403 m 1
 269 448 l 1
 493 448 l 1
 493 403 l 1
 269 403 l 1
224 358 m 1
 224 403 l 1
 448 403 l 1
 448 358 l 1
 224 358 l 1
179 314 m 1
 179 358 l 1
 358 358 l 1
 358 314 l 1
 179 314 l 1
179 269 m 1
 179 314 l 1
 358 314 l 1
 358 269 l 1
 179 269 l 1
179 224 m 1
 179 269 l 1
 358 269 l 1
 358 224 l 1
 179 224 l 1
179 90 m 1
 179 134 l 1
 358 134 l 1
 358 90 l 1
 179 90 l 1
179 45 m 1
 179 90 l 1
 358 90 l 1
 358 45 l 1
 179 45 l 1
179 0 m 1
 179 45 l 1
 358 45 l 1
 358 0 l 1
 179 0 l 1
EndSplineSet
EndChar

StartChar: at
Encoding: 64 64 33
Width: 717
Flags: HW
LayerCount: 2
Back
Fore
SplineSet
269 806 m 1
 269 851 l 1
 493 851 l 1
 493 806 l 1
 269 806 l 1
224 762 m 1
 224 806 l 1
 582 806 l 1
 582 762 l 1
 224 762 l 1
134 717 m 1
 134 762 l 1
 627 762 l 1
 627 717 l 1
 134 717 l 1
134 672 m 1
 134 717 l 1
 314 717 l 1
 314 672 l 1
 134 672 l 1
448 672 m 1
 448 717 l 1
 627 717 l 1
 627 672 l 1
 448 672 l 1
90 627 m 1
 90 672 l 1
 269 672 l 1
 269 627 l 1
 90 627 l 1
314 627 m 1
 314 672 l 1
 448 672 l 1
 448 627 l 1
 314 627 l 1
493 627 m 1
 493 672 l 1
 627 672 l 1
 627 627 l 1
 493 627 l 1
90 582 m 1
 90 627 l 1
 224 627 l 1
 224 582 l 1
 90 582 l 1
269 582 m 1
 269 627 l 1
 627 627 l 1
 627 582 l 1
 269 582 l 1
45 538 m 1
 45 582 l 1
 224 582 l 1
 224 538 l 1
 45 538 l 1
269 538 m 1
 269 582 l 1
 627 582 l 1
 627 538 l 1
 269 538 l 1
45 493 m 1
 45 538 l 1
 179 538 l 1
 179 493 l 1
 45 493 l 1
224 493 m 1
 224 538 l 1
 403 538 l 1
 403 493 l 1
 224 493 l 1
493 493 m 1
 493 538 l 1
 627 538 l 1
 627 493 l 1
 493 493 l 1
45 448 m 1
 45 493 l 1
 179 493 l 1
 179 448 l 1
 45 448 l 1
224 448 m 1
 224 493 l 1
 358 493 l 1
 358 448 l 1
 224 448 l 1
493 448 m 1
 493 493 l 1
 627 493 l 1
 627 448 l 1
 493 448 l 1
45 403 m 1
 45 448 l 1
 179 448 l 1
 179 403 l 1
 45 403 l 1
224 403 m 1
 224 448 l 1
 358 448 l 1
 358 403 l 1
 224 403 l 1
448 403 m 1
 448 448 l 1
 627 448 l 1
 627 403 l 1
 448 403 l 1
45 358 m 1
 45 403 l 1
 179 403 l 1
 179 358 l 1
 45 358 l 1
224 358 m 1
 224 403 l 1
 358 403 l 1
 358 358 l 1
 224 358 l 1
448 358 m 1
 448 403 l 1
 627 403 l 1
 627 358 l 1
 448 358 l 1
45 314 m 1
 45 358 l 1
 179 358 l 1
 179 314 l 1
 45 314 l 1
224 314 m 1
 224 358 l 1
 672 358 l 1
 672 314 l 1
 224 314 l 1
45 269 m 1
 45 314 l 1
 179 314 l 1
 179 269 l 1
 45 269 l 1
224 269 m 1
 224 314 l 1
 672 314 l 1
 672 269 l 1
 224 269 l 1
45 224 m 1
 45 269 l 1
 224 269 l 1
 224 224 l 1
 45 224 l 1
269 224 m 1
 269 269 l 1
 403 269 l 1
 403 224 l 1
 269 224 l 1
493 224 m 1
 493 269 l 1
 672 269 l 1
 672 224 l 1
 493 224 l 1
90 179 m 1
 90 224 l 1
 224 224 l 1
 224 179 l 1
 90 179 l 1
90 134 m 1
 90 179 l 1
 269 179 l 1
 269 134 l 1
 90 134 l 1
448 134 m 1
 448 179 l 1
 493 179 l 1
 493 134 l 1
 448 134 l 1
134 90 m 1
 134 134 l 1
 493 134 l 1
 493 90 l 1
 134 90 l 1
179 45 m 1
 179 90 l 1
 493 90 l 1
 493 45 l 1
 179 45 l 1
224 0 m 1
 224 45 l 1
 448 45 l 1
 448 0 l 1
 224 0 l 1
EndSplineSet
EndChar

StartChar: A
Encoding: 65 65 34
Width: 717
Flags: HW
LayerCount: 2
Back
Fore
SplineSet
224 806 m 1
 224 851 l 1
 448 851 l 1
 448 806 l 1
 224 806 l 1
224 762 m 1
 224 806 l 1
 448 806 l 1
 448 762 l 1
 224 762 l 1
224 717 m 1
 224 762 l 1
 493 762 l 1
 493 717 l 1
 224 717 l 1
224 672 m 1
 224 717 l 1
 493 717 l 1
 493 672 l 1
 224 672 l 1
179 627 m 1
 179 672 l 1
 493 672 l 1
 493 627 l 1
 179 627 l 1
179 582 m 1
 179 627 l 1
 538 627 l 1
 538 582 l 1
 179 582 l 1
179 538 m 1
 179 582 l 1
 314 582 l 1
 314 538 l 1
 179 538 l 1
358 538 m 1
 358 582 l 1
 538 582 l 1
 538 538 l 1
 358 538 l 1
134 493 m 1
 134 538 l 1
 314 538 l 1
 314 493 l 1
 134 493 l 1
358 493 m 1
 358 538 l 1
 538 538 l 1
 538 493 l 1
 358 493 l 1
134 448 m 1
 134 493 l 1
 269 493 l 1
 269 448 l 1
 134 448 l 1
358 448 m 1
 358 493 l 1
 538 493 l 1
 538 448 l 1
 358 448 l 1
134 403 m 1
 134 448 l 1
 269 448 l 1
 269 403 l 1
 134 403 l 1
358 403 m 1
 358 448 l 1
 582 448 l 1
 582 403 l 1
 358 403 l 1
90 358 m 1
 90 403 l 1
 224 403 l 1
 224 358 l 1
 90 358 l 1
403 358 m 1
 403 403 l 1
 582 403 l 1
 582 358 l 1
 403 358 l 1
90 314 m 1
 90 358 l 1
 582 358 l 1
 582 314 l 1
 90 314 l 1
90 269 m 1
 90 314 l 1
 582 314 l 1
 582 269 l 1
 90 269 l 1
45 224 m 1
 45 269 l 1
 627 269 l 1
 627 224 l 1
 45 224 l 1
45 179 m 1
 45 224 l 1
 179 224 l 1
 179 179 l 1
 45 179 l 1
448 179 m 1
 448 224 l 1
 627 224 l 1
 627 179 l 1
 448 179 l 1
45 134 m 1
 45 179 l 1
 179 179 l 1
 179 134 l 1
 45 134 l 1
448 134 m 1
 448 179 l 1
 627 179 l 1
 627 134 l 1
 448 134 l 1
0 90 m 1
 0 134 l 1
 179 134 l 1
 179 90 l 1
 0 90 l 1
448 90 m 1
 448 134 l 1
 672 134 l 1
 672 90 l 1
 448 90 l 1
0 45 m 1
 0 90 l 1
 134 90 l 1
 134 45 l 1
 0 45 l 1
493 45 m 1
 493 90 l 1
 672 90 l 1
 672 45 l 1
 493 45 l 1
0 0 m 1
 0 45 l 1
 134 45 l 1
 134 0 l 1
 0 0 l 1
493 0 m 1
 493 45 l 1
 672 45 l 1
 672 0 l 1
 493 0 l 1
EndSplineSet
EndChar

StartChar: B
Encoding: 66 66 35
Width: 717
Flags: HW
LayerCount: 2
Back
Fore
SplineSet
90 806 m 1
 90 851 l 1
 538 851 l 1
 538 806 l 1
 90 806 l 1
90 762 m 1
 90 806 l 1
 582 806 l 1
 582 762 l 1
 90 762 l 1
90 717 m 1
 90 762 l 1
 627 762 l 1
 627 717 l 1
 90 717 l 1
90 672 m 1
 90 717 l 1
 269 717 l 1
 269 672 l 1
 90 672 l 1
448 672 m 1
 448 717 l 1
 627 717 l 1
 627 672 l 1
 448 672 l 1
90 627 m 1
 90 672 l 1
 269 672 l 1
 269 627 l 1
 90 627 l 1
448 627 m 1
 448 672 l 1
 627 672 l 1
 627 627 l 1
 448 627 l 1
90 582 m 1
 90 627 l 1
 269 627 l 1
 269 582 l 1
 90 582 l 1
448 582 m 1
 448 627 l 1
 627 627 l 1
 627 582 l 1
 448 582 l 1
90 538 m 1
 90 582 l 1
 269 582 l 1
 269 538 l 1
 90 538 l 1
448 538 m 1
 448 582 l 1
 627 582 l 1
 627 538 l 1
 448 538 l 1
90 493 m 1
 90 538 l 1
 269 538 l 1
 269 493 l 1
 90 493 l 1
403 493 m 1
 403 538 l 1
 582 538 l 1
 582 493 l 1
 403 493 l 1
90 448 m 1
 90 493 l 1
 493 493 l 1
 493 448 l 1
 90 448 l 1
90 403 m 1
 90 448 l 1
 538 448 l 1
 538 403 l 1
 90 403 l 1
90 358 m 1
 90 403 l 1
 627 403 l 1
 627 358 l 1
 90 358 l 1
90 314 m 1
 90 358 l 1
 269 358 l 1
 269 314 l 1
 90 314 l 1
403 314 m 1
 403 358 l 1
 627 358 l 1
 627 314 l 1
 403 314 l 1
90 269 m 1
 90 314 l 1
 269 314 l 1
 269 269 l 1
 90 269 l 1
493 269 m 1
 493 314 l 1
 672 314 l 1
 672 269 l 1
 493 269 l 1
90 224 m 1
 90 269 l 1
 269 269 l 1
 269 224 l 1
 90 224 l 1
493 224 m 1
 493 269 l 1
 672 269 l 1
 672 224 l 1
 493 224 l 1
90 179 m 1
 90 224 l 1
 269 224 l 1
 269 179 l 1
 90 179 l 1
493 179 m 1
 493 224 l 1
 672 224 l 1
 672 179 l 1
 493 179 l 1
90 134 m 1
 90 179 l 1
 269 179 l 1
 269 134 l 1
 90 134 l 1
448 134 m 1
 448 179 l 1
 672 179 l 1
 672 134 l 1
 448 134 l 1
90 90 m 1
 90 134 l 1
 627 134 l 1
 627 90 l 1
 90 90 l 1
90 45 m 1
 90 90 l 1
 627 90 l 1
 627 45 l 1
 90 45 l 1
90 0 m 1
 90 45 l 1
 538 45 l 1
 538 0 l 1
 90 0 l 1
EndSplineSet
EndChar

StartChar: C
Encoding: 67 67 36
Width: 717
Flags: HW
LayerCount: 2
Back
Fore
SplineSet
269 806 m 1
 269 851 l 1
 627 851 l 1
 627 806 l 1
 269 806 l 1
179 762 m 1
 179 806 l 1
 672 806 l 1
 672 762 l 1
 179 762 l 1
134 717 m 1
 134 762 l 1
 672 762 l 1
 672 717 l 1
 134 717 l 1
90 672 m 1
 90 717 l 1
 314 717 l 1
 314 672 l 1
 90 672 l 1
582 672 m 1
 582 717 l 1
 672 717 l 1
 672 672 l 1
 582 672 l 1
45 627 m 1
 45 672 l 1
 269 672 l 1
 269 627 l 1
 45 627 l 1
45 582 m 1
 45 627 l 1
 224 627 l 1
 224 582 l 1
 45 582 l 1
0 538 m 1
 0 582 l 1
 224 582 l 1
 224 538 l 1
 0 538 l 1
0 493 m 1
 0 538 l 1
 179 538 l 1
 179 493 l 1
 0 493 l 1
0 448 m 1
 0 493 l 1
 179 493 l 1
 179 448 l 1
 0 448 l 1
0 403 m 1
 0 448 l 1
 179 448 l 1
 179 403 l 1
 0 403 l 1
0 358 m 1
 0 403 l 1
 179 403 l 1
 179 358 l 1
 0 358 l 1
0 314 m 1
 0 358 l 1
 179 358 l 1
 179 314 l 1
 0 314 l 1
0 269 m 1
 0 314 l 1
 224 314 l 1
 224 269 l 1
 0 269 l 1
45 224 m 1
 45 269 l 1
 224 269 l 1
 224 224 l 1
 45 224 l 1
45 179 m 1
 45 224 l 1
 269 224 l 1
 269 179 l 1
 45 179 l 1
90 134 m 1
 90 179 l 1
 314 179 l 1
 314 134 l 1
 90 134 l 1
582 134 m 1
 582 179 l 1
 672 179 l 1
 672 134 l 1
 582 134 l 1
134 90 m 1
 134 134 l 1
 672 134 l 1
 672 90 l 1
 134 90 l 1
179 45 m 1
 179 90 l 1
 672 90 l 1
 672 45 l 1
 179 45 l 1
269 0 m 1
 269 45 l 1
 582 45 l 1
 582 0 l 1
 269 0 l 1
EndSplineSet
EndChar

StartChar: D
Encoding: 68 68 37
Width: 717
Flags: HW
LayerCount: 2
Back
Fore
SplineSet
45 806 m 1
 45 851 l 1
 493 851 l 1
 493 806 l 1
 45 806 l 1
45 762 m 1
 45 806 l 1
 582 806 l 1
 582 762 l 1
 45 762 l 1
45 717 m 1
 45 762 l 1
 627 762 l 1
 627 717 l 1
 45 717 l 1
45 672 m 1
 45 717 l 1
 224 717 l 1
 224 672 l 1
 45 672 l 1
403 672 m 1
 403 717 l 1
 627 717 l 1
 627 672 l 1
 403 672 l 1
45 627 m 1
 45 672 l 1
 224 672 l 1
 224 627 l 1
 45 627 l 1
448 627 m 1
 448 672 l 1
 627 672 l 1
 627 627 l 1
 448 627 l 1
45 582 m 1
 45 627 l 1
 224 627 l 1
 224 582 l 1
 45 582 l 1
448 582 m 1
 448 627 l 1
 672 627 l 1
 672 582 l 1
 448 582 l 1
45 538 m 1
 45 582 l 1
 224 582 l 1
 224 538 l 1
 45 538 l 1
493 538 m 1
 493 582 l 1
 672 582 l 1
 672 538 l 1
 493 538 l 1
45 493 m 1
 45 538 l 1
 224 538 l 1
 224 493 l 1
 45 493 l 1
493 493 m 1
 493 538 l 1
 672 538 l 1
 672 493 l 1
 493 493 l 1
45 448 m 1
 45 493 l 1
 224 493 l 1
 224 448 l 1
 45 448 l 1
493 448 m 1
 493 493 l 1
 672 493 l 1
 672 448 l 1
 493 448 l 1
45 403 m 1
 45 448 l 1
 224 448 l 1
 224 403 l 1
 45 403 l 1
493 403 m 1
 493 448 l 1
 672 448 l 1
 672 403 l 1
 493 403 l 1
45 358 m 1
 45 403 l 1
 224 403 l 1
 224 358 l 1
 45 358 l 1
493 358 m 1
 493 403 l 1
 672 403 l 1
 672 358 l 1
 493 358 l 1
45 314 m 1
 45 358 l 1
 224 358 l 1
 224 314 l 1
 45 314 l 1
493 314 m 1
 493 358 l 1
 672 358 l 1
 672 314 l 1
 493 314 l 1
45 269 m 1
 45 314 l 1
 224 314 l 1
 224 269 l 1
 45 269 l 1
493 269 m 1
 493 314 l 1
 672 314 l 1
 672 269 l 1
 493 269 l 1
45 224 m 1
 45 269 l 1
 224 269 l 1
 224 224 l 1
 45 224 l 1
448 224 m 1
 448 269 l 1
 627 269 l 1
 627 224 l 1
 448 224 l 1
45 179 m 1
 45 224 l 1
 224 224 l 1
 224 179 l 1
 45 179 l 1
448 179 m 1
 448 224 l 1
 627 224 l 1
 627 179 l 1
 448 179 l 1
45 134 m 1
 45 179 l 1
 224 179 l 1
 224 134 l 1
 45 134 l 1
403 134 m 1
 403 179 l 1
 627 179 l 1
 627 134 l 1
 403 134 l 1
45 90 m 1
 45 134 l 1
 582 134 l 1
 582 90 l 1
 45 90 l 1
45 45 m 1
 45 90 l 1
 538 90 l 1
 538 45 l 1
 45 45 l 1
45 0 m 1
 45 45 l 1
 448 45 l 1
 448 0 l 1
 45 0 l 1
EndSplineSet
EndChar

StartChar: E
Encoding: 69 69 38
Width: 717
Flags: HW
LayerCount: 2
Back
Fore
SplineSet
90 806 m 1
 90 851 l 1
 627 851 l 1
 627 806 l 1
 90 806 l 1
90 762 m 1
 90 806 l 1
 627 806 l 1
 627 762 l 1
 90 762 l 1
90 717 m 1
 90 762 l 1
 627 762 l 1
 627 717 l 1
 90 717 l 1
90 672 m 1
 90 717 l 1
 269 717 l 1
 269 672 l 1
 90 672 l 1
90 627 m 1
 90 672 l 1
 269 672 l 1
 269 627 l 1
 90 627 l 1
90 582 m 1
 90 627 l 1
 269 627 l 1
 269 582 l 1
 90 582 l 1
90 538 m 1
 90 582 l 1
 269 582 l 1
 269 538 l 1
 90 538 l 1
90 493 m 1
 90 538 l 1
 269 538 l 1
 269 493 l 1
 90 493 l 1
90 448 m 1
 90 493 l 1
 582 493 l 1
 582 448 l 1
 90 448 l 1
90 403 m 1
 90 448 l 1
 582 448 l 1
 582 403 l 1
 90 403 l 1
90 358 m 1
 90 403 l 1
 582 403 l 1
 582 358 l 1
 90 358 l 1
90 314 m 1
 90 358 l 1
 269 358 l 1
 269 314 l 1
 90 314 l 1
90 269 m 1
 90 314 l 1
 269 314 l 1
 269 269 l 1
 90 269 l 1
90 224 m 1
 90 269 l 1
 269 269 l 1
 269 224 l 1
 90 224 l 1
90 179 m 1
 90 224 l 1
 269 224 l 1
 269 179 l 1
 90 179 l 1
90 134 m 1
 90 179 l 1
 269 179 l 1
 269 134 l 1
 90 134 l 1
90 90 m 1
 90 134 l 1
 672 134 l 1
 672 90 l 1
 90 90 l 1
90 45 m 1
 90 90 l 1
 672 90 l 1
 672 45 l 1
 90 45 l 1
90 0 m 1
 90 45 l 1
 672 45 l 1
 672 0 l 1
 90 0 l 1
EndSplineSet
EndChar

StartChar: F
Encoding: 70 70 39
Width: 717
Flags: HW
LayerCount: 2
Back
Fore
SplineSet
90 806 m 1
 90 851 l 1
 672 851 l 1
 672 806 l 1
 90 806 l 1
90 762 m 1
 90 806 l 1
 672 806 l 1
 672 762 l 1
 90 762 l 1
90 717 m 1
 90 762 l 1
 672 762 l 1
 672 717 l 1
 90 717 l 1
90 672 m 1
 90 717 l 1
 269 717 l 1
 269 672 l 1
 90 672 l 1
90 627 m 1
 90 672 l 1
 269 672 l 1
 269 627 l 1
 90 627 l 1
90 582 m 1
 90 627 l 1
 269 627 l 1
 269 582 l 1
 90 582 l 1
90 538 m 1
 90 582 l 1
 269 582 l 1
 269 538 l 1
 90 538 l 1
90 493 m 1
 90 538 l 1
 269 538 l 1
 269 493 l 1
 90 493 l 1
90 448 m 1
 90 493 l 1
 269 493 l 1
 269 448 l 1
 90 448 l 1
90 403 m 1
 90 448 l 1
 627 448 l 1
 627 403 l 1
 90 403 l 1
90 358 m 1
 90 403 l 1
 582 403 l 1
 582 358 l 1
 90 358 l 1
90 314 m 1
 90 358 l 1
 582 358 l 1
 582 314 l 1
 90 314 l 1
90 269 m 1
 90 314 l 1
 269 314 l 1
 269 269 l 1
 90 269 l 1
90 224 m 1
 90 269 l 1
 269 269 l 1
 269 224 l 1
 90 224 l 1
90 179 m 1
 90 224 l 1
 269 224 l 1
 269 179 l 1
 90 179 l 1
90 134 m 1
 90 179 l 1
 269 179 l 1
 269 134 l 1
 90 134 l 1
90 90 m 1
 90 134 l 1
 269 134 l 1
 269 90 l 1
 90 90 l 1
90 45 m 1
 90 90 l 1
 269 90 l 1
 269 45 l 1
 90 45 l 1
90 0 m 1
 90 45 l 1
 269 45 l 1
 269 0 l 1
 90 0 l 1
EndSplineSet
EndChar

StartChar: G
Encoding: 71 71 40
Width: 717
Flags: HW
LayerCount: 2
Back
Fore
SplineSet
269 806 m 1
 269 851 l 1
 627 851 l 1
 627 806 l 1
 269 806 l 1
179 762 m 1
 179 806 l 1
 672 806 l 1
 672 762 l 1
 179 762 l 1
134 717 m 1
 134 762 l 1
 672 762 l 1
 672 717 l 1
 134 717 l 1
90 672 m 1
 90 717 l 1
 314 717 l 1
 314 672 l 1
 90 672 l 1
582 672 m 1
 582 717 l 1
 672 717 l 1
 672 672 l 1
 582 672 l 1
45 627 m 1
 45 672 l 1
 269 672 l 1
 269 627 l 1
 45 627 l 1
45 582 m 1
 45 627 l 1
 224 627 l 1
 224 582 l 1
 45 582 l 1
0 538 m 1
 0 582 l 1
 224 582 l 1
 224 538 l 1
 0 538 l 1
0 493 m 1
 0 538 l 1
 179 538 l 1
 179 493 l 1
 0 493 l 1
0 448 m 1
 0 493 l 1
 179 493 l 1
 179 448 l 1
 0 448 l 1
0 403 m 1
 0 448 l 1
 179 448 l 1
 179 403 l 1
 0 403 l 1
493 403 m 1
 493 448 l 1
 672 448 l 1
 672 403 l 1
 493 403 l 1
0 358 m 1
 0 403 l 1
 179 403 l 1
 179 358 l 1
 0 358 l 1
493 358 m 1
 493 403 l 1
 672 403 l 1
 672 358 l 1
 493 358 l 1
0 314 m 1
 0 358 l 1
 179 358 l 1
 179 314 l 1
 0 314 l 1
493 314 m 1
 493 358 l 1
 672 358 l 1
 672 314 l 1
 493 314 l 1
0 269 m 1
 0 314 l 1
 179 314 l 1
 179 269 l 1
 0 269 l 1
493 269 m 1
 493 314 l 1
 672 314 l 1
 672 269 l 1
 493 269 l 1
45 224 m 1
 45 269 l 1
 224 269 l 1
 224 224 l 1
 45 224 l 1
493 224 m 1
 493 269 l 1
 672 269 l 1
 672 224 l 1
 493 224 l 1
45 179 m 1
 45 224 l 1
 269 224 l 1
 269 179 l 1
 45 179 l 1
493 179 m 1
 493 224 l 1
 672 224 l 1
 672 179 l 1
 493 179 l 1
90 134 m 1
 90 179 l 1
 314 179 l 1
 314 134 l 1
 90 134 l 1
493 134 m 1
 493 179 l 1
 672 179 l 1
 672 134 l 1
 493 134 l 1
90 90 m 1
 90 134 l 1
 672 134 l 1
 672 90 l 1
 90 90 l 1
179 45 m 1
 179 90 l 1
 672 90 l 1
 672 45 l 1
 179 45 l 1
269 0 m 1
 269 45 l 1
 582 45 l 1
 582 0 l 1
 269 0 l 1
EndSplineSet
EndChar

StartChar: H
Encoding: 72 72 41
Width: 717
Flags: HW
LayerCount: 2
Back
Fore
SplineSet
45 806 m 1
 45 851 l 1
 224 851 l 1
 224 806 l 1
 45 806 l 1
448 806 m 1
 448 851 l 1
 627 851 l 1
 627 806 l 1
 448 806 l 1
45 762 m 1
 45 806 l 1
 224 806 l 1
 224 762 l 1
 45 762 l 1
448 762 m 1
 448 806 l 1
 627 806 l 1
 627 762 l 1
 448 762 l 1
45 717 m 1
 45 762 l 1
 224 762 l 1
 224 717 l 1
 45 717 l 1
448 717 m 1
 448 762 l 1
 627 762 l 1
 627 717 l 1
 448 717 l 1
45 672 m 1
 45 717 l 1
 224 717 l 1
 224 672 l 1
 45 672 l 1
448 672 m 1
 448 717 l 1
 627 717 l 1
 627 672 l 1
 448 672 l 1
45 627 m 1
 45 672 l 1
 224 672 l 1
 224 627 l 1
 45 627 l 1
448 627 m 1
 448 672 l 1
 627 672 l 1
 627 627 l 1
 448 627 l 1
45 582 m 1
 45 627 l 1
 224 627 l 1
 224 582 l 1
 45 582 l 1
448 582 m 1
 448 627 l 1
 627 627 l 1
 627 582 l 1
 448 582 l 1
45 538 m 1
 45 582 l 1
 224 582 l 1
 224 538 l 1
 45 538 l 1
448 538 m 1
 448 582 l 1
 627 582 l 1
 627 538 l 1
 448 538 l 1
45 493 m 1
 45 538 l 1
 224 538 l 1
 224 493 l 1
 45 493 l 1
448 493 m 1
 448 538 l 1
 627 538 l 1
 627 493 l 1
 448 493 l 1
45 448 m 1
 45 493 l 1
 627 493 l 1
 627 448 l 1
 45 448 l 1
45 403 m 1
 45 448 l 1
 627 448 l 1
 627 403 l 1
 45 403 l 1
45 358 m 1
 45 403 l 1
 627 403 l 1
 627 358 l 1
 45 358 l 1
45 314 m 1
 45 358 l 1
 224 358 l 1
 224 314 l 1
 45 314 l 1
448 314 m 1
 448 358 l 1
 627 358 l 1
 627 314 l 1
 448 314 l 1
45 269 m 1
 45 314 l 1
 224 314 l 1
 224 269 l 1
 45 269 l 1
448 269 m 1
 448 314 l 1
 627 314 l 1
 627 269 l 1
 448 269 l 1
45 224 m 1
 45 269 l 1
 224 269 l 1
 224 224 l 1
 45 224 l 1
448 224 m 1
 448 269 l 1
 627 269 l 1
 627 224 l 1
 448 224 l 1
45 179 m 1
 45 224 l 1
 224 224 l 1
 224 179 l 1
 45 179 l 1
448 179 m 1
 448 224 l 1
 627 224 l 1
 627 179 l 1
 448 179 l 1
45 134 m 1
 45 179 l 1
 224 179 l 1
 224 134 l 1
 45 134 l 1
448 134 m 1
 448 179 l 1
 627 179 l 1
 627 134 l 1
 448 134 l 1
45 90 m 1
 45 134 l 1
 224 134 l 1
 224 90 l 1
 45 90 l 1
448 90 m 1
 448 134 l 1
 627 134 l 1
 627 90 l 1
 448 90 l 1
45 45 m 1
 45 90 l 1
 224 90 l 1
 224 45 l 1
 45 45 l 1
448 45 m 1
 448 90 l 1
 627 90 l 1
 627 45 l 1
 448 45 l 1
45 0 m 1
 45 45 l 1
 224 45 l 1
 224 0 l 1
 45 0 l 1
448 0 m 1
 448 45 l 1
 627 45 l 1
 627 0 l 1
 448 0 l 1
EndSplineSet
EndChar

StartChar: I
Encoding: 73 73 42
Width: 717
Flags: HW
LayerCount: 2
Back
Fore
SplineSet
90 806 m 1
 90 851 l 1
 627 851 l 1
 627 806 l 1
 90 806 l 1
90 762 m 1
 90 806 l 1
 627 806 l 1
 627 762 l 1
 90 762 l 1
90 717 m 1
 90 762 l 1
 627 762 l 1
 627 717 l 1
 90 717 l 1
269 672 m 1
 269 717 l 1
 448 717 l 1
 448 672 l 1
 269 672 l 1
269 627 m 1
 269 672 l 1
 448 672 l 1
 448 627 l 1
 269 627 l 1
269 582 m 1
 269 627 l 1
 448 627 l 1
 448 582 l 1
 269 582 l 1
269 538 m 1
 269 582 l 1
 448 582 l 1
 448 538 l 1
 269 538 l 1
269 493 m 1
 269 538 l 1
 448 538 l 1
 448 493 l 1
 269 493 l 1
269 448 m 1
 269 493 l 1
 448 493 l 1
 448 448 l 1
 269 448 l 1
269 403 m 1
 269 448 l 1
 448 448 l 1
 448 403 l 1
 269 403 l 1
269 358 m 1
 269 403 l 1
 448 403 l 1
 448 358 l 1
 269 358 l 1
269 314 m 1
 269 358 l 1
 448 358 l 1
 448 314 l 1
 269 314 l 1
269 269 m 1
 269 314 l 1
 448 314 l 1
 448 269 l 1
 269 269 l 1
269 224 m 1
 269 269 l 1
 448 269 l 1
 448 224 l 1
 269 224 l 1
269 179 m 1
 269 224 l 1
 448 224 l 1
 448 179 l 1
 269 179 l 1
269 134 m 1
 269 179 l 1
 448 179 l 1
 448 134 l 1
 269 134 l 1
90 90 m 1
 90 134 l 1
 627 134 l 1
 627 90 l 1
 90 90 l 1
90 45 m 1
 90 90 l 1
 627 90 l 1
 627 45 l 1
 90 45 l 1
90 0 m 1
 90 45 l 1
 627 45 l 1
 627 0 l 1
 90 0 l 1
EndSplineSet
EndChar

StartChar: J
Encoding: 74 74 43
Width: 717
Flags: HW
LayerCount: 2
Back
Fore
SplineSet
134 806 m 1
 134 851 l 1
 627 851 l 1
 627 806 l 1
 134 806 l 1
134 762 m 1
 134 806 l 1
 627 806 l 1
 627 762 l 1
 134 762 l 1
134 717 m 1
 134 762 l 1
 627 762 l 1
 627 717 l 1
 134 717 l 1
448 672 m 1
 448 717 l 1
 627 717 l 1
 627 672 l 1
 448 672 l 1
448 627 m 1
 448 672 l 1
 627 672 l 1
 627 627 l 1
 448 627 l 1
448 582 m 1
 448 627 l 1
 627 627 l 1
 627 582 l 1
 448 582 l 1
448 538 m 1
 448 582 l 1
 627 582 l 1
 627 538 l 1
 448 538 l 1
448 493 m 1
 448 538 l 1
 627 538 l 1
 627 493 l 1
 448 493 l 1
448 448 m 1
 448 493 l 1
 627 493 l 1
 627 448 l 1
 448 448 l 1
448 403 m 1
 448 448 l 1
 627 448 l 1
 627 403 l 1
 448 403 l 1
448 358 m 1
 448 403 l 1
 627 403 l 1
 627 358 l 1
 448 358 l 1
448 314 m 1
 448 358 l 1
 627 358 l 1
 627 314 l 1
 448 314 l 1
448 269 m 1
 448 314 l 1
 627 314 l 1
 627 269 l 1
 448 269 l 1
448 224 m 1
 448 269 l 1
 627 269 l 1
 627 224 l 1
 448 224 l 1
448 179 m 1
 448 224 l 1
 627 224 l 1
 627 179 l 1
 448 179 l 1
90 134 m 1
 90 179 l 1
 134 179 l 1
 134 134 l 1
 90 134 l 1
403 134 m 1
 403 179 l 1
 582 179 l 1
 582 134 l 1
 403 134 l 1
90 90 m 1
 90 134 l 1
 582 134 l 1
 582 90 l 1
 90 90 l 1
90 45 m 1
 90 90 l 1
 538 90 l 1
 538 45 l 1
 90 45 l 1
90 0 m 1
 90 45 l 1
 448 45 l 1
 448 0 l 1
 90 0 l 1
EndSplineSet
EndChar

StartChar: K
Encoding: 75 75 44
Width: 717
Flags: HW
LayerCount: 2
Back
Fore
SplineSet
90 806 m 1
 90 851 l 1
 269 851 l 1
 269 806 l 1
 90 806 l 1
538 806 m 1
 538 851 l 1
 717 851 l 1
 717 806 l 1
 538 806 l 1
90 762 m 1
 90 806 l 1
 269 806 l 1
 269 762 l 1
 90 762 l 1
493 762 m 1
 493 806 l 1
 672 806 l 1
 672 762 l 1
 493 762 l 1
90 717 m 1
 90 762 l 1
 269 762 l 1
 269 717 l 1
 90 717 l 1
448 717 m 1
 448 762 l 1
 627 762 l 1
 627 717 l 1
 448 717 l 1
90 672 m 1
 90 717 l 1
 269 717 l 1
 269 672 l 1
 90 672 l 1
448 672 m 1
 448 717 l 1
 582 717 l 1
 582 672 l 1
 448 672 l 1
90 627 m 1
 90 672 l 1
 269 672 l 1
 269 627 l 1
 90 627 l 1
403 627 m 1
 403 672 l 1
 582 672 l 1
 582 627 l 1
 403 627 l 1
90 582 m 1
 90 627 l 1
 269 627 l 1
 269 582 l 1
 90 582 l 1
358 582 m 1
 358 627 l 1
 538 627 l 1
 538 582 l 1
 358 582 l 1
90 538 m 1
 90 582 l 1
 269 582 l 1
 269 538 l 1
 90 538 l 1
314 538 m 1
 314 582 l 1
 493 582 l 1
 493 538 l 1
 314 538 l 1
90 493 m 1
 90 538 l 1
 269 538 l 1
 269 493 l 1
 90 493 l 1
314 493 m 1
 314 538 l 1
 448 538 l 1
 448 493 l 1
 314 493 l 1
90 448 m 1
 90 493 l 1
 448 493 l 1
 448 448 l 1
 90 448 l 1
90 403 m 1
 90 448 l 1
 448 448 l 1
 448 403 l 1
 90 403 l 1
90 358 m 1
 90 403 l 1
 493 403 l 1
 493 358 l 1
 90 358 l 1
90 314 m 1
 90 358 l 1
 269 358 l 1
 269 314 l 1
 90 314 l 1
314 314 m 1
 314 358 l 1
 538 358 l 1
 538 314 l 1
 314 314 l 1
90 269 m 1
 90 314 l 1
 269 314 l 1
 269 269 l 1
 90 269 l 1
314 269 m 1
 314 314 l 1
 538 314 l 1
 538 269 l 1
 314 269 l 1
90 224 m 1
 90 269 l 1
 269 269 l 1
 269 224 l 1
 90 224 l 1
358 224 m 1
 358 269 l 1
 582 269 l 1
 582 224 l 1
 358 224 l 1
90 179 m 1
 90 224 l 1
 269 224 l 1
 269 179 l 1
 90 179 l 1
403 179 m 1
 403 224 l 1
 582 224 l 1
 582 179 l 1
 403 179 l 1
90 134 m 1
 90 179 l 1
 269 179 l 1
 269 134 l 1
 90 134 l 1
403 134 m 1
 403 179 l 1
 627 179 l 1
 627 134 l 1
 403 134 l 1
90 90 m 1
 90 134 l 1
 269 134 l 1
 269 90 l 1
 90 90 l 1
448 90 m 1
 448 134 l 1
 672 134 l 1
 672 90 l 1
 448 90 l 1
90 45 m 1
 90 90 l 1
 269 90 l 1
 269 45 l 1
 90 45 l 1
493 45 m 1
 493 90 l 1
 672 90 l 1
 672 45 l 1
 493 45 l 1
90 0 m 1
 90 45 l 1
 269 45 l 1
 269 0 l 1
 90 0 l 1
493 0 m 1
 493 45 l 1
 717 45 l 1
 717 0 l 1
 493 0 l 1
EndSplineSet
EndChar

StartChar: L
Encoding: 76 76 45
Width: 717
Flags: HW
LayerCount: 2
Back
Fore
SplineSet
90 806 m 1
 90 851 l 1
 269 851 l 1
 269 806 l 1
 90 806 l 1
90 762 m 1
 90 806 l 1
 269 806 l 1
 269 762 l 1
 90 762 l 1
90 717 m 1
 90 762 l 1
 269 762 l 1
 269 717 l 1
 90 717 l 1
90 672 m 1
 90 717 l 1
 269 717 l 1
 269 672 l 1
 90 672 l 1
90 627 m 1
 90 672 l 1
 269 672 l 1
 269 627 l 1
 90 627 l 1
90 582 m 1
 90 627 l 1
 269 627 l 1
 269 582 l 1
 90 582 l 1
90 538 m 1
 90 582 l 1
 269 582 l 1
 269 538 l 1
 90 538 l 1
90 493 m 1
 90 538 l 1
 269 538 l 1
 269 493 l 1
 90 493 l 1
90 448 m 1
 90 493 l 1
 269 493 l 1
 269 448 l 1
 90 448 l 1
90 403 m 1
 90 448 l 1
 269 448 l 1
 269 403 l 1
 90 403 l 1
90 358 m 1
 90 403 l 1
 269 403 l 1
 269 358 l 1
 90 358 l 1
90 314 m 1
 90 358 l 1
 269 358 l 1
 269 314 l 1
 90 314 l 1
90 269 m 1
 90 314 l 1
 269 314 l 1
 269 269 l 1
 90 269 l 1
90 224 m 1
 90 269 l 1
 269 269 l 1
 269 224 l 1
 90 224 l 1
90 179 m 1
 90 224 l 1
 269 224 l 1
 269 179 l 1
 90 179 l 1
90 134 m 1
 90 179 l 1
 269 179 l 1
 269 134 l 1
 90 134 l 1
90 90 m 1
 90 134 l 1
 672 134 l 1
 672 90 l 1
 90 90 l 1
90 45 m 1
 90 90 l 1
 672 90 l 1
 672 45 l 1
 90 45 l 1
90 0 m 1
 90 45 l 1
 672 45 l 1
 672 0 l 1
 90 0 l 1
EndSplineSet
EndChar

StartChar: M
Encoding: 77 77 46
Width: 717
Flags: HW
LayerCount: 2
Back
Fore
SplineSet
45 806 m 1
 45 851 l 1
 269 851 l 1
 269 806 l 1
 45 806 l 1
448 806 m 1
 448 851 l 1
 672 851 l 1
 672 806 l 1
 448 806 l 1
45 762 m 1
 45 806 l 1
 269 806 l 1
 269 762 l 1
 45 762 l 1
448 762 m 1
 448 806 l 1
 672 806 l 1
 672 762 l 1
 448 762 l 1
45 717 m 1
 45 762 l 1
 269 762 l 1
 269 717 l 1
 45 717 l 1
403 717 m 1
 403 762 l 1
 672 762 l 1
 672 717 l 1
 403 717 l 1
45 672 m 1
 45 717 l 1
 269 717 l 1
 269 672 l 1
 45 672 l 1
403 672 m 1
 403 717 l 1
 672 717 l 1
 672 672 l 1
 403 672 l 1
45 627 m 1
 45 672 l 1
 314 672 l 1
 314 627 l 1
 45 627 l 1
403 627 m 1
 403 672 l 1
 672 672 l 1
 672 627 l 1
 403 627 l 1
45 582 m 1
 45 627 l 1
 314 627 l 1
 314 582 l 1
 45 582 l 1
403 582 m 1
 403 627 l 1
 672 627 l 1
 672 582 l 1
 403 582 l 1
45 538 m 1
 45 582 l 1
 314 582 l 1
 314 538 l 1
 45 538 l 1
403 538 m 1
 403 582 l 1
 672 582 l 1
 672 538 l 1
 403 538 l 1
45 493 m 1
 45 538 l 1
 314 538 l 1
 314 493 l 1
 45 493 l 1
358 493 m 1
 358 538 l 1
 672 538 l 1
 672 493 l 1
 358 493 l 1
45 448 m 1
 45 493 l 1
 314 493 l 1
 314 448 l 1
 45 448 l 1
358 448 m 1
 358 493 l 1
 672 493 l 1
 672 448 l 1
 358 448 l 1
45 403 m 1
 45 448 l 1
 179 448 l 1
 179 403 l 1
 45 403 l 1
224 403 m 1
 224 448 l 1
 672 448 l 1
 672 403 l 1
 224 403 l 1
45 358 m 1
 45 403 l 1
 179 403 l 1
 179 358 l 1
 45 358 l 1
224 358 m 1
 224 403 l 1
 672 403 l 1
 672 358 l 1
 224 358 l 1
45 314 m 1
 45 358 l 1
 179 358 l 1
 179 314 l 1
 45 314 l 1
224 314 m 1
 224 358 l 1
 448 358 l 1
 448 314 l 1
 224 314 l 1
493 314 m 1
 493 358 l 1
 672 358 l 1
 672 314 l 1
 493 314 l 1
45 269 m 1
 45 314 l 1
 179 314 l 1
 179 269 l 1
 45 269 l 1
224 269 m 1
 224 314 l 1
 448 314 l 1
 448 269 l 1
 224 269 l 1
493 269 m 1
 493 314 l 1
 672 314 l 1
 672 269 l 1
 493 269 l 1
45 224 m 1
 45 269 l 1
 179 269 l 1
 179 224 l 1
 45 224 l 1
224 224 m 1
 224 269 l 1
 448 269 l 1
 448 224 l 1
 224 224 l 1
493 224 m 1
 493 269 l 1
 672 269 l 1
 672 224 l 1
 493 224 l 1
45 179 m 1
 45 224 l 1
 179 224 l 1
 179 179 l 1
 45 179 l 1
224 179 m 1
 224 224 l 1
 448 224 l 1
 448 179 l 1
 224 179 l 1
493 179 m 1
 493 224 l 1
 672 224 l 1
 672 179 l 1
 493 179 l 1
45 134 m 1
 45 179 l 1
 179 179 l 1
 179 134 l 1
 45 134 l 1
269 134 m 1
 269 179 l 1
 448 179 l 1
 448 134 l 1
 269 134 l 1
493 134 m 1
 493 179 l 1
 672 179 l 1
 672 134 l 1
 493 134 l 1
45 90 m 1
 45 134 l 1
 179 134 l 1
 179 90 l 1
 45 90 l 1
269 90 m 1
 269 134 l 1
 448 134 l 1
 448 90 l 1
 269 90 l 1
493 90 m 1
 493 134 l 1
 672 134 l 1
 672 90 l 1
 493 90 l 1
45 45 m 1
 45 90 l 1
 179 90 l 1
 179 45 l 1
 45 45 l 1
269 45 m 1
 269 90 l 1
 403 90 l 1
 403 45 l 1
 269 45 l 1
493 45 m 1
 493 90 l 1
 672 90 l 1
 672 45 l 1
 493 45 l 1
45 0 m 1
 45 45 l 1
 179 45 l 1
 179 0 l 1
 45 0 l 1
493 0 m 1
 493 45 l 1
 672 45 l 1
 672 0 l 1
 493 0 l 1
EndSplineSet
EndChar

StartChar: N
Encoding: 78 78 47
Width: 717
Flags: HW
LayerCount: 2
Back
Fore
SplineSet
45 806 m 1
 45 851 l 1
 224 851 l 1
 224 806 l 1
 45 806 l 1
493 806 m 1
 493 851 l 1
 627 851 l 1
 627 806 l 1
 493 806 l 1
45 762 m 1
 45 806 l 1
 269 806 l 1
 269 762 l 1
 45 762 l 1
493 762 m 1
 493 806 l 1
 627 806 l 1
 627 762 l 1
 493 762 l 1
45 717 m 1
 45 762 l 1
 269 762 l 1
 269 717 l 1
 45 717 l 1
493 717 m 1
 493 762 l 1
 627 762 l 1
 627 717 l 1
 493 717 l 1
45 672 m 1
 45 717 l 1
 314 717 l 1
 314 672 l 1
 45 672 l 1
493 672 m 1
 493 717 l 1
 627 717 l 1
 627 672 l 1
 493 672 l 1
45 627 m 1
 45 672 l 1
 314 672 l 1
 314 627 l 1
 45 627 l 1
493 627 m 1
 493 672 l 1
 627 672 l 1
 627 627 l 1
 493 627 l 1
45 582 m 1
 45 627 l 1
 358 627 l 1
 358 582 l 1
 45 582 l 1
493 582 m 1
 493 627 l 1
 627 627 l 1
 627 582 l 1
 493 582 l 1
45 538 m 1
 45 582 l 1
 358 582 l 1
 358 538 l 1
 45 538 l 1
493 538 m 1
 493 582 l 1
 627 582 l 1
 627 538 l 1
 493 538 l 1
45 493 m 1
 45 538 l 1
 403 538 l 1
 403 493 l 1
 45 493 l 1
493 493 m 1
 493 538 l 1
 627 538 l 1
 627 493 l 1
 493 493 l 1
45 448 m 1
 45 493 l 1
 179 493 l 1
 179 448 l 1
 45 448 l 1
224 448 m 1
 224 493 l 1
 403 493 l 1
 403 448 l 1
 224 448 l 1
493 448 m 1
 493 493 l 1
 627 493 l 1
 627 448 l 1
 493 448 l 1
45 403 m 1
 45 448 l 1
 179 448 l 1
 179 403 l 1
 45 403 l 1
224 403 m 1
 224 448 l 1
 448 448 l 1
 448 403 l 1
 224 403 l 1
493 403 m 1
 493 448 l 1
 627 448 l 1
 627 403 l 1
 493 403 l 1
45 358 m 1
 45 403 l 1
 179 403 l 1
 179 358 l 1
 45 358 l 1
269 358 m 1
 269 403 l 1
 448 403 l 1
 448 358 l 1
 269 358 l 1
493 358 m 1
 493 403 l 1
 627 403 l 1
 627 358 l 1
 493 358 l 1
45 314 m 1
 45 358 l 1
 179 358 l 1
 179 314 l 1
 45 314 l 1
269 314 m 1
 269 358 l 1
 627 358 l 1
 627 314 l 1
 269 314 l 1
45 269 m 1
 45 314 l 1
 179 314 l 1
 179 269 l 1
 45 269 l 1
314 269 m 1
 314 314 l 1
 627 314 l 1
 627 269 l 1
 314 269 l 1
45 224 m 1
 45 269 l 1
 179 269 l 1
 179 224 l 1
 45 224 l 1
314 224 m 1
 314 269 l 1
 627 269 l 1
 627 224 l 1
 314 224 l 1
45 179 m 1
 45 224 l 1
 179 224 l 1
 179 179 l 1
 45 179 l 1
358 179 m 1
 358 224 l 1
 627 224 l 1
 627 179 l 1
 358 179 l 1
45 134 m 1
 45 179 l 1
 179 179 l 1
 179 134 l 1
 45 134 l 1
358 134 m 1
 358 179 l 1
 627 179 l 1
 627 134 l 1
 358 134 l 1
45 90 m 1
 45 134 l 1
 179 134 l 1
 179 90 l 1
 45 90 l 1
403 90 m 1
 403 134 l 1
 627 134 l 1
 627 90 l 1
 403 90 l 1
45 45 m 1
 45 90 l 1
 179 90 l 1
 179 45 l 1
 45 45 l 1
403 45 m 1
 403 90 l 1
 627 90 l 1
 627 45 l 1
 403 45 l 1
45 0 m 1
 45 45 l 1
 179 45 l 1
 179 0 l 1
 45 0 l 1
448 0 m 1
 448 45 l 1
 627 45 l 1
 627 0 l 1
 448 0 l 1
EndSplineSet
EndChar

StartChar: O
Encoding: 79 79 48
Width: 717
Flags: HW
LayerCount: 2
Back
Fore
SplineSet
224 806 m 1
 224 851 l 1
 448 851 l 1
 448 806 l 1
 224 806 l 1
134 762 m 1
 134 806 l 1
 538 806 l 1
 538 762 l 1
 134 762 l 1
90 717 m 1
 90 762 l 1
 582 762 l 1
 582 717 l 1
 90 717 l 1
45 672 m 1
 45 717 l 1
 269 717 l 1
 269 672 l 1
 45 672 l 1
403 672 m 1
 403 717 l 1
 627 717 l 1
 627 672 l 1
 403 672 l 1
45 627 m 1
 45 672 l 1
 224 672 l 1
 224 627 l 1
 45 627 l 1
448 627 m 1
 448 672 l 1
 627 672 l 1
 627 627 l 1
 448 627 l 1
45 582 m 1
 45 627 l 1
 179 627 l 1
 179 582 l 1
 45 582 l 1
493 582 m 1
 493 627 l 1
 627 627 l 1
 627 582 l 1
 493 582 l 1
0 538 m 1
 0 582 l 1
 179 582 l 1
 179 538 l 1
 0 538 l 1
493 538 m 1
 493 582 l 1
 672 582 l 1
 672 538 l 1
 493 538 l 1
0 493 m 1
 0 538 l 1
 179 538 l 1
 179 493 l 1
 0 493 l 1
493 493 m 1
 493 538 l 1
 672 538 l 1
 672 493 l 1
 493 493 l 1
0 448 m 1
 0 493 l 1
 179 493 l 1
 179 448 l 1
 0 448 l 1
493 448 m 1
 493 493 l 1
 672 493 l 1
 672 448 l 1
 493 448 l 1
0 403 m 1
 0 448 l 1
 179 448 l 1
 179 403 l 1
 0 403 l 1
493 403 m 1
 493 448 l 1
 672 448 l 1
 672 403 l 1
 493 403 l 1
0 358 m 1
 0 403 l 1
 179 403 l 1
 179 358 l 1
 0 358 l 1
493 358 m 1
 493 403 l 1
 672 403 l 1
 672 358 l 1
 493 358 l 1
0 314 m 1
 0 358 l 1
 179 358 l 1
 179 314 l 1
 0 314 l 1
493 314 m 1
 493 358 l 1
 672 358 l 1
 672 314 l 1
 493 314 l 1
0 269 m 1
 0 314 l 1
 179 314 l 1
 179 269 l 1
 0 269 l 1
493 269 m 1
 493 314 l 1
 672 314 l 1
 672 269 l 1
 493 269 l 1
45 224 m 1
 45 269 l 1
 179 269 l 1
 179 224 l 1
 45 224 l 1
493 224 m 1
 493 269 l 1
 627 269 l 1
 627 224 l 1
 493 224 l 1
45 179 m 1
 45 224 l 1
 224 224 l 1
 224 179 l 1
 45 179 l 1
448 179 m 1
 448 224 l 1
 627 224 l 1
 627 179 l 1
 448 179 l 1
45 134 m 1
 45 179 l 1
 269 179 l 1
 269 134 l 1
 45 134 l 1
403 134 m 1
 403 179 l 1
 627 179 l 1
 627 134 l 1
 403 134 l 1
90 90 m 1
 90 134 l 1
 582 134 l 1
 582 90 l 1
 90 90 l 1
134 45 m 1
 134 90 l 1
 538 90 l 1
 538 45 l 1
 134 45 l 1
224 0 m 1
 224 45 l 1
 448 45 l 1
 448 0 l 1
 224 0 l 1
EndSplineSet
EndChar

StartChar: P
Encoding: 80 80 49
Width: 717
Flags: HW
LayerCount: 2
Back
Fore
SplineSet
90 806 m 1
 90 851 l 1
 538 851 l 1
 538 806 l 1
 90 806 l 1
90 762 m 1
 90 806 l 1
 627 806 l 1
 627 762 l 1
 90 762 l 1
90 717 m 1
 90 762 l 1
 627 762 l 1
 627 717 l 1
 90 717 l 1
90 672 m 1
 90 717 l 1
 269 717 l 1
 269 672 l 1
 90 672 l 1
448 672 m 1
 448 717 l 1
 672 717 l 1
 672 672 l 1
 448 672 l 1
90 627 m 1
 90 672 l 1
 269 672 l 1
 269 627 l 1
 90 627 l 1
493 627 m 1
 493 672 l 1
 672 672 l 1
 672 627 l 1
 493 627 l 1
90 582 m 1
 90 627 l 1
 269 627 l 1
 269 582 l 1
 90 582 l 1
493 582 m 1
 493 627 l 1
 672 627 l 1
 672 582 l 1
 493 582 l 1
90 538 m 1
 90 582 l 1
 269 582 l 1
 269 538 l 1
 90 538 l 1
493 538 m 1
 493 582 l 1
 672 582 l 1
 672 538 l 1
 493 538 l 1
90 493 m 1
 90 538 l 1
 269 538 l 1
 269 493 l 1
 90 493 l 1
493 493 m 1
 493 538 l 1
 672 538 l 1
 672 493 l 1
 493 493 l 1
90 448 m 1
 90 493 l 1
 269 493 l 1
 269 448 l 1
 90 448 l 1
448 448 m 1
 448 493 l 1
 627 493 l 1
 627 448 l 1
 448 448 l 1
90 403 m 1
 90 448 l 1
 627 448 l 1
 627 403 l 1
 90 403 l 1
90 358 m 1
 90 403 l 1
 582 403 l 1
 582 358 l 1
 90 358 l 1
90 314 m 1
 90 358 l 1
 493 358 l 1
 493 314 l 1
 90 314 l 1
90 269 m 1
 90 314 l 1
 269 314 l 1
 269 269 l 1
 90 269 l 1
90 224 m 1
 90 269 l 1
 269 269 l 1
 269 224 l 1
 90 224 l 1
90 179 m 1
 90 224 l 1
 269 224 l 1
 269 179 l 1
 90 179 l 1
90 134 m 1
 90 179 l 1
 269 179 l 1
 269 134 l 1
 90 134 l 1
90 90 m 1
 90 134 l 1
 269 134 l 1
 269 90 l 1
 90 90 l 1
90 45 m 1
 90 90 l 1
 269 90 l 1
 269 45 l 1
 90 45 l 1
90 0 m 1
 90 45 l 1
 269 45 l 1
 269 0 l 1
 90 0 l 1
EndSplineSet
EndChar

StartChar: Q
Encoding: 81 81 50
Width: 717
Flags: HW
LayerCount: 2
Back
Fore
SplineSet
224 806 m 1
 224 851 l 1
 448 851 l 1
 448 806 l 1
 224 806 l 1
134 762 m 1
 134 806 l 1
 538 806 l 1
 538 762 l 1
 134 762 l 1
90 717 m 1
 90 762 l 1
 582 762 l 1
 582 717 l 1
 90 717 l 1
45 672 m 1
 45 717 l 1
 269 717 l 1
 269 672 l 1
 45 672 l 1
403 672 m 1
 403 717 l 1
 627 717 l 1
 627 672 l 1
 403 672 l 1
45 627 m 1
 45 672 l 1
 224 672 l 1
 224 627 l 1
 45 627 l 1
448 627 m 1
 448 672 l 1
 627 672 l 1
 627 627 l 1
 448 627 l 1
45 582 m 1
 45 627 l 1
 179 627 l 1
 179 582 l 1
 45 582 l 1
493 582 m 1
 493 627 l 1
 627 627 l 1
 627 582 l 1
 493 582 l 1
0 538 m 1
 0 582 l 1
 179 582 l 1
 179 538 l 1
 0 538 l 1
493 538 m 1
 493 582 l 1
 672 582 l 1
 672 538 l 1
 493 538 l 1
0 493 m 1
 0 538 l 1
 179 538 l 1
 179 493 l 1
 0 493 l 1
493 493 m 1
 493 538 l 1
 672 538 l 1
 672 493 l 1
 493 493 l 1
0 448 m 1
 0 493 l 1
 179 493 l 1
 179 448 l 1
 0 448 l 1
493 448 m 1
 493 493 l 1
 672 493 l 1
 672 448 l 1
 493 448 l 1
0 403 m 1
 0 448 l 1
 179 448 l 1
 179 403 l 1
 0 403 l 1
493 403 m 1
 493 448 l 1
 672 448 l 1
 672 403 l 1
 493 403 l 1
0 358 m 1
 0 403 l 1
 179 403 l 1
 179 358 l 1
 0 358 l 1
493 358 m 1
 493 403 l 1
 672 403 l 1
 672 358 l 1
 493 358 l 1
0 314 m 1
 0 358 l 1
 179 358 l 1
 179 314 l 1
 0 314 l 1
493 314 m 1
 493 358 l 1
 672 358 l 1
 672 314 l 1
 493 314 l 1
0 269 m 1
 0 314 l 1
 179 314 l 1
 179 269 l 1
 0 269 l 1
493 269 m 1
 493 314 l 1
 672 314 l 1
 672 269 l 1
 493 269 l 1
45 224 m 1
 45 269 l 1
 179 269 l 1
 179 224 l 1
 45 224 l 1
493 224 m 1
 493 269 l 1
 672 269 l 1
 672 224 l 1
 493 224 l 1
45 179 m 1
 45 224 l 1
 224 224 l 1
 224 179 l 1
 45 179 l 1
448 179 m 1
 448 224 l 1
 627 224 l 1
 627 179 l 1
 448 179 l 1
45 134 m 1
 45 179 l 1
 269 179 l 1
 269 134 l 1
 45 134 l 1
403 134 m 1
 403 179 l 1
 627 179 l 1
 627 134 l 1
 403 134 l 1
90 90 m 1
 90 134 l 1
 582 134 l 1
 582 90 l 1
 90 90 l 1
134 45 m 1
 134 90 l 1
 538 90 l 1
 538 45 l 1
 134 45 l 1
224 0 m 1
 224 45 l 1
 493 45 l 1
 493 0 l 1
 224 0 l 1
358 -45 m 1
 358 0 l 1
 717 0 l 1
 717 -45 l 1
 358 -45 l 1
448 -90 m 1
 448 -45 l 1
 672 -45 l 1
 672 -90 l 1
 448 -90 l 1
493 -134 m 1
 493 -90 l 1
 672 -90 l 1
 672 -134 l 1
 493 -134 l 1
538 -179 m 1
 538 -134 l 1
 627 -134 l 1
 627 -179 l 1
 538 -179 l 1
EndSplineSet
EndChar

StartChar: R
Encoding: 82 82 51
Width: 717
Flags: HW
LayerCount: 2
Back
Fore
SplineSet
90 806 m 1
 90 851 l 1
 493 851 l 1
 493 806 l 1
 90 806 l 1
90 762 m 1
 90 806 l 1
 582 806 l 1
 582 762 l 1
 90 762 l 1
90 717 m 1
 90 762 l 1
 627 762 l 1
 627 717 l 1
 90 717 l 1
90 672 m 1
 90 717 l 1
 269 717 l 1
 269 672 l 1
 90 672 l 1
403 672 m 1
 403 717 l 1
 627 717 l 1
 627 672 l 1
 403 672 l 1
90 627 m 1
 90 672 l 1
 269 672 l 1
 269 627 l 1
 90 627 l 1
448 627 m 1
 448 672 l 1
 627 672 l 1
 627 627 l 1
 448 627 l 1
90 582 m 1
 90 627 l 1
 269 627 l 1
 269 582 l 1
 90 582 l 1
448 582 m 1
 448 627 l 1
 627 627 l 1
 627 582 l 1
 448 582 l 1
90 538 m 1
 90 582 l 1
 269 582 l 1
 269 538 l 1
 90 538 l 1
448 538 m 1
 448 582 l 1
 627 582 l 1
 627 538 l 1
 448 538 l 1
90 493 m 1
 90 538 l 1
 269 538 l 1
 269 493 l 1
 90 493 l 1
403 493 m 1
 403 538 l 1
 582 538 l 1
 582 493 l 1
 403 493 l 1
90 448 m 1
 90 493 l 1
 269 493 l 1
 269 448 l 1
 90 448 l 1
358 448 m 1
 358 493 l 1
 582 493 l 1
 582 448 l 1
 358 448 l 1
90 403 m 1
 90 448 l 1
 538 448 l 1
 538 403 l 1
 90 403 l 1
90 358 m 1
 90 403 l 1
 493 403 l 1
 493 358 l 1
 90 358 l 1
90 314 m 1
 90 358 l 1
 493 358 l 1
 493 314 l 1
 90 314 l 1
90 269 m 1
 90 314 l 1
 269 314 l 1
 269 269 l 1
 90 269 l 1
314 269 m 1
 314 314 l 1
 538 314 l 1
 538 269 l 1
 314 269 l 1
90 224 m 1
 90 269 l 1
 269 269 l 1
 269 224 l 1
 90 224 l 1
358 224 m 1
 358 269 l 1
 538 269 l 1
 538 224 l 1
 358 224 l 1
90 179 m 1
 90 224 l 1
 269 224 l 1
 269 179 l 1
 90 179 l 1
358 179 m 1
 358 224 l 1
 582 224 l 1
 582 179 l 1
 358 179 l 1
90 134 m 1
 90 179 l 1
 269 179 l 1
 269 134 l 1
 90 134 l 1
403 134 m 1
 403 179 l 1
 582 179 l 1
 582 134 l 1
 403 134 l 1
90 90 m 1
 90 134 l 1
 269 134 l 1
 269 90 l 1
 90 90 l 1
403 90 m 1
 403 134 l 1
 627 134 l 1
 627 90 l 1
 403 90 l 1
90 45 m 1
 90 90 l 1
 269 90 l 1
 269 45 l 1
 90 45 l 1
448 45 m 1
 448 90 l 1
 627 90 l 1
 627 45 l 1
 448 45 l 1
90 0 m 1
 90 45 l 1
 269 45 l 1
 269 0 l 1
 90 0 l 1
493 0 m 1
 493 45 l 1
 672 45 l 1
 672 0 l 1
 493 0 l 1
EndSplineSet
EndChar

StartChar: S
Encoding: 83 83 52
Width: 717
Flags: HW
LayerCount: 2
Back
Fore
SplineSet
179 806 m 1
 179 851 l 1
 538 851 l 1
 538 806 l 1
 179 806 l 1
90 762 m 1
 90 806 l 1
 582 806 l 1
 582 762 l 1
 90 762 l 1
90 717 m 1
 90 762 l 1
 582 762 l 1
 582 717 l 1
 90 717 l 1
45 672 m 1
 45 717 l 1
 269 717 l 1
 269 672 l 1
 45 672 l 1
493 672 m 1
 493 717 l 1
 582 717 l 1
 582 672 l 1
 493 672 l 1
45 627 m 1
 45 672 l 1
 224 672 l 1
 224 627 l 1
 45 627 l 1
45 582 m 1
 45 627 l 1
 224 627 l 1
 224 582 l 1
 45 582 l 1
45 538 m 1
 45 582 l 1
 314 582 l 1
 314 538 l 1
 45 538 l 1
90 493 m 1
 90 538 l 1
 403 538 l 1
 403 493 l 1
 90 493 l 1
134 448 m 1
 134 493 l 1
 448 493 l 1
 448 448 l 1
 134 448 l 1
179 403 m 1
 179 448 l 1
 538 448 l 1
 538 403 l 1
 179 403 l 1
269 358 m 1
 269 403 l 1
 582 403 l 1
 582 358 l 1
 269 358 l 1
358 314 m 1
 358 358 l 1
 627 358 l 1
 627 314 l 1
 358 314 l 1
403 269 m 1
 403 314 l 1
 627 314 l 1
 627 269 l 1
 403 269 l 1
448 224 m 1
 448 269 l 1
 627 269 l 1
 627 224 l 1
 448 224 l 1
448 179 m 1
 448 224 l 1
 627 224 l 1
 627 179 l 1
 448 179 l 1
45 134 m 1
 45 179 l 1
 134 179 l 1
 134 134 l 1
 45 134 l 1
403 134 m 1
 403 179 l 1
 627 179 l 1
 627 134 l 1
 403 134 l 1
45 90 m 1
 45 134 l 1
 582 134 l 1
 582 90 l 1
 45 90 l 1
45 45 m 1
 45 90 l 1
 538 90 l 1
 538 45 l 1
 45 45 l 1
90 0 m 1
 90 45 l 1
 448 45 l 1
 448 0 l 1
 90 0 l 1
EndSplineSet
EndChar

StartChar: T
Encoding: 84 84 53
Width: 717
Flags: HW
LayerCount: 2
Back
Fore
SplineSet
0 806 m 1
 0 851 l 1
 717 851 l 1
 717 806 l 1
 0 806 l 1
0 762 m 1
 0 806 l 1
 717 806 l 1
 717 762 l 1
 0 762 l 1
0 717 m 1
 0 762 l 1
 717 762 l 1
 717 717 l 1
 0 717 l 1
269 672 m 1
 269 717 l 1
 448 717 l 1
 448 672 l 1
 269 672 l 1
269 627 m 1
 269 672 l 1
 448 672 l 1
 448 627 l 1
 269 627 l 1
269 582 m 1
 269 627 l 1
 448 627 l 1
 448 582 l 1
 269 582 l 1
269 538 m 1
 269 582 l 1
 448 582 l 1
 448 538 l 1
 269 538 l 1
269 493 m 1
 269 538 l 1
 448 538 l 1
 448 493 l 1
 269 493 l 1
269 448 m 1
 269 493 l 1
 448 493 l 1
 448 448 l 1
 269 448 l 1
269 403 m 1
 269 448 l 1
 448 448 l 1
 448 403 l 1
 269 403 l 1
269 358 m 1
 269 403 l 1
 448 403 l 1
 448 358 l 1
 269 358 l 1
269 314 m 1
 269 358 l 1
 448 358 l 1
 448 314 l 1
 269 314 l 1
269 269 m 1
 269 314 l 1
 448 314 l 1
 448 269 l 1
 269 269 l 1
269 224 m 1
 269 269 l 1
 448 269 l 1
 448 224 l 1
 269 224 l 1
269 179 m 1
 269 224 l 1
 448 224 l 1
 448 179 l 1
 269 179 l 1
269 134 m 1
 269 179 l 1
 448 179 l 1
 448 134 l 1
 269 134 l 1
269 90 m 1
 269 134 l 1
 448 134 l 1
 448 90 l 1
 269 90 l 1
269 45 m 1
 269 90 l 1
 448 90 l 1
 448 45 l 1
 269 45 l 1
269 0 m 1
 269 45 l 1
 448 45 l 1
 448 0 l 1
 269 0 l 1
EndSplineSet
EndChar

StartChar: U
Encoding: 85 85 54
Width: 717
Flags: HW
LayerCount: 2
Back
Fore
SplineSet
45 806 m 1
 45 851 l 1
 224 851 l 1
 224 806 l 1
 45 806 l 1
448 806 m 1
 448 851 l 1
 627 851 l 1
 627 806 l 1
 448 806 l 1
45 762 m 1
 45 806 l 1
 224 806 l 1
 224 762 l 1
 45 762 l 1
448 762 m 1
 448 806 l 1
 627 806 l 1
 627 762 l 1
 448 762 l 1
45 717 m 1
 45 762 l 1
 224 762 l 1
 224 717 l 1
 45 717 l 1
448 717 m 1
 448 762 l 1
 627 762 l 1
 627 717 l 1
 448 717 l 1
45 672 m 1
 45 717 l 1
 224 717 l 1
 224 672 l 1
 45 672 l 1
448 672 m 1
 448 717 l 1
 627 717 l 1
 627 672 l 1
 448 672 l 1
45 627 m 1
 45 672 l 1
 224 672 l 1
 224 627 l 1
 45 627 l 1
448 627 m 1
 448 672 l 1
 627 672 l 1
 627 627 l 1
 448 627 l 1
45 582 m 1
 45 627 l 1
 224 627 l 1
 224 582 l 1
 45 582 l 1
448 582 m 1
 448 627 l 1
 627 627 l 1
 627 582 l 1
 448 582 l 1
45 538 m 1
 45 582 l 1
 224 582 l 1
 224 538 l 1
 45 538 l 1
448 538 m 1
 448 582 l 1
 627 582 l 1
 627 538 l 1
 448 538 l 1
45 493 m 1
 45 538 l 1
 224 538 l 1
 224 493 l 1
 45 493 l 1
448 493 m 1
 448 538 l 1
 627 538 l 1
 627 493 l 1
 448 493 l 1
45 448 m 1
 45 493 l 1
 224 493 l 1
 224 448 l 1
 45 448 l 1
448 448 m 1
 448 493 l 1
 627 493 l 1
 627 448 l 1
 448 448 l 1
45 403 m 1
 45 448 l 1
 224 448 l 1
 224 403 l 1
 45 403 l 1
448 403 m 1
 448 448 l 1
 627 448 l 1
 627 403 l 1
 448 403 l 1
45 358 m 1
 45 403 l 1
 224 403 l 1
 224 358 l 1
 45 358 l 1
448 358 m 1
 448 403 l 1
 627 403 l 1
 627 358 l 1
 448 358 l 1
45 314 m 1
 45 358 l 1
 224 358 l 1
 224 314 l 1
 45 314 l 1
448 314 m 1
 448 358 l 1
 627 358 l 1
 627 314 l 1
 448 314 l 1
45 269 m 1
 45 314 l 1
 224 314 l 1
 224 269 l 1
 45 269 l 1
448 269 m 1
 448 314 l 1
 627 314 l 1
 627 269 l 1
 448 269 l 1
45 224 m 1
 45 269 l 1
 224 269 l 1
 224 224 l 1
 45 224 l 1
448 224 m 1
 448 269 l 1
 627 269 l 1
 627 224 l 1
 448 224 l 1
45 179 m 1
 45 224 l 1
 224 224 l 1
 224 179 l 1
 45 179 l 1
448 179 m 1
 448 224 l 1
 627 224 l 1
 627 179 l 1
 448 179 l 1
45 134 m 1
 45 179 l 1
 269 179 l 1
 269 134 l 1
 45 134 l 1
403 134 m 1
 403 179 l 1
 627 179 l 1
 627 134 l 1
 403 134 l 1
90 90 m 1
 90 134 l 1
 582 134 l 1
 582 90 l 1
 90 90 l 1
134 45 m 1
 134 90 l 1
 538 90 l 1
 538 45 l 1
 134 45 l 1
179 0 m 1
 179 45 l 1
 493 45 l 1
 493 0 l 1
 179 0 l 1
EndSplineSet
EndChar

StartChar: V
Encoding: 86 86 55
Width: 717
Flags: HW
LayerCount: 2
Back
Fore
SplineSet
0 806 m 1
 0 851 l 1
 179 851 l 1
 179 806 l 1
 0 806 l 1
538 806 m 1
 538 851 l 1
 672 851 l 1
 672 806 l 1
 538 806 l 1
0 762 m 1
 0 806 l 1
 179 806 l 1
 179 762 l 1
 0 762 l 1
538 762 m 1
 538 806 l 1
 672 806 l 1
 672 762 l 1
 538 762 l 1
45 717 m 1
 45 762 l 1
 224 762 l 1
 224 717 l 1
 45 717 l 1
493 717 m 1
 493 762 l 1
 627 762 l 1
 627 717 l 1
 493 717 l 1
45 672 m 1
 45 717 l 1
 224 717 l 1
 224 672 l 1
 45 672 l 1
493 672 m 1
 493 717 l 1
 627 717 l 1
 627 672 l 1
 493 672 l 1
45 627 m 1
 45 672 l 1
 224 672 l 1
 224 627 l 1
 45 627 l 1
493 627 m 1
 493 672 l 1
 627 672 l 1
 627 627 l 1
 493 627 l 1
45 582 m 1
 45 627 l 1
 269 627 l 1
 269 582 l 1
 45 582 l 1
448 582 m 1
 448 627 l 1
 627 627 l 1
 627 582 l 1
 448 582 l 1
90 538 m 1
 90 582 l 1
 269 582 l 1
 269 538 l 1
 90 538 l 1
448 538 m 1
 448 582 l 1
 582 582 l 1
 582 538 l 1
 448 538 l 1
90 493 m 1
 90 538 l 1
 269 538 l 1
 269 493 l 1
 90 493 l 1
448 493 m 1
 448 538 l 1
 582 538 l 1
 582 493 l 1
 448 493 l 1
90 448 m 1
 90 493 l 1
 269 493 l 1
 269 448 l 1
 90 448 l 1
403 448 m 1
 403 493 l 1
 582 493 l 1
 582 448 l 1
 403 448 l 1
134 403 m 1
 134 448 l 1
 314 448 l 1
 314 403 l 1
 134 403 l 1
403 403 m 1
 403 448 l 1
 538 448 l 1
 538 403 l 1
 403 403 l 1
134 358 m 1
 134 403 l 1
 314 403 l 1
 314 358 l 1
 134 358 l 1
403 358 m 1
 403 403 l 1
 538 403 l 1
 538 358 l 1
 403 358 l 1
134 314 m 1
 134 358 l 1
 314 358 l 1
 314 314 l 1
 134 314 l 1
403 314 m 1
 403 358 l 1
 538 358 l 1
 538 314 l 1
 403 314 l 1
134 269 m 1
 134 314 l 1
 493 314 l 1
 493 269 l 1
 134 269 l 1
179 224 m 1
 179 269 l 1
 493 269 l 1
 493 224 l 1
 179 224 l 1
179 179 m 1
 179 224 l 1
 493 224 l 1
 493 179 l 1
 179 179 l 1
179 134 m 1
 179 179 l 1
 448 179 l 1
 448 134 l 1
 179 134 l 1
224 90 m 1
 224 134 l 1
 448 134 l 1
 448 90 l 1
 224 90 l 1
224 45 m 1
 224 90 l 1
 448 90 l 1
 448 45 l 1
 224 45 l 1
224 0 m 1
 224 45 l 1
 448 45 l 1
 448 0 l 1
 224 0 l 1
EndSplineSet
EndChar

StartChar: W
Encoding: 87 87 56
Width: 717
Flags: HW
LayerCount: 2
Back
Fore
SplineSet
0 806 m 1
 0 851 l 1
 179 851 l 1
 179 806 l 1
 0 806 l 1
582 806 m 1
 582 851 l 1
 717 851 l 1
 717 806 l 1
 582 806 l 1
0 762 m 1
 0 806 l 1
 179 806 l 1
 179 762 l 1
 0 762 l 1
269 762 m 1
 269 806 l 1
 448 806 l 1
 448 762 l 1
 269 762 l 1
582 762 m 1
 582 806 l 1
 717 806 l 1
 717 762 l 1
 582 762 l 1
0 717 m 1
 0 762 l 1
 179 762 l 1
 179 717 l 1
 0 717 l 1
269 717 m 1
 269 762 l 1
 448 762 l 1
 448 717 l 1
 269 717 l 1
582 717 m 1
 582 762 l 1
 717 762 l 1
 717 717 l 1
 582 717 l 1
0 672 m 1
 0 717 l 1
 179 717 l 1
 179 672 l 1
 0 672 l 1
269 672 m 1
 269 717 l 1
 493 717 l 1
 493 672 l 1
 269 672 l 1
582 672 m 1
 582 717 l 1
 672 717 l 1
 672 672 l 1
 582 672 l 1
45 627 m 1
 45 672 l 1
 224 672 l 1
 224 627 l 1
 45 627 l 1
269 627 m 1
 269 672 l 1
 493 672 l 1
 493 627 l 1
 269 627 l 1
582 627 m 1
 582 672 l 1
 672 672 l 1
 672 627 l 1
 582 627 l 1
45 582 m 1
 45 627 l 1
 224 627 l 1
 224 582 l 1
 45 582 l 1
269 582 m 1
 269 627 l 1
 493 627 l 1
 493 582 l 1
 269 582 l 1
538 582 m 1
 538 627 l 1
 672 627 l 1
 672 582 l 1
 538 582 l 1
45 538 m 1
 45 582 l 1
 493 582 l 1
 493 538 l 1
 45 538 l 1
538 538 m 1
 538 582 l 1
 672 582 l 1
 672 538 l 1
 538 538 l 1
45 493 m 1
 45 538 l 1
 493 538 l 1
 493 493 l 1
 45 493 l 1
538 493 m 1
 538 538 l 1
 672 538 l 1
 672 493 l 1
 538 493 l 1
45 448 m 1
 45 493 l 1
 493 493 l 1
 493 448 l 1
 45 448 l 1
538 448 m 1
 538 493 l 1
 672 493 l 1
 672 448 l 1
 538 448 l 1
45 403 m 1
 45 448 l 1
 493 448 l 1
 493 403 l 1
 45 403 l 1
538 403 m 1
 538 448 l 1
 672 448 l 1
 672 403 l 1
 538 403 l 1
45 358 m 1
 45 403 l 1
 627 403 l 1
 627 358 l 1
 45 358 l 1
90 314 m 1
 90 358 l 1
 314 358 l 1
 314 314 l 1
 90 314 l 1
358 314 m 1
 358 358 l 1
 627 358 l 1
 627 314 l 1
 358 314 l 1
90 269 m 1
 90 314 l 1
 314 314 l 1
 314 269 l 1
 90 269 l 1
358 269 m 1
 358 314 l 1
 627 314 l 1
 627 269 l 1
 358 269 l 1
90 224 m 1
 90 269 l 1
 314 269 l 1
 314 224 l 1
 90 224 l 1
358 224 m 1
 358 269 l 1
 627 269 l 1
 627 224 l 1
 358 224 l 1
90 179 m 1
 90 224 l 1
 314 224 l 1
 314 179 l 1
 90 179 l 1
358 179 m 1
 358 224 l 1
 627 224 l 1
 627 179 l 1
 358 179 l 1
90 134 m 1
 90 179 l 1
 314 179 l 1
 314 134 l 1
 90 134 l 1
403 134 m 1
 403 179 l 1
 627 179 l 1
 627 134 l 1
 403 134 l 1
90 90 m 1
 90 134 l 1
 269 134 l 1
 269 90 l 1
 90 90 l 1
403 90 m 1
 403 134 l 1
 582 134 l 1
 582 90 l 1
 403 90 l 1
90 45 m 1
 90 90 l 1
 269 90 l 1
 269 45 l 1
 90 45 l 1
403 45 m 1
 403 90 l 1
 582 90 l 1
 582 45 l 1
 403 45 l 1
90 0 m 1
 90 45 l 1
 269 45 l 1
 269 0 l 1
 90 0 l 1
403 0 m 1
 403 45 l 1
 582 45 l 1
 582 0 l 1
 403 0 l 1
EndSplineSet
EndChar

StartChar: X
Encoding: 88 88 57
Width: 717
Flags: HW
LayerCount: 2
Back
Fore
SplineSet
0 806 m 1
 0 851 l 1
 224 851 l 1
 224 806 l 1
 0 806 l 1
493 806 m 1
 493 851 l 1
 672 851 l 1
 672 806 l 1
 493 806 l 1
45 762 m 1
 45 806 l 1
 224 806 l 1
 224 762 l 1
 45 762 l 1
448 762 m 1
 448 806 l 1
 627 806 l 1
 627 762 l 1
 448 762 l 1
45 717 m 1
 45 762 l 1
 269 762 l 1
 269 717 l 1
 45 717 l 1
448 717 m 1
 448 762 l 1
 582 762 l 1
 582 717 l 1
 448 717 l 1
90 672 m 1
 90 717 l 1
 314 717 l 1
 314 672 l 1
 90 672 l 1
403 672 m 1
 403 717 l 1
 582 717 l 1
 582 672 l 1
 403 672 l 1
90 627 m 1
 90 672 l 1
 314 672 l 1
 314 627 l 1
 90 627 l 1
403 627 m 1
 403 672 l 1
 538 672 l 1
 538 627 l 1
 403 627 l 1
134 582 m 1
 134 627 l 1
 538 627 l 1
 538 582 l 1
 134 582 l 1
179 538 m 1
 179 582 l 1
 493 582 l 1
 493 538 l 1
 179 538 l 1
179 493 m 1
 179 538 l 1
 493 538 l 1
 493 493 l 1
 179 493 l 1
224 448 m 1
 224 493 l 1
 448 493 l 1
 448 448 l 1
 224 448 l 1
224 403 m 1
 224 448 l 1
 448 448 l 1
 448 403 l 1
 224 403 l 1
224 358 m 1
 224 403 l 1
 448 403 l 1
 448 358 l 1
 224 358 l 1
179 314 m 1
 179 358 l 1
 493 358 l 1
 493 314 l 1
 179 314 l 1
179 269 m 1
 179 314 l 1
 538 314 l 1
 538 269 l 1
 179 269 l 1
134 224 m 1
 134 269 l 1
 269 269 l 1
 269 224 l 1
 134 224 l 1
358 224 m 1
 358 269 l 1
 538 269 l 1
 538 224 l 1
 358 224 l 1
90 179 m 1
 90 224 l 1
 269 224 l 1
 269 179 l 1
 90 179 l 1
358 179 m 1
 358 224 l 1
 582 224 l 1
 582 179 l 1
 358 179 l 1
90 134 m 1
 90 179 l 1
 224 179 l 1
 224 134 l 1
 90 134 l 1
403 134 m 1
 403 179 l 1
 582 179 l 1
 582 134 l 1
 403 134 l 1
45 90 m 1
 45 134 l 1
 224 134 l 1
 224 90 l 1
 45 90 l 1
403 90 m 1
 403 134 l 1
 627 134 l 1
 627 90 l 1
 403 90 l 1
45 45 m 1
 45 90 l 1
 179 90 l 1
 179 45 l 1
 45 45 l 1
448 45 m 1
 448 90 l 1
 627 90 l 1
 627 45 l 1
 448 45 l 1
0 0 m 1
 0 45 l 1
 179 45 l 1
 179 0 l 1
 0 0 l 1
448 0 m 1
 448 45 l 1
 672 45 l 1
 672 0 l 1
 448 0 l 1
EndSplineSet
EndChar

StartChar: Y
Encoding: 89 89 58
Width: 717
Flags: HW
LayerCount: 2
Back
Fore
SplineSet
0 806 m 1
 0 851 l 1
 224 851 l 1
 224 806 l 1
 0 806 l 1
582 806 m 1
 582 851 l 1
 717 851 l 1
 717 806 l 1
 582 806 l 1
45 762 m 1
 45 806 l 1
 224 806 l 1
 224 762 l 1
 45 762 l 1
538 762 m 1
 538 806 l 1
 672 806 l 1
 672 762 l 1
 538 762 l 1
45 717 m 1
 45 762 l 1
 269 762 l 1
 269 717 l 1
 45 717 l 1
493 717 m 1
 493 762 l 1
 672 762 l 1
 672 717 l 1
 493 717 l 1
90 672 m 1
 90 717 l 1
 269 717 l 1
 269 672 l 1
 90 672 l 1
493 672 m 1
 493 717 l 1
 627 717 l 1
 627 672 l 1
 493 672 l 1
90 627 m 1
 90 672 l 1
 314 672 l 1
 314 627 l 1
 90 627 l 1
448 627 m 1
 448 672 l 1
 627 672 l 1
 627 627 l 1
 448 627 l 1
134 582 m 1
 134 627 l 1
 314 627 l 1
 314 582 l 1
 134 582 l 1
448 582 m 1
 448 627 l 1
 582 627 l 1
 582 582 l 1
 448 582 l 1
134 538 m 1
 134 582 l 1
 358 582 l 1
 358 538 l 1
 134 538 l 1
403 538 m 1
 403 582 l 1
 582 582 l 1
 582 538 l 1
 403 538 l 1
179 493 m 1
 179 538 l 1
 538 538 l 1
 538 493 l 1
 179 493 l 1
224 448 m 1
 224 493 l 1
 538 493 l 1
 538 448 l 1
 224 448 l 1
224 403 m 1
 224 448 l 1
 493 448 l 1
 493 403 l 1
 224 403 l 1
269 358 m 1
 269 403 l 1
 448 403 l 1
 448 358 l 1
 269 358 l 1
269 314 m 1
 269 358 l 1
 448 358 l 1
 448 314 l 1
 269 314 l 1
269 269 m 1
 269 314 l 1
 448 314 l 1
 448 269 l 1
 269 269 l 1
269 224 m 1
 269 269 l 1
 448 269 l 1
 448 224 l 1
 269 224 l 1
269 179 m 1
 269 224 l 1
 448 224 l 1
 448 179 l 1
 269 179 l 1
269 134 m 1
 269 179 l 1
 448 179 l 1
 448 134 l 1
 269 134 l 1
269 90 m 1
 269 134 l 1
 448 134 l 1
 448 90 l 1
 269 90 l 1
269 45 m 1
 269 90 l 1
 448 90 l 1
 448 45 l 1
 269 45 l 1
269 0 m 1
 269 45 l 1
 448 45 l 1
 448 0 l 1
 269 0 l 1
EndSplineSet
EndChar

StartChar: Z
Encoding: 90 90 59
Width: 717
Flags: HW
LayerCount: 2
Back
Fore
SplineSet
90 806 m 1
 90 851 l 1
 627 851 l 1
 627 806 l 1
 90 806 l 1
90 762 m 1
 90 806 l 1
 627 806 l 1
 627 762 l 1
 90 762 l 1
90 717 m 1
 90 762 l 1
 627 762 l 1
 627 717 l 1
 90 717 l 1
403 672 m 1
 403 717 l 1
 627 717 l 1
 627 672 l 1
 403 672 l 1
358 627 m 1
 358 672 l 1
 582 672 l 1
 582 627 l 1
 358 627 l 1
358 582 m 1
 358 627 l 1
 538 627 l 1
 538 582 l 1
 358 582 l 1
314 538 m 1
 314 582 l 1
 538 582 l 1
 538 538 l 1
 314 538 l 1
269 493 m 1
 269 538 l 1
 493 538 l 1
 493 493 l 1
 269 493 l 1
269 448 m 1
 269 493 l 1
 493 493 l 1
 493 448 l 1
 269 448 l 1
224 403 m 1
 224 448 l 1
 448 448 l 1
 448 403 l 1
 224 403 l 1
179 358 m 1
 179 403 l 1
 403 403 l 1
 403 358 l 1
 179 358 l 1
179 314 m 1
 179 358 l 1
 403 358 l 1
 403 314 l 1
 179 314 l 1
134 269 m 1
 134 314 l 1
 358 314 l 1
 358 269 l 1
 134 269 l 1
134 224 m 1
 134 269 l 1
 314 269 l 1
 314 224 l 1
 134 224 l 1
90 179 m 1
 90 224 l 1
 314 224 l 1
 314 179 l 1
 90 179 l 1
45 134 m 1
 45 179 l 1
 269 179 l 1
 269 134 l 1
 45 134 l 1
45 90 m 1
 45 134 l 1
 627 134 l 1
 627 90 l 1
 45 90 l 1
45 45 m 1
 45 90 l 1
 627 90 l 1
 627 45 l 1
 45 45 l 1
45 0 m 1
 45 45 l 1
 627 45 l 1
 627 0 l 1
 45 0 l 1
EndSplineSet
EndChar

StartChar: bracketleft
Encoding: 91 91 60
Width: 717
Flags: HW
LayerCount: 2
Back
Fore
SplineSet
224 851 m 1
 224 896 l 1
 672 896 l 1
 672 851 l 1
 224 851 l 1
224 806 m 1
 224 851 l 1
 672 851 l 1
 672 806 l 1
 224 806 l 1
224 762 m 1
 224 806 l 1
 672 806 l 1
 672 762 l 1
 224 762 l 1
224 717 m 1
 224 762 l 1
 403 762 l 1
 403 717 l 1
 224 717 l 1
224 672 m 1
 224 717 l 1
 403 717 l 1
 403 672 l 1
 224 672 l 1
224 627 m 1
 224 672 l 1
 403 672 l 1
 403 627 l 1
 224 627 l 1
224 582 m 1
 224 627 l 1
 403 627 l 1
 403 582 l 1
 224 582 l 1
224 538 m 1
 224 582 l 1
 403 582 l 1
 403 538 l 1
 224 538 l 1
224 493 m 1
 224 538 l 1
 403 538 l 1
 403 493 l 1
 224 493 l 1
224 448 m 1
 224 493 l 1
 403 493 l 1
 403 448 l 1
 224 448 l 1
224 403 m 1
 224 448 l 1
 403 448 l 1
 403 403 l 1
 224 403 l 1
224 358 m 1
 224 403 l 1
 403 403 l 1
 403 358 l 1
 224 358 l 1
224 314 m 1
 224 358 l 1
 403 358 l 1
 403 314 l 1
 224 314 l 1
224 269 m 1
 224 314 l 1
 403 314 l 1
 403 269 l 1
 224 269 l 1
224 224 m 1
 224 269 l 1
 403 269 l 1
 403 224 l 1
 224 224 l 1
224 179 m 1
 224 224 l 1
 403 224 l 1
 403 179 l 1
 224 179 l 1
224 134 m 1
 224 179 l 1
 403 179 l 1
 403 134 l 1
 224 134 l 1
224 90 m 1
 224 134 l 1
 403 134 l 1
 403 90 l 1
 224 90 l 1
224 45 m 1
 224 90 l 1
 403 90 l 1
 403 45 l 1
 224 45 l 1
224 0 m 1
 224 45 l 1
 403 45 l 1
 403 0 l 1
 224 0 l 1
224 -45 m 1
 224 0 l 1
 403 0 l 1
 403 -45 l 1
 224 -45 l 1
224 -90 m 1
 224 -45 l 1
 672 -45 l 1
 672 -90 l 1
 224 -90 l 1
224 -134 m 1
 224 -90 l 1
 672 -90 l 1
 672 -134 l 1
 224 -134 l 1
224 -179 m 1
 224 -134 l 1
 672 -134 l 1
 672 -179 l 1
 224 -179 l 1
EndSplineSet
EndChar

StartChar: backslash
Encoding: 92 92 61
Width: 717
Flags: HW
LayerCount: 2
Back
Fore
SplineSet
0 851 m 1
 0 896 l 1
 134 896 l 1
 134 851 l 1
 0 851 l 1
45 806 m 1
 45 851 l 1
 179 851 l 1
 179 806 l 1
 45 806 l 1
45 762 m 1
 45 806 l 1
 179 806 l 1
 179 762 l 1
 45 762 l 1
90 717 m 1
 90 762 l 1
 224 762 l 1
 224 717 l 1
 90 717 l 1
90 672 m 1
 90 717 l 1
 224 717 l 1
 224 672 l 1
 90 672 l 1
134 627 m 1
 134 672 l 1
 269 672 l 1
 269 627 l 1
 134 627 l 1
134 582 m 1
 134 627 l 1
 269 627 l 1
 269 582 l 1
 134 582 l 1
179 538 m 1
 179 582 l 1
 314 582 l 1
 314 538 l 1
 179 538 l 1
179 493 m 1
 179 538 l 1
 314 538 l 1
 314 493 l 1
 179 493 l 1
224 448 m 1
 224 493 l 1
 358 493 l 1
 358 448 l 1
 224 448 l 1
224 403 m 1
 224 448 l 1
 358 448 l 1
 358 403 l 1
 224 403 l 1
269 358 m 1
 269 403 l 1
 403 403 l 1
 403 358 l 1
 269 358 l 1
269 314 m 1
 269 358 l 1
 403 358 l 1
 403 314 l 1
 269 314 l 1
314 269 m 1
 314 314 l 1
 448 314 l 1
 448 269 l 1
 314 269 l 1
314 224 m 1
 314 269 l 1
 448 269 l 1
 448 224 l 1
 314 224 l 1
358 179 m 1
 358 224 l 1
 493 224 l 1
 493 179 l 1
 358 179 l 1
358 134 m 1
 358 179 l 1
 493 179 l 1
 493 134 l 1
 358 134 l 1
403 90 m 1
 403 134 l 1
 538 134 l 1
 538 90 l 1
 403 90 l 1
403 45 m 1
 403 90 l 1
 538 90 l 1
 538 45 l 1
 403 45 l 1
448 0 m 1
 448 45 l 1
 582 45 l 1
 582 0 l 1
 448 0 l 1
448 -45 m 1
 448 0 l 1
 582 0 l 1
 582 -45 l 1
 448 -45 l 1
493 -90 m 1
 493 -45 l 1
 627 -45 l 1
 627 -90 l 1
 493 -90 l 1
493 -134 m 1
 493 -90 l 1
 627 -90 l 1
 627 -134 l 1
 493 -134 l 1
538 -179 m 1
 538 -134 l 1
 672 -134 l 1
 672 -179 l 1
 538 -179 l 1
EndSplineSet
EndChar

StartChar: bracketright
Encoding: 93 93 62
Width: 717
Flags: HW
LayerCount: 2
Back
Fore
SplineSet
45 851 m 1
 45 896 l 1
 493 896 l 1
 493 851 l 1
 45 851 l 1
45 806 m 1
 45 851 l 1
 493 851 l 1
 493 806 l 1
 45 806 l 1
45 762 m 1
 45 806 l 1
 493 806 l 1
 493 762 l 1
 45 762 l 1
314 717 m 1
 314 762 l 1
 493 762 l 1
 493 717 l 1
 314 717 l 1
314 672 m 1
 314 717 l 1
 493 717 l 1
 493 672 l 1
 314 672 l 1
314 627 m 1
 314 672 l 1
 493 672 l 1
 493 627 l 1
 314 627 l 1
314 582 m 1
 314 627 l 1
 493 627 l 1
 493 582 l 1
 314 582 l 1
314 538 m 1
 314 582 l 1
 493 582 l 1
 493 538 l 1
 314 538 l 1
314 493 m 1
 314 538 l 1
 493 538 l 1
 493 493 l 1
 314 493 l 1
314 448 m 1
 314 493 l 1
 493 493 l 1
 493 448 l 1
 314 448 l 1
314 403 m 1
 314 448 l 1
 493 448 l 1
 493 403 l 1
 314 403 l 1
314 358 m 1
 314 403 l 1
 493 403 l 1
 493 358 l 1
 314 358 l 1
314 314 m 1
 314 358 l 1
 493 358 l 1
 493 314 l 1
 314 314 l 1
314 269 m 1
 314 314 l 1
 493 314 l 1
 493 269 l 1
 314 269 l 1
314 224 m 1
 314 269 l 1
 493 269 l 1
 493 224 l 1
 314 224 l 1
314 179 m 1
 314 224 l 1
 493 224 l 1
 493 179 l 1
 314 179 l 1
314 134 m 1
 314 179 l 1
 493 179 l 1
 493 134 l 1
 314 134 l 1
314 90 m 1
 314 134 l 1
 493 134 l 1
 493 90 l 1
 314 90 l 1
314 45 m 1
 314 90 l 1
 493 90 l 1
 493 45 l 1
 314 45 l 1
314 0 m 1
 314 45 l 1
 493 45 l 1
 493 0 l 1
 314 0 l 1
314 -45 m 1
 314 0 l 1
 493 0 l 1
 493 -45 l 1
 314 -45 l 1
45 -90 m 1
 45 -45 l 1
 493 -45 l 1
 493 -90 l 1
 45 -90 l 1
45 -134 m 1
 45 -90 l 1
 493 -90 l 1
 493 -134 l 1
 45 -134 l 1
45 -179 m 1
 45 -134 l 1
 493 -134 l 1
 493 -179 l 1
 45 -179 l 1
EndSplineSet
EndChar

StartChar: asciicircum
Encoding: 94 94 63
Width: 717
Flags: HW
LayerCount: 2
Back
Fore
SplineSet
314 806 m 1
 314 851 l 1
 358 851 l 1
 358 806 l 1
 314 806 l 1
314 762 m 1
 314 806 l 1
 358 806 l 1
 358 762 l 1
 314 762 l 1
269 717 m 1
 269 762 l 1
 403 762 l 1
 403 717 l 1
 269 717 l 1
269 672 m 1
 269 717 l 1
 403 717 l 1
 403 672 l 1
 269 672 l 1
269 627 m 1
 269 672 l 1
 403 672 l 1
 403 627 l 1
 269 627 l 1
224 582 m 1
 224 627 l 1
 448 627 l 1
 448 582 l 1
 224 582 l 1
224 538 m 1
 224 582 l 1
 448 582 l 1
 448 538 l 1
 224 538 l 1
179 493 m 1
 179 538 l 1
 314 538 l 1
 314 493 l 1
 179 493 l 1
358 493 m 1
 358 538 l 1
 493 538 l 1
 493 493 l 1
 358 493 l 1
179 448 m 1
 179 493 l 1
 314 493 l 1
 314 448 l 1
 179 448 l 1
358 448 m 1
 358 493 l 1
 493 493 l 1
 493 448 l 1
 358 448 l 1
134 403 m 1
 134 448 l 1
 314 448 l 1
 314 403 l 1
 134 403 l 1
358 403 m 1
 358 448 l 1
 538 448 l 1
 538 403 l 1
 358 403 l 1
134 358 m 1
 134 403 l 1
 269 403 l 1
 269 358 l 1
 134 358 l 1
403 358 m 1
 403 403 l 1
 538 403 l 1
 538 358 l 1
 403 358 l 1
134 314 m 1
 134 358 l 1
 269 358 l 1
 269 314 l 1
 134 314 l 1
403 314 m 1
 403 358 l 1
 538 358 l 1
 538 314 l 1
 403 314 l 1
90 269 m 1
 90 314 l 1
 269 314 l 1
 269 269 l 1
 90 269 l 1
403 269 m 1
 403 314 l 1
 582 314 l 1
 582 269 l 1
 403 269 l 1
90 224 m 1
 90 269 l 1
 224 269 l 1
 224 224 l 1
 90 224 l 1
448 224 m 1
 448 269 l 1
 582 269 l 1
 582 224 l 1
 448 224 l 1
45 179 m 1
 45 224 l 1
 224 224 l 1
 224 179 l 1
 45 179 l 1
448 179 m 1
 448 224 l 1
 627 224 l 1
 627 179 l 1
 448 179 l 1
45 134 m 1
 45 179 l 1
 179 179 l 1
 179 134 l 1
 45 134 l 1
493 134 m 1
 493 179 l 1
 627 179 l 1
 627 134 l 1
 493 134 l 1
EndSplineSet
EndChar

StartChar: underscore
Encoding: 95 95 64
Width: 717
Flags: HW
LayerCount: 2
Back
Fore
SplineSet
0 -45 m 1
 0 0 l 1
 717 0 l 1
 717 -45 l 1
 0 -45 l 1
0 -90 m 1
 0 -45 l 1
 717 -45 l 1
 717 -90 l 1
 0 -90 l 1
0 -134 m 1
 0 -90 l 1
 717 -90 l 1
 717 -134 l 1
 0 -134 l 1
EndSplineSet
EndChar

StartChar: grave
Encoding: 96 96 65
Width: 717
Flags: HW
LayerCount: 2
Back
Fore
SplineSet
224 851 m 1
 224 896 l 1
 403 896 l 1
 403 851 l 1
 224 851 l 1
269 806 m 1
 269 851 l 1
 448 851 l 1
 448 806 l 1
 269 806 l 1
314 762 m 1
 314 806 l 1
 448 806 l 1
 448 762 l 1
 314 762 l 1
358 717 m 1
 358 762 l 1
 493 762 l 1
 493 717 l 1
 358 717 l 1
EndSplineSet
EndChar

StartChar: a
Encoding: 97 97 66
Width: 717
Flags: HW
LayerCount: 2
Back
Fore
SplineSet
179 582 m 1
 179 627 l 1
 493 627 l 1
 493 582 l 1
 179 582 l 1
90 538 m 1
 90 582 l 1
 582 582 l 1
 582 538 l 1
 90 538 l 1
90 493 m 1
 90 538 l 1
 627 538 l 1
 627 493 l 1
 90 493 l 1
90 448 m 1
 90 493 l 1
 179 493 l 1
 179 448 l 1
 90 448 l 1
403 448 m 1
 403 493 l 1
 627 493 l 1
 627 448 l 1
 403 448 l 1
448 403 m 1
 448 448 l 1
 627 448 l 1
 627 403 l 1
 448 403 l 1
179 358 m 1
 179 403 l 1
 627 403 l 1
 627 358 l 1
 179 358 l 1
90 314 m 1
 90 358 l 1
 627 358 l 1
 627 314 l 1
 90 314 l 1
45 269 m 1
 45 314 l 1
 627 314 l 1
 627 269 l 1
 45 269 l 1
45 224 m 1
 45 269 l 1
 224 269 l 1
 224 224 l 1
 45 224 l 1
448 224 m 1
 448 269 l 1
 627 269 l 1
 627 224 l 1
 448 224 l 1
45 179 m 1
 45 224 l 1
 224 224 l 1
 224 179 l 1
 45 179 l 1
448 179 m 1
 448 224 l 1
 627 224 l 1
 627 179 l 1
 448 179 l 1
45 134 m 1
 45 179 l 1
 224 179 l 1
 224 134 l 1
 45 134 l 1
403 134 m 1
 403 179 l 1
 627 179 l 1
 627 134 l 1
 403 134 l 1
45 90 m 1
 45 134 l 1
 672 134 l 1
 672 90 l 1
 45 90 l 1
90 45 m 1
 90 90 l 1
 403 90 l 1
 403 45 l 1
 90 45 l 1
448 45 m 1
 448 90 l 1
 672 90 l 1
 672 45 l 1
 448 45 l 1
134 0 m 1
 134 45 l 1
 358 45 l 1
 358 0 l 1
 134 0 l 1
493 0 m 1
 493 45 l 1
 672 45 l 1
 672 0 l 1
 493 0 l 1
EndSplineSet
EndChar

StartChar: b
Encoding: 98 98 67
Width: 717
Flags: HW
LayerCount: 2
Back
Fore
SplineSet
90 851 m 1
 90 896 l 1
 269 896 l 1
 269 851 l 1
 90 851 l 1
90 806 m 1
 90 851 l 1
 269 851 l 1
 269 806 l 1
 90 806 l 1
90 762 m 1
 90 806 l 1
 269 806 l 1
 269 762 l 1
 90 762 l 1
90 717 m 1
 90 762 l 1
 269 762 l 1
 269 717 l 1
 90 717 l 1
90 672 m 1
 90 717 l 1
 269 717 l 1
 269 672 l 1
 90 672 l 1
90 627 m 1
 90 672 l 1
 269 672 l 1
 269 627 l 1
 90 627 l 1
90 582 m 1
 90 627 l 1
 269 627 l 1
 269 582 l 1
 90 582 l 1
358 582 m 1
 358 627 l 1
 538 627 l 1
 538 582 l 1
 358 582 l 1
90 538 m 1
 90 582 l 1
 269 582 l 1
 269 538 l 1
 90 538 l 1
314 538 m 1
 314 582 l 1
 582 582 l 1
 582 538 l 1
 314 538 l 1
90 493 m 1
 90 538 l 1
 627 538 l 1
 627 493 l 1
 90 493 l 1
90 448 m 1
 90 493 l 1
 672 493 l 1
 672 448 l 1
 90 448 l 1
90 403 m 1
 90 448 l 1
 314 448 l 1
 314 403 l 1
 90 403 l 1
448 403 m 1
 448 448 l 1
 672 448 l 1
 672 403 l 1
 448 403 l 1
90 358 m 1
 90 403 l 1
 269 403 l 1
 269 358 l 1
 90 358 l 1
493 358 m 1
 493 403 l 1
 672 403 l 1
 672 358 l 1
 493 358 l 1
90 314 m 1
 90 358 l 1
 269 358 l 1
 269 314 l 1
 90 314 l 1
493 314 m 1
 493 358 l 1
 672 358 l 1
 672 314 l 1
 493 314 l 1
90 269 m 1
 90 314 l 1
 269 314 l 1
 269 269 l 1
 90 269 l 1
493 269 m 1
 493 314 l 1
 672 314 l 1
 672 269 l 1
 493 269 l 1
90 224 m 1
 90 269 l 1
 269 269 l 1
 269 224 l 1
 90 224 l 1
493 224 m 1
 493 269 l 1
 672 269 l 1
 672 224 l 1
 493 224 l 1
90 179 m 1
 90 224 l 1
 269 224 l 1
 269 179 l 1
 90 179 l 1
493 179 m 1
 493 224 l 1
 672 224 l 1
 672 179 l 1
 493 179 l 1
90 134 m 1
 90 179 l 1
 314 179 l 1
 314 134 l 1
 90 134 l 1
448 134 m 1
 448 179 l 1
 627 179 l 1
 627 134 l 1
 448 134 l 1
90 90 m 1
 90 134 l 1
 627 134 l 1
 627 90 l 1
 90 90 l 1
90 45 m 1
 90 90 l 1
 582 90 l 1
 582 45 l 1
 90 45 l 1
90 0 m 1
 90 45 l 1
 224 45 l 1
 224 0 l 1
 90 0 l 1
314 0 m 1
 314 45 l 1
 538 45 l 1
 538 0 l 1
 314 0 l 1
EndSplineSet
EndChar

StartChar: c
Encoding: 99 99 68
Width: 717
Flags: HW
LayerCount: 2
Back
Fore
SplineSet
269 582 m 1
 269 627 l 1
 672 627 l 1
 672 582 l 1
 269 582 l 1
179 538 m 1
 179 582 l 1
 672 582 l 1
 672 538 l 1
 179 538 l 1
134 493 m 1
 134 538 l 1
 672 538 l 1
 672 493 l 1
 134 493 l 1
90 448 m 1
 90 493 l 1
 314 493 l 1
 314 448 l 1
 90 448 l 1
582 448 m 1
 582 493 l 1
 672 493 l 1
 672 448 l 1
 582 448 l 1
45 403 m 1
 45 448 l 1
 269 448 l 1
 269 403 l 1
 45 403 l 1
45 358 m 1
 45 403 l 1
 224 403 l 1
 224 358 l 1
 45 358 l 1
45 314 m 1
 45 358 l 1
 224 358 l 1
 224 314 l 1
 45 314 l 1
45 269 m 1
 45 314 l 1
 224 314 l 1
 224 269 l 1
 45 269 l 1
45 224 m 1
 45 269 l 1
 224 269 l 1
 224 224 l 1
 45 224 l 1
45 179 m 1
 45 224 l 1
 269 224 l 1
 269 179 l 1
 45 179 l 1
90 134 m 1
 90 179 l 1
 358 179 l 1
 358 134 l 1
 90 134 l 1
627 134 m 1
 627 179 l 1
 672 179 l 1
 672 134 l 1
 627 134 l 1
134 90 m 1
 134 134 l 1
 672 134 l 1
 672 90 l 1
 134 90 l 1
179 45 m 1
 179 90 l 1
 672 90 l 1
 672 45 l 1
 179 45 l 1
269 0 m 1
 269 45 l 1
 672 45 l 1
 672 0 l 1
 269 0 l 1
EndSplineSet
EndChar

StartChar: d
Encoding: 100 100 69
Width: 717
Flags: HW
LayerCount: 2
Back
Fore
SplineSet
448 851 m 1
 448 896 l 1
 627 896 l 1
 627 851 l 1
 448 851 l 1
448 806 m 1
 448 851 l 1
 627 851 l 1
 627 806 l 1
 448 806 l 1
448 762 m 1
 448 806 l 1
 627 806 l 1
 627 762 l 1
 448 762 l 1
448 717 m 1
 448 762 l 1
 627 762 l 1
 627 717 l 1
 448 717 l 1
448 672 m 1
 448 717 l 1
 627 717 l 1
 627 672 l 1
 448 672 l 1
448 627 m 1
 448 672 l 1
 627 672 l 1
 627 627 l 1
 448 627 l 1
179 582 m 1
 179 627 l 1
 403 627 l 1
 403 582 l 1
 179 582 l 1
448 582 m 1
 448 627 l 1
 627 627 l 1
 627 582 l 1
 448 582 l 1
134 538 m 1
 134 582 l 1
 627 582 l 1
 627 538 l 1
 134 538 l 1
90 493 m 1
 90 538 l 1
 627 538 l 1
 627 493 l 1
 90 493 l 1
90 448 m 1
 90 493 l 1
 269 493 l 1
 269 448 l 1
 90 448 l 1
403 448 m 1
 403 493 l 1
 627 493 l 1
 627 448 l 1
 403 448 l 1
45 403 m 1
 45 448 l 1
 224 448 l 1
 224 403 l 1
 45 403 l 1
448 403 m 1
 448 448 l 1
 627 448 l 1
 627 403 l 1
 448 403 l 1
45 358 m 1
 45 403 l 1
 224 403 l 1
 224 358 l 1
 45 358 l 1
448 358 m 1
 448 403 l 1
 627 403 l 1
 627 358 l 1
 448 358 l 1
45 314 m 1
 45 358 l 1
 224 358 l 1
 224 314 l 1
 45 314 l 1
448 314 m 1
 448 358 l 1
 627 358 l 1
 627 314 l 1
 448 314 l 1
45 269 m 1
 45 314 l 1
 224 314 l 1
 224 269 l 1
 45 269 l 1
448 269 m 1
 448 314 l 1
 627 314 l 1
 627 269 l 1
 448 269 l 1
45 224 m 1
 45 269 l 1
 224 269 l 1
 224 224 l 1
 45 224 l 1
448 224 m 1
 448 269 l 1
 627 269 l 1
 627 224 l 1
 448 224 l 1
45 179 m 1
 45 224 l 1
 269 224 l 1
 269 179 l 1
 45 179 l 1
403 179 m 1
 403 224 l 1
 627 224 l 1
 627 179 l 1
 403 179 l 1
45 134 m 1
 45 179 l 1
 627 179 l 1
 627 134 l 1
 45 134 l 1
90 90 m 1
 90 134 l 1
 627 134 l 1
 627 90 l 1
 90 90 l 1
134 45 m 1
 134 90 l 1
 403 90 l 1
 403 45 l 1
 134 45 l 1
448 45 m 1
 448 90 l 1
 627 90 l 1
 627 45 l 1
 448 45 l 1
179 0 m 1
 179 45 l 1
 358 45 l 1
 358 0 l 1
 179 0 l 1
448 0 m 1
 448 45 l 1
 627 45 l 1
 627 0 l 1
 448 0 l 1
EndSplineSet
EndChar

StartChar: e
Encoding: 101 101 70
Width: 717
Flags: HW
LayerCount: 2
Back
Fore
SplineSet
269 582 m 1
 269 627 l 1
 493 627 l 1
 493 582 l 1
 269 582 l 1
179 538 m 1
 179 582 l 1
 582 582 l 1
 582 538 l 1
 179 538 l 1
134 493 m 1
 134 538 l 1
 627 538 l 1
 627 493 l 1
 134 493 l 1
90 448 m 1
 90 493 l 1
 269 493 l 1
 269 448 l 1
 90 448 l 1
448 448 m 1
 448 493 l 1
 627 493 l 1
 627 448 l 1
 448 448 l 1
45 403 m 1
 45 448 l 1
 224 448 l 1
 224 403 l 1
 45 403 l 1
493 403 m 1
 493 448 l 1
 672 448 l 1
 672 403 l 1
 493 403 l 1
45 358 m 1
 45 403 l 1
 672 403 l 1
 672 358 l 1
 45 358 l 1
45 314 m 1
 45 358 l 1
 672 358 l 1
 672 314 l 1
 45 314 l 1
45 269 m 1
 45 314 l 1
 672 314 l 1
 672 269 l 1
 45 269 l 1
45 224 m 1
 45 269 l 1
 224 269 l 1
 224 224 l 1
 45 224 l 1
45 179 m 1
 45 224 l 1
 269 224 l 1
 269 179 l 1
 45 179 l 1
90 134 m 1
 90 179 l 1
 314 179 l 1
 314 134 l 1
 90 134 l 1
582 134 m 1
 582 179 l 1
 672 179 l 1
 672 134 l 1
 582 134 l 1
134 90 m 1
 134 134 l 1
 672 134 l 1
 672 90 l 1
 134 90 l 1
179 45 m 1
 179 90 l 1
 672 90 l 1
 672 45 l 1
 179 45 l 1
269 0 m 1
 269 45 l 1
 582 45 l 1
 582 0 l 1
 269 0 l 1
EndSplineSet
EndChar

StartChar: f
Encoding: 102 102 71
Width: 717
Flags: HW
LayerCount: 2
Back
Fore
SplineSet
358 851 m 1
 358 896 l 1
 672 896 l 1
 672 851 l 1
 358 851 l 1
269 806 m 1
 269 851 l 1
 717 851 l 1
 717 806 l 1
 269 806 l 1
224 762 m 1
 224 806 l 1
 717 806 l 1
 717 762 l 1
 224 762 l 1
224 717 m 1
 224 762 l 1
 403 762 l 1
 403 717 l 1
 224 717 l 1
672 717 m 1
 672 762 l 1
 717 762 l 1
 717 717 l 1
 672 717 l 1
224 672 m 1
 224 717 l 1
 403 717 l 1
 403 672 l 1
 224 672 l 1
224 627 m 1
 224 672 l 1
 403 672 l 1
 403 627 l 1
 224 627 l 1
90 582 m 1
 90 627 l 1
 672 627 l 1
 672 582 l 1
 90 582 l 1
90 538 m 1
 90 582 l 1
 672 582 l 1
 672 538 l 1
 90 538 l 1
90 493 m 1
 90 538 l 1
 672 538 l 1
 672 493 l 1
 90 493 l 1
224 448 m 1
 224 493 l 1
 403 493 l 1
 403 448 l 1
 224 448 l 1
224 403 m 1
 224 448 l 1
 403 448 l 1
 403 403 l 1
 224 403 l 1
224 358 m 1
 224 403 l 1
 403 403 l 1
 403 358 l 1
 224 358 l 1
224 314 m 1
 224 358 l 1
 403 358 l 1
 403 314 l 1
 224 314 l 1
224 269 m 1
 224 314 l 1
 403 314 l 1
 403 269 l 1
 224 269 l 1
224 224 m 1
 224 269 l 1
 403 269 l 1
 403 224 l 1
 224 224 l 1
224 179 m 1
 224 224 l 1
 403 224 l 1
 403 179 l 1
 224 179 l 1
224 134 m 1
 224 179 l 1
 403 179 l 1
 403 134 l 1
 224 134 l 1
224 90 m 1
 224 134 l 1
 403 134 l 1
 403 90 l 1
 224 90 l 1
224 45 m 1
 224 90 l 1
 403 90 l 1
 403 45 l 1
 224 45 l 1
224 0 m 1
 224 45 l 1
 403 45 l 1
 403 0 l 1
 224 0 l 1
EndSplineSet
EndChar

StartChar: g
Encoding: 103 103 72
Width: 717
Flags: HW
LayerCount: 2
Back
Fore
SplineSet
179 582 m 1
 179 627 l 1
 403 627 l 1
 403 582 l 1
 179 582 l 1
493 582 m 1
 493 627 l 1
 627 627 l 1
 627 582 l 1
 493 582 l 1
134 538 m 1
 134 582 l 1
 448 582 l 1
 448 538 l 1
 134 538 l 1
493 538 m 1
 493 582 l 1
 627 582 l 1
 627 538 l 1
 493 538 l 1
90 493 m 1
 90 538 l 1
 627 538 l 1
 627 493 l 1
 90 493 l 1
90 448 m 1
 90 493 l 1
 269 493 l 1
 269 448 l 1
 90 448 l 1
403 448 m 1
 403 493 l 1
 627 493 l 1
 627 448 l 1
 403 448 l 1
45 403 m 1
 45 448 l 1
 224 448 l 1
 224 403 l 1
 45 403 l 1
448 403 m 1
 448 448 l 1
 627 448 l 1
 627 403 l 1
 448 403 l 1
45 358 m 1
 45 403 l 1
 224 403 l 1
 224 358 l 1
 45 358 l 1
448 358 m 1
 448 403 l 1
 627 403 l 1
 627 358 l 1
 448 358 l 1
45 314 m 1
 45 358 l 1
 224 358 l 1
 224 314 l 1
 45 314 l 1
448 314 m 1
 448 358 l 1
 627 358 l 1
 627 314 l 1
 448 314 l 1
45 269 m 1
 45 314 l 1
 224 314 l 1
 224 269 l 1
 45 269 l 1
448 269 m 1
 448 314 l 1
 627 314 l 1
 627 269 l 1
 448 269 l 1
45 224 m 1
 45 269 l 1
 224 269 l 1
 224 224 l 1
 45 224 l 1
448 224 m 1
 448 269 l 1
 627 269 l 1
 627 224 l 1
 448 224 l 1
45 179 m 1
 45 224 l 1
 269 224 l 1
 269 179 l 1
 45 179 l 1
403 179 m 1
 403 224 l 1
 627 224 l 1
 627 179 l 1
 403 179 l 1
90 134 m 1
 90 179 l 1
 627 179 l 1
 627 134 l 1
 90 134 l 1
90 90 m 1
 90 134 l 1
 403 134 l 1
 403 90 l 1
 90 90 l 1
448 90 m 1
 448 134 l 1
 627 134 l 1
 627 90 l 1
 448 90 l 1
134 45 m 1
 134 90 l 1
 403 90 l 1
 403 45 l 1
 134 45 l 1
448 45 m 1
 448 90 l 1
 627 90 l 1
 627 45 l 1
 448 45 l 1
179 0 m 1
 179 45 l 1
 358 45 l 1
 358 0 l 1
 179 0 l 1
448 0 m 1
 448 45 l 1
 627 45 l 1
 627 0 l 1
 448 0 l 1
448 -45 m 1
 448 0 l 1
 627 0 l 1
 627 -45 l 1
 448 -45 l 1
134 -90 m 1
 134 -45 l 1
 179 -45 l 1
 179 -90 l 1
 134 -90 l 1
403 -90 m 1
 403 -45 l 1
 582 -45 l 1
 582 -90 l 1
 403 -90 l 1
134 -134 m 1
 134 -90 l 1
 582 -90 l 1
 582 -134 l 1
 134 -134 l 1
90 -179 m 1
 90 -134 l 1
 538 -134 l 1
 538 -179 l 1
 90 -179 l 1
179 -224 m 1
 179 -179 l 1
 448 -179 l 1
 448 -224 l 1
 179 -224 l 1
EndSplineSet
EndChar

StartChar: h
Encoding: 104 104 73
Width: 717
Flags: HW
LayerCount: 2
Back
Fore
SplineSet
90 851 m 1
 90 896 l 1
 269 896 l 1
 269 851 l 1
 90 851 l 1
90 806 m 1
 90 851 l 1
 269 851 l 1
 269 806 l 1
 90 806 l 1
90 762 m 1
 90 806 l 1
 269 806 l 1
 269 762 l 1
 90 762 l 1
90 717 m 1
 90 762 l 1
 269 762 l 1
 269 717 l 1
 90 717 l 1
90 672 m 1
 90 717 l 1
 269 717 l 1
 269 672 l 1
 90 672 l 1
90 627 m 1
 90 672 l 1
 269 672 l 1
 269 627 l 1
 90 627 l 1
90 582 m 1
 90 627 l 1
 269 627 l 1
 269 582 l 1
 90 582 l 1
358 582 m 1
 358 627 l 1
 538 627 l 1
 538 582 l 1
 358 582 l 1
90 538 m 1
 90 582 l 1
 269 582 l 1
 269 538 l 1
 90 538 l 1
314 538 m 1
 314 582 l 1
 582 582 l 1
 582 538 l 1
 314 538 l 1
90 493 m 1
 90 538 l 1
 627 538 l 1
 627 493 l 1
 90 493 l 1
90 448 m 1
 90 493 l 1
 627 493 l 1
 627 448 l 1
 90 448 l 1
90 403 m 1
 90 448 l 1
 314 448 l 1
 314 403 l 1
 90 403 l 1
448 403 m 1
 448 448 l 1
 627 448 l 1
 627 403 l 1
 448 403 l 1
90 358 m 1
 90 403 l 1
 269 403 l 1
 269 358 l 1
 90 358 l 1
448 358 m 1
 448 403 l 1
 627 403 l 1
 627 358 l 1
 448 358 l 1
90 314 m 1
 90 358 l 1
 269 358 l 1
 269 314 l 1
 90 314 l 1
448 314 m 1
 448 358 l 1
 627 358 l 1
 627 314 l 1
 448 314 l 1
90 269 m 1
 90 314 l 1
 269 314 l 1
 269 269 l 1
 90 269 l 1
448 269 m 1
 448 314 l 1
 627 314 l 1
 627 269 l 1
 448 269 l 1
90 224 m 1
 90 269 l 1
 269 269 l 1
 269 224 l 1
 90 224 l 1
448 224 m 1
 448 269 l 1
 627 269 l 1
 627 224 l 1
 448 224 l 1
90 179 m 1
 90 224 l 1
 269 224 l 1
 269 179 l 1
 90 179 l 1
448 179 m 1
 448 224 l 1
 627 224 l 1
 627 179 l 1
 448 179 l 1
90 134 m 1
 90 179 l 1
 269 179 l 1
 269 134 l 1
 90 134 l 1
448 134 m 1
 448 179 l 1
 627 179 l 1
 627 134 l 1
 448 134 l 1
90 90 m 1
 90 134 l 1
 269 134 l 1
 269 90 l 1
 90 90 l 1
448 90 m 1
 448 134 l 1
 627 134 l 1
 627 90 l 1
 448 90 l 1
90 45 m 1
 90 90 l 1
 269 90 l 1
 269 45 l 1
 90 45 l 1
448 45 m 1
 448 90 l 1
 627 90 l 1
 627 45 l 1
 448 45 l 1
90 0 m 1
 90 45 l 1
 269 45 l 1
 269 0 l 1
 90 0 l 1
448 0 m 1
 448 45 l 1
 627 45 l 1
 627 0 l 1
 448 0 l 1
EndSplineSet
EndChar

StartChar: i
Encoding: 105 105 74
Width: 717
Flags: HW
LayerCount: 2
Back
Fore
SplineSet
314 851 m 1
 314 896 l 1
 493 896 l 1
 493 851 l 1
 314 851 l 1
314 806 m 1
 314 851 l 1
 493 851 l 1
 493 806 l 1
 314 806 l 1
314 762 m 1
 314 806 l 1
 493 806 l 1
 493 762 l 1
 314 762 l 1
314 717 m 1
 314 762 l 1
 493 762 l 1
 493 717 l 1
 314 717 l 1
90 582 m 1
 90 627 l 1
 493 627 l 1
 493 582 l 1
 90 582 l 1
90 538 m 1
 90 582 l 1
 493 582 l 1
 493 538 l 1
 90 538 l 1
90 493 m 1
 90 538 l 1
 493 538 l 1
 493 493 l 1
 90 493 l 1
314 448 m 1
 314 493 l 1
 493 493 l 1
 493 448 l 1
 314 448 l 1
314 403 m 1
 314 448 l 1
 493 448 l 1
 493 403 l 1
 314 403 l 1
314 358 m 1
 314 403 l 1
 493 403 l 1
 493 358 l 1
 314 358 l 1
314 314 m 1
 314 358 l 1
 493 358 l 1
 493 314 l 1
 314 314 l 1
314 269 m 1
 314 314 l 1
 493 314 l 1
 493 269 l 1
 314 269 l 1
314 224 m 1
 314 269 l 1
 493 269 l 1
 493 224 l 1
 314 224 l 1
314 179 m 1
 314 224 l 1
 493 224 l 1
 493 179 l 1
 314 179 l 1
314 134 m 1
 314 179 l 1
 493 179 l 1
 493 134 l 1
 314 134 l 1
314 90 m 1
 314 134 l 1
 493 134 l 1
 493 90 l 1
 314 90 l 1
314 45 m 1
 314 90 l 1
 493 90 l 1
 493 45 l 1
 314 45 l 1
314 0 m 1
 314 45 l 1
 493 45 l 1
 493 0 l 1
 314 0 l 1
EndSplineSet
EndChar

StartChar: j
Encoding: 106 106 75
Width: 717
Flags: HW
LayerCount: 2
Back
Fore
SplineSet
358 851 m 1
 358 896 l 1
 538 896 l 1
 538 851 l 1
 358 851 l 1
358 806 m 1
 358 851 l 1
 538 851 l 1
 538 806 l 1
 358 806 l 1
358 762 m 1
 358 806 l 1
 538 806 l 1
 538 762 l 1
 358 762 l 1
358 717 m 1
 358 762 l 1
 538 762 l 1
 538 717 l 1
 358 717 l 1
134 582 m 1
 134 627 l 1
 538 627 l 1
 538 582 l 1
 134 582 l 1
134 538 m 1
 134 582 l 1
 538 582 l 1
 538 538 l 1
 134 538 l 1
134 493 m 1
 134 538 l 1
 538 538 l 1
 538 493 l 1
 134 493 l 1
358 448 m 1
 358 493 l 1
 538 493 l 1
 538 448 l 1
 358 448 l 1
358 403 m 1
 358 448 l 1
 538 448 l 1
 538 403 l 1
 358 403 l 1
358 358 m 1
 358 403 l 1
 538 403 l 1
 538 358 l 1
 358 358 l 1
358 314 m 1
 358 358 l 1
 538 358 l 1
 538 314 l 1
 358 314 l 1
358 269 m 1
 358 314 l 1
 538 314 l 1
 538 269 l 1
 358 269 l 1
358 224 m 1
 358 269 l 1
 538 269 l 1
 538 224 l 1
 358 224 l 1
358 179 m 1
 358 224 l 1
 538 224 l 1
 538 179 l 1
 358 179 l 1
358 134 m 1
 358 179 l 1
 538 179 l 1
 538 134 l 1
 358 134 l 1
358 90 m 1
 358 134 l 1
 538 134 l 1
 538 90 l 1
 358 90 l 1
358 45 m 1
 358 90 l 1
 538 90 l 1
 538 45 l 1
 358 45 l 1
358 0 m 1
 358 45 l 1
 538 45 l 1
 538 0 l 1
 358 0 l 1
358 -45 m 1
 358 0 l 1
 538 0 l 1
 538 -45 l 1
 358 -45 l 1
90 -90 m 1
 90 -45 l 1
 134 -45 l 1
 134 -90 l 1
 90 -90 l 1
314 -90 m 1
 314 -45 l 1
 538 -45 l 1
 538 -90 l 1
 314 -90 l 1
90 -134 m 1
 90 -90 l 1
 493 -90 l 1
 493 -134 l 1
 90 -134 l 1
90 -179 m 1
 90 -134 l 1
 493 -134 l 1
 493 -179 l 1
 90 -179 l 1
134 -224 m 1
 134 -179 l 1
 448 -179 l 1
 448 -224 l 1
 134 -224 l 1
EndSplineSet
EndChar

StartChar: k
Encoding: 107 107 76
Width: 717
Flags: HW
LayerCount: 2
Back
Fore
SplineSet
90 851 m 1
 90 896 l 1
 269 896 l 1
 269 851 l 1
 90 851 l 1
90 806 m 1
 90 851 l 1
 269 851 l 1
 269 806 l 1
 90 806 l 1
90 762 m 1
 90 806 l 1
 269 806 l 1
 269 762 l 1
 90 762 l 1
90 717 m 1
 90 762 l 1
 269 762 l 1
 269 717 l 1
 90 717 l 1
90 672 m 1
 90 717 l 1
 269 717 l 1
 269 672 l 1
 90 672 l 1
90 627 m 1
 90 672 l 1
 269 672 l 1
 269 627 l 1
 90 627 l 1
90 582 m 1
 90 627 l 1
 269 627 l 1
 269 582 l 1
 90 582 l 1
448 582 m 1
 448 627 l 1
 627 627 l 1
 627 582 l 1
 448 582 l 1
90 538 m 1
 90 582 l 1
 269 582 l 1
 269 538 l 1
 90 538 l 1
403 538 m 1
 403 582 l 1
 582 582 l 1
 582 538 l 1
 403 538 l 1
90 493 m 1
 90 538 l 1
 269 538 l 1
 269 493 l 1
 90 493 l 1
403 493 m 1
 403 538 l 1
 538 538 l 1
 538 493 l 1
 403 493 l 1
90 448 m 1
 90 493 l 1
 269 493 l 1
 269 448 l 1
 90 448 l 1
358 448 m 1
 358 493 l 1
 538 493 l 1
 538 448 l 1
 358 448 l 1
90 403 m 1
 90 448 l 1
 269 448 l 1
 269 403 l 1
 90 403 l 1
314 403 m 1
 314 448 l 1
 493 448 l 1
 493 403 l 1
 314 403 l 1
90 358 m 1
 90 403 l 1
 269 403 l 1
 269 358 l 1
 90 358 l 1
314 358 m 1
 314 403 l 1
 448 403 l 1
 448 358 l 1
 314 358 l 1
90 314 m 1
 90 358 l 1
 493 358 l 1
 493 314 l 1
 90 314 l 1
90 269 m 1
 90 314 l 1
 269 314 l 1
 269 269 l 1
 90 269 l 1
314 269 m 1
 314 314 l 1
 493 314 l 1
 493 269 l 1
 314 269 l 1
90 224 m 1
 90 269 l 1
 269 269 l 1
 269 224 l 1
 90 224 l 1
314 224 m 1
 314 269 l 1
 538 269 l 1
 538 224 l 1
 314 224 l 1
90 179 m 1
 90 224 l 1
 269 224 l 1
 269 179 l 1
 90 179 l 1
358 179 m 1
 358 224 l 1
 538 224 l 1
 538 179 l 1
 358 179 l 1
90 134 m 1
 90 179 l 1
 269 179 l 1
 269 134 l 1
 90 134 l 1
358 134 m 1
 358 179 l 1
 582 179 l 1
 582 134 l 1
 358 134 l 1
90 90 m 1
 90 134 l 1
 269 134 l 1
 269 90 l 1
 90 90 l 1
403 90 m 1
 403 134 l 1
 627 134 l 1
 627 90 l 1
 403 90 l 1
90 45 m 1
 90 90 l 1
 269 90 l 1
 269 45 l 1
 90 45 l 1
448 45 m 1
 448 90 l 1
 627 90 l 1
 627 45 l 1
 448 45 l 1
90 0 m 1
 90 45 l 1
 269 45 l 1
 269 0 l 1
 90 0 l 1
448 0 m 1
 448 45 l 1
 672 45 l 1
 672 0 l 1
 448 0 l 1
EndSplineSet
EndChar

StartChar: l
Encoding: 108 108 77
Width: 717
Flags: HW
LayerCount: 2
Back
Fore
SplineSet
45 851 m 1
 45 896 l 1
 448 896 l 1
 448 851 l 1
 45 851 l 1
45 806 m 1
 45 851 l 1
 448 851 l 1
 448 806 l 1
 45 806 l 1
45 762 m 1
 45 806 l 1
 448 806 l 1
 448 762 l 1
 45 762 l 1
269 717 m 1
 269 762 l 1
 448 762 l 1
 448 717 l 1
 269 717 l 1
269 672 m 1
 269 717 l 1
 448 717 l 1
 448 672 l 1
 269 672 l 1
269 627 m 1
 269 672 l 1
 448 672 l 1
 448 627 l 1
 269 627 l 1
269 582 m 1
 269 627 l 1
 448 627 l 1
 448 582 l 1
 269 582 l 1
269 538 m 1
 269 582 l 1
 448 582 l 1
 448 538 l 1
 269 538 l 1
269 493 m 1
 269 538 l 1
 448 538 l 1
 448 493 l 1
 269 493 l 1
269 448 m 1
 269 493 l 1
 448 493 l 1
 448 448 l 1
 269 448 l 1
269 403 m 1
 269 448 l 1
 448 448 l 1
 448 403 l 1
 269 403 l 1
269 358 m 1
 269 403 l 1
 448 403 l 1
 448 358 l 1
 269 358 l 1
269 314 m 1
 269 358 l 1
 448 358 l 1
 448 314 l 1
 269 314 l 1
269 269 m 1
 269 314 l 1
 448 314 l 1
 448 269 l 1
 269 269 l 1
269 224 m 1
 269 269 l 1
 448 269 l 1
 448 224 l 1
 269 224 l 1
269 179 m 1
 269 224 l 1
 448 224 l 1
 448 179 l 1
 269 179 l 1
269 134 m 1
 269 179 l 1
 448 179 l 1
 448 134 l 1
 269 134 l 1
269 90 m 1
 269 134 l 1
 448 134 l 1
 448 90 l 1
 269 90 l 1
269 45 m 1
 269 90 l 1
 448 90 l 1
 448 45 l 1
 269 45 l 1
269 0 m 1
 269 45 l 1
 448 45 l 1
 448 0 l 1
 269 0 l 1
EndSplineSet
EndChar

StartChar: m
Encoding: 109 109 78
Width: 717
Flags: HW
LayerCount: 2
Back
Fore
SplineSet
45 582 m 1
 45 627 l 1
 224 627 l 1
 224 582 l 1
 45 582 l 1
314 582 m 1
 314 627 l 1
 403 627 l 1
 403 582 l 1
 314 582 l 1
493 582 m 1
 493 627 l 1
 627 627 l 1
 627 582 l 1
 493 582 l 1
45 538 m 1
 45 582 l 1
 224 582 l 1
 224 538 l 1
 45 538 l 1
269 538 m 1
 269 582 l 1
 448 582 l 1
 448 538 l 1
 269 538 l 1
493 538 m 1
 493 582 l 1
 672 582 l 1
 672 538 l 1
 493 538 l 1
45 493 m 1
 45 538 l 1
 672 538 l 1
 672 493 l 1
 45 493 l 1
45 448 m 1
 45 493 l 1
 672 493 l 1
 672 448 l 1
 45 448 l 1
45 403 m 1
 45 448 l 1
 224 448 l 1
 224 403 l 1
 45 403 l 1
269 403 m 1
 269 448 l 1
 448 448 l 1
 448 403 l 1
 269 403 l 1
493 403 m 1
 493 448 l 1
 672 448 l 1
 672 403 l 1
 493 403 l 1
45 358 m 1
 45 403 l 1
 224 403 l 1
 224 358 l 1
 45 358 l 1
269 358 m 1
 269 403 l 1
 448 403 l 1
 448 358 l 1
 269 358 l 1
493 358 m 1
 493 403 l 1
 672 403 l 1
 672 358 l 1
 493 358 l 1
45 314 m 1
 45 358 l 1
 224 358 l 1
 224 314 l 1
 45 314 l 1
269 314 m 1
 269 358 l 1
 448 358 l 1
 448 314 l 1
 269 314 l 1
493 314 m 1
 493 358 l 1
 672 358 l 1
 672 314 l 1
 493 314 l 1
45 269 m 1
 45 314 l 1
 224 314 l 1
 224 269 l 1
 45 269 l 1
269 269 m 1
 269 314 l 1
 448 314 l 1
 448 269 l 1
 269 269 l 1
493 269 m 1
 493 314 l 1
 672 314 l 1
 672 269 l 1
 493 269 l 1
45 224 m 1
 45 269 l 1
 224 269 l 1
 224 224 l 1
 45 224 l 1
269 224 m 1
 269 269 l 1
 448 269 l 1
 448 224 l 1
 269 224 l 1
493 224 m 1
 493 269 l 1
 672 269 l 1
 672 224 l 1
 493 224 l 1
45 179 m 1
 45 224 l 1
 224 224 l 1
 224 179 l 1
 45 179 l 1
269 179 m 1
 269 224 l 1
 448 224 l 1
 448 179 l 1
 269 179 l 1
493 179 m 1
 493 224 l 1
 672 224 l 1
 672 179 l 1
 493 179 l 1
45 134 m 1
 45 179 l 1
 224 179 l 1
 224 134 l 1
 45 134 l 1
269 134 m 1
 269 179 l 1
 448 179 l 1
 448 134 l 1
 269 134 l 1
493 134 m 1
 493 179 l 1
 672 179 l 1
 672 134 l 1
 493 134 l 1
45 90 m 1
 45 134 l 1
 224 134 l 1
 224 90 l 1
 45 90 l 1
269 90 m 1
 269 134 l 1
 448 134 l 1
 448 90 l 1
 269 90 l 1
493 90 m 1
 493 134 l 1
 672 134 l 1
 672 90 l 1
 493 90 l 1
45 45 m 1
 45 90 l 1
 224 90 l 1
 224 45 l 1
 45 45 l 1
269 45 m 1
 269 90 l 1
 448 90 l 1
 448 45 l 1
 269 45 l 1
493 45 m 1
 493 90 l 1
 672 90 l 1
 672 45 l 1
 493 45 l 1
45 0 m 1
 45 45 l 1
 224 45 l 1
 224 0 l 1
 45 0 l 1
269 0 m 1
 269 45 l 1
 448 45 l 1
 448 0 l 1
 269 0 l 1
493 0 m 1
 493 45 l 1
 672 45 l 1
 672 0 l 1
 493 0 l 1
EndSplineSet
EndChar

StartChar: n
Encoding: 110 110 79
Width: 717
Flags: HW
LayerCount: 2
Back
Fore
SplineSet
90 582 m 1
 90 627 l 1
 269 627 l 1
 269 582 l 1
 90 582 l 1
358 582 m 1
 358 627 l 1
 538 627 l 1
 538 582 l 1
 358 582 l 1
90 538 m 1
 90 582 l 1
 269 582 l 1
 269 538 l 1
 90 538 l 1
314 538 m 1
 314 582 l 1
 582 582 l 1
 582 538 l 1
 314 538 l 1
90 493 m 1
 90 538 l 1
 627 538 l 1
 627 493 l 1
 90 493 l 1
90 448 m 1
 90 493 l 1
 627 493 l 1
 627 448 l 1
 90 448 l 1
90 403 m 1
 90 448 l 1
 314 448 l 1
 314 403 l 1
 90 403 l 1
448 403 m 1
 448 448 l 1
 627 448 l 1
 627 403 l 1
 448 403 l 1
90 358 m 1
 90 403 l 1
 269 403 l 1
 269 358 l 1
 90 358 l 1
448 358 m 1
 448 403 l 1
 627 403 l 1
 627 358 l 1
 448 358 l 1
90 314 m 1
 90 358 l 1
 269 358 l 1
 269 314 l 1
 90 314 l 1
448 314 m 1
 448 358 l 1
 627 358 l 1
 627 314 l 1
 448 314 l 1
90 269 m 1
 90 314 l 1
 269 314 l 1
 269 269 l 1
 90 269 l 1
448 269 m 1
 448 314 l 1
 627 314 l 1
 627 269 l 1
 448 269 l 1
90 224 m 1
 90 269 l 1
 269 269 l 1
 269 224 l 1
 90 224 l 1
448 224 m 1
 448 269 l 1
 627 269 l 1
 627 224 l 1
 448 224 l 1
90 179 m 1
 90 224 l 1
 269 224 l 1
 269 179 l 1
 90 179 l 1
448 179 m 1
 448 224 l 1
 627 224 l 1
 627 179 l 1
 448 179 l 1
90 134 m 1
 90 179 l 1
 269 179 l 1
 269 134 l 1
 90 134 l 1
448 134 m 1
 448 179 l 1
 627 179 l 1
 627 134 l 1
 448 134 l 1
90 90 m 1
 90 134 l 1
 269 134 l 1
 269 90 l 1
 90 90 l 1
448 90 m 1
 448 134 l 1
 627 134 l 1
 627 90 l 1
 448 90 l 1
90 45 m 1
 90 90 l 1
 269 90 l 1
 269 45 l 1
 90 45 l 1
448 45 m 1
 448 90 l 1
 627 90 l 1
 627 45 l 1
 448 45 l 1
90 0 m 1
 90 45 l 1
 269 45 l 1
 269 0 l 1
 90 0 l 1
448 0 m 1
 448 45 l 1
 627 45 l 1
 627 0 l 1
 448 0 l 1
EndSplineSet
EndChar

StartChar: o
Encoding: 111 111 80
Width: 717
Flags: HW
LayerCount: 2
Back
Fore
SplineSet
224 582 m 1
 224 627 l 1
 493 627 l 1
 493 582 l 1
 224 582 l 1
134 538 m 1
 134 582 l 1
 582 582 l 1
 582 538 l 1
 134 538 l 1
90 493 m 1
 90 538 l 1
 627 538 l 1
 627 493 l 1
 90 493 l 1
90 448 m 1
 90 493 l 1
 269 493 l 1
 269 448 l 1
 90 448 l 1
448 448 m 1
 448 493 l 1
 627 493 l 1
 627 448 l 1
 448 448 l 1
45 403 m 1
 45 448 l 1
 269 448 l 1
 269 403 l 1
 45 403 l 1
448 403 m 1
 448 448 l 1
 672 448 l 1
 672 403 l 1
 448 403 l 1
45 358 m 1
 45 403 l 1
 224 403 l 1
 224 358 l 1
 45 358 l 1
493 358 m 1
 493 403 l 1
 672 403 l 1
 672 358 l 1
 493 358 l 1
45 314 m 1
 45 358 l 1
 224 358 l 1
 224 314 l 1
 45 314 l 1
493 314 m 1
 493 358 l 1
 672 358 l 1
 672 314 l 1
 493 314 l 1
45 269 m 1
 45 314 l 1
 224 314 l 1
 224 269 l 1
 45 269 l 1
493 269 m 1
 493 314 l 1
 672 314 l 1
 672 269 l 1
 493 269 l 1
45 224 m 1
 45 269 l 1
 224 269 l 1
 224 224 l 1
 45 224 l 1
493 224 m 1
 493 269 l 1
 672 269 l 1
 672 224 l 1
 493 224 l 1
45 179 m 1
 45 224 l 1
 269 224 l 1
 269 179 l 1
 45 179 l 1
448 179 m 1
 448 224 l 1
 672 224 l 1
 672 179 l 1
 448 179 l 1
90 134 m 1
 90 179 l 1
 269 179 l 1
 269 134 l 1
 90 134 l 1
448 134 m 1
 448 179 l 1
 627 179 l 1
 627 134 l 1
 448 134 l 1
90 90 m 1
 90 134 l 1
 627 134 l 1
 627 90 l 1
 90 90 l 1
134 45 m 1
 134 90 l 1
 582 90 l 1
 582 45 l 1
 134 45 l 1
224 0 m 1
 224 45 l 1
 493 45 l 1
 493 0 l 1
 224 0 l 1
EndSplineSet
EndChar

StartChar: p
Encoding: 112 112 81
Width: 717
Flags: HW
LayerCount: 2
Back
Fore
SplineSet
90 582 m 1
 90 627 l 1
 269 627 l 1
 269 582 l 1
 90 582 l 1
358 582 m 1
 358 627 l 1
 538 627 l 1
 538 582 l 1
 358 582 l 1
90 538 m 1
 90 582 l 1
 269 582 l 1
 269 538 l 1
 90 538 l 1
314 538 m 1
 314 582 l 1
 582 582 l 1
 582 538 l 1
 314 538 l 1
90 493 m 1
 90 538 l 1
 627 538 l 1
 627 493 l 1
 90 493 l 1
90 448 m 1
 90 493 l 1
 672 493 l 1
 672 448 l 1
 90 448 l 1
90 403 m 1
 90 448 l 1
 314 448 l 1
 314 403 l 1
 90 403 l 1
448 403 m 1
 448 448 l 1
 672 448 l 1
 672 403 l 1
 448 403 l 1
90 358 m 1
 90 403 l 1
 269 403 l 1
 269 358 l 1
 90 358 l 1
493 358 m 1
 493 403 l 1
 672 403 l 1
 672 358 l 1
 493 358 l 1
90 314 m 1
 90 358 l 1
 269 358 l 1
 269 314 l 1
 90 314 l 1
493 314 m 1
 493 358 l 1
 672 358 l 1
 672 314 l 1
 493 314 l 1
90 269 m 1
 90 314 l 1
 269 314 l 1
 269 269 l 1
 90 269 l 1
493 269 m 1
 493 314 l 1
 672 314 l 1
 672 269 l 1
 493 269 l 1
90 224 m 1
 90 269 l 1
 269 269 l 1
 269 224 l 1
 90 224 l 1
493 224 m 1
 493 269 l 1
 672 269 l 1
 672 224 l 1
 493 224 l 1
90 179 m 1
 90 224 l 1
 269 224 l 1
 269 179 l 1
 90 179 l 1
493 179 m 1
 493 224 l 1
 672 224 l 1
 672 179 l 1
 493 179 l 1
90 134 m 1
 90 179 l 1
 314 179 l 1
 314 134 l 1
 90 134 l 1
448 134 m 1
 448 179 l 1
 627 179 l 1
 627 134 l 1
 448 134 l 1
90 90 m 1
 90 134 l 1
 627 134 l 1
 627 90 l 1
 90 90 l 1
90 45 m 1
 90 90 l 1
 582 90 l 1
 582 45 l 1
 90 45 l 1
90 0 m 1
 90 45 l 1
 269 45 l 1
 269 0 l 1
 90 0 l 1
314 0 m 1
 314 45 l 1
 538 45 l 1
 538 0 l 1
 314 0 l 1
90 -45 m 1
 90 0 l 1
 269 0 l 1
 269 -45 l 1
 90 -45 l 1
90 -90 m 1
 90 -45 l 1
 269 -45 l 1
 269 -90 l 1
 90 -90 l 1
90 -134 m 1
 90 -90 l 1
 269 -90 l 1
 269 -134 l 1
 90 -134 l 1
90 -179 m 1
 90 -134 l 1
 269 -134 l 1
 269 -179 l 1
 90 -179 l 1
90 -224 m 1
 90 -179 l 1
 269 -179 l 1
 269 -224 l 1
 90 -224 l 1
EndSplineSet
EndChar

StartChar: q
Encoding: 113 113 82
Width: 717
Flags: HW
LayerCount: 2
Back
Fore
SplineSet
179 582 m 1
 179 627 l 1
 403 627 l 1
 403 582 l 1
 179 582 l 1
493 582 m 1
 493 627 l 1
 627 627 l 1
 627 582 l 1
 493 582 l 1
134 538 m 1
 134 582 l 1
 627 582 l 1
 627 538 l 1
 134 538 l 1
90 493 m 1
 90 538 l 1
 627 538 l 1
 627 493 l 1
 90 493 l 1
90 448 m 1
 90 493 l 1
 269 493 l 1
 269 448 l 1
 90 448 l 1
403 448 m 1
 403 493 l 1
 627 493 l 1
 627 448 l 1
 403 448 l 1
45 403 m 1
 45 448 l 1
 224 448 l 1
 224 403 l 1
 45 403 l 1
448 403 m 1
 448 448 l 1
 627 448 l 1
 627 403 l 1
 448 403 l 1
45 358 m 1
 45 403 l 1
 224 403 l 1
 224 358 l 1
 45 358 l 1
448 358 m 1
 448 403 l 1
 627 403 l 1
 627 358 l 1
 448 358 l 1
45 314 m 1
 45 358 l 1
 224 358 l 1
 224 314 l 1
 45 314 l 1
448 314 m 1
 448 358 l 1
 627 358 l 1
 627 314 l 1
 448 314 l 1
45 269 m 1
 45 314 l 1
 224 314 l 1
 224 269 l 1
 45 269 l 1
448 269 m 1
 448 314 l 1
 627 314 l 1
 627 269 l 1
 448 269 l 1
45 224 m 1
 45 269 l 1
 224 269 l 1
 224 224 l 1
 45 224 l 1
448 224 m 1
 448 269 l 1
 627 269 l 1
 627 224 l 1
 448 224 l 1
45 179 m 1
 45 224 l 1
 269 224 l 1
 269 179 l 1
 45 179 l 1
403 179 m 1
 403 224 l 1
 627 224 l 1
 627 179 l 1
 403 179 l 1
45 134 m 1
 45 179 l 1
 627 179 l 1
 627 134 l 1
 45 134 l 1
90 90 m 1
 90 134 l 1
 627 134 l 1
 627 90 l 1
 90 90 l 1
134 45 m 1
 134 90 l 1
 403 90 l 1
 403 45 l 1
 134 45 l 1
448 45 m 1
 448 90 l 1
 627 90 l 1
 627 45 l 1
 448 45 l 1
179 0 m 1
 179 45 l 1
 358 45 l 1
 358 0 l 1
 179 0 l 1
448 0 m 1
 448 45 l 1
 627 45 l 1
 627 0 l 1
 448 0 l 1
448 -45 m 1
 448 0 l 1
 627 0 l 1
 627 -45 l 1
 448 -45 l 1
448 -90 m 1
 448 -45 l 1
 627 -45 l 1
 627 -90 l 1
 448 -90 l 1
448 -134 m 1
 448 -90 l 1
 627 -90 l 1
 627 -134 l 1
 448 -134 l 1
448 -179 m 1
 448 -134 l 1
 627 -134 l 1
 627 -179 l 1
 448 -179 l 1
448 -224 m 1
 448 -179 l 1
 627 -179 l 1
 627 -224 l 1
 448 -224 l 1
EndSplineSet
EndChar

StartChar: r
Encoding: 114 114 83
Width: 717
Flags: HW
LayerCount: 2
Back
Fore
SplineSet
134 582 m 1
 134 627 l 1
 314 627 l 1
 314 582 l 1
 134 582 l 1
448 582 m 1
 448 627 l 1
 672 627 l 1
 672 582 l 1
 448 582 l 1
134 538 m 1
 134 582 l 1
 314 582 l 1
 314 538 l 1
 134 538 l 1
358 538 m 1
 358 582 l 1
 672 582 l 1
 672 538 l 1
 358 538 l 1
134 493 m 1
 134 538 l 1
 672 538 l 1
 672 493 l 1
 134 493 l 1
134 448 m 1
 134 493 l 1
 672 493 l 1
 672 448 l 1
 134 448 l 1
134 403 m 1
 134 448 l 1
 403 448 l 1
 403 403 l 1
 134 403 l 1
538 403 m 1
 538 448 l 1
 672 448 l 1
 672 403 l 1
 538 403 l 1
134 358 m 1
 134 403 l 1
 358 403 l 1
 358 358 l 1
 134 358 l 1
538 358 m 1
 538 403 l 1
 672 403 l 1
 672 358 l 1
 538 358 l 1
134 314 m 1
 134 358 l 1
 314 358 l 1
 314 314 l 1
 134 314 l 1
134 269 m 1
 134 314 l 1
 314 314 l 1
 314 269 l 1
 134 269 l 1
134 224 m 1
 134 269 l 1
 314 269 l 1
 314 224 l 1
 134 224 l 1
134 179 m 1
 134 224 l 1
 314 224 l 1
 314 179 l 1
 134 179 l 1
134 134 m 1
 134 179 l 1
 314 179 l 1
 314 134 l 1
 134 134 l 1
134 90 m 1
 134 134 l 1
 314 134 l 1
 314 90 l 1
 134 90 l 1
134 45 m 1
 134 90 l 1
 314 90 l 1
 314 45 l 1
 134 45 l 1
134 0 m 1
 134 45 l 1
 314 45 l 1
 314 0 l 1
 134 0 l 1
EndSplineSet
EndChar

StartChar: s
Encoding: 115 115 84
Width: 717
Flags: HW
LayerCount: 2
Back
Fore
SplineSet
224 582 m 1
 224 627 l 1
 538 627 l 1
 538 582 l 1
 224 582 l 1
134 538 m 1
 134 582 l 1
 582 582 l 1
 582 538 l 1
 134 538 l 1
90 493 m 1
 90 538 l 1
 582 538 l 1
 582 493 l 1
 90 493 l 1
90 448 m 1
 90 493 l 1
 269 493 l 1
 269 448 l 1
 90 448 l 1
538 448 m 1
 538 493 l 1
 582 493 l 1
 582 448 l 1
 538 448 l 1
90 403 m 1
 90 448 l 1
 358 448 l 1
 358 403 l 1
 90 403 l 1
90 358 m 1
 90 403 l 1
 448 403 l 1
 448 358 l 1
 90 358 l 1
134 314 m 1
 134 358 l 1
 582 358 l 1
 582 314 l 1
 134 314 l 1
179 269 m 1
 179 314 l 1
 627 314 l 1
 627 269 l 1
 179 269 l 1
314 224 m 1
 314 269 l 1
 627 269 l 1
 627 224 l 1
 314 224 l 1
448 179 m 1
 448 224 l 1
 627 224 l 1
 627 179 l 1
 448 179 l 1
90 134 m 1
 90 179 l 1
 179 179 l 1
 179 134 l 1
 90 134 l 1
403 134 m 1
 403 179 l 1
 627 179 l 1
 627 134 l 1
 403 134 l 1
90 90 m 1
 90 134 l 1
 627 134 l 1
 627 90 l 1
 90 90 l 1
90 45 m 1
 90 90 l 1
 582 90 l 1
 582 45 l 1
 90 45 l 1
134 0 m 1
 134 45 l 1
 493 45 l 1
 493 0 l 1
 134 0 l 1
EndSplineSet
EndChar

StartChar: t
Encoding: 116 116 85
Width: 717
Flags: HW
LayerCount: 2
Back
Fore
SplineSet
269 762 m 1
 269 806 l 1
 403 806 l 1
 403 762 l 1
 269 762 l 1
224 717 m 1
 224 762 l 1
 403 762 l 1
 403 717 l 1
 224 717 l 1
224 672 m 1
 224 717 l 1
 403 717 l 1
 403 672 l 1
 224 672 l 1
224 627 m 1
 224 672 l 1
 403 672 l 1
 403 627 l 1
 224 627 l 1
90 582 m 1
 90 627 l 1
 627 627 l 1
 627 582 l 1
 90 582 l 1
90 538 m 1
 90 582 l 1
 627 582 l 1
 627 538 l 1
 90 538 l 1
90 493 m 1
 90 538 l 1
 627 538 l 1
 627 493 l 1
 90 493 l 1
224 448 m 1
 224 493 l 1
 403 493 l 1
 403 448 l 1
 224 448 l 1
224 403 m 1
 224 448 l 1
 403 448 l 1
 403 403 l 1
 224 403 l 1
224 358 m 1
 224 403 l 1
 403 403 l 1
 403 358 l 1
 224 358 l 1
224 314 m 1
 224 358 l 1
 403 358 l 1
 403 314 l 1
 224 314 l 1
224 269 m 1
 224 314 l 1
 403 314 l 1
 403 269 l 1
 224 269 l 1
224 224 m 1
 224 269 l 1
 403 269 l 1
 403 224 l 1
 224 224 l 1
224 179 m 1
 224 224 l 1
 403 224 l 1
 403 179 l 1
 224 179 l 1
224 134 m 1
 224 179 l 1
 403 179 l 1
 403 134 l 1
 224 134 l 1
582 134 m 1
 582 179 l 1
 627 179 l 1
 627 134 l 1
 582 134 l 1
224 90 m 1
 224 134 l 1
 627 134 l 1
 627 90 l 1
 224 90 l 1
269 45 m 1
 269 90 l 1
 627 90 l 1
 627 45 l 1
 269 45 l 1
358 0 m 1
 358 45 l 1
 582 45 l 1
 582 0 l 1
 358 0 l 1
EndSplineSet
EndChar

StartChar: u
Encoding: 117 117 86
Width: 717
Flags: HW
LayerCount: 2
Back
Fore
SplineSet
90 582 m 1
 90 627 l 1
 269 627 l 1
 269 582 l 1
 90 582 l 1
448 582 m 1
 448 627 l 1
 627 627 l 1
 627 582 l 1
 448 582 l 1
90 538 m 1
 90 582 l 1
 269 582 l 1
 269 538 l 1
 90 538 l 1
448 538 m 1
 448 582 l 1
 627 582 l 1
 627 538 l 1
 448 538 l 1
90 493 m 1
 90 538 l 1
 269 538 l 1
 269 493 l 1
 90 493 l 1
448 493 m 1
 448 538 l 1
 627 538 l 1
 627 493 l 1
 448 493 l 1
90 448 m 1
 90 493 l 1
 269 493 l 1
 269 448 l 1
 90 448 l 1
448 448 m 1
 448 493 l 1
 627 493 l 1
 627 448 l 1
 448 448 l 1
90 403 m 1
 90 448 l 1
 269 448 l 1
 269 403 l 1
 90 403 l 1
448 403 m 1
 448 448 l 1
 627 448 l 1
 627 403 l 1
 448 403 l 1
90 358 m 1
 90 403 l 1
 269 403 l 1
 269 358 l 1
 90 358 l 1
448 358 m 1
 448 403 l 1
 627 403 l 1
 627 358 l 1
 448 358 l 1
90 314 m 1
 90 358 l 1
 269 358 l 1
 269 314 l 1
 90 314 l 1
448 314 m 1
 448 358 l 1
 627 358 l 1
 627 314 l 1
 448 314 l 1
90 269 m 1
 90 314 l 1
 269 314 l 1
 269 269 l 1
 90 269 l 1
448 269 m 1
 448 314 l 1
 627 314 l 1
 627 269 l 1
 448 269 l 1
90 224 m 1
 90 269 l 1
 269 269 l 1
 269 224 l 1
 90 224 l 1
448 224 m 1
 448 269 l 1
 627 269 l 1
 627 224 l 1
 448 224 l 1
90 179 m 1
 90 224 l 1
 269 224 l 1
 269 179 l 1
 90 179 l 1
403 179 m 1
 403 224 l 1
 627 224 l 1
 627 179 l 1
 403 179 l 1
90 134 m 1
 90 179 l 1
 627 179 l 1
 627 134 l 1
 90 134 l 1
90 90 m 1
 90 134 l 1
 627 134 l 1
 627 90 l 1
 90 90 l 1
134 45 m 1
 134 90 l 1
 403 90 l 1
 403 45 l 1
 134 45 l 1
448 45 m 1
 448 90 l 1
 627 90 l 1
 627 45 l 1
 448 45 l 1
179 0 m 1
 179 45 l 1
 358 45 l 1
 358 0 l 1
 179 0 l 1
448 0 m 1
 448 45 l 1
 627 45 l 1
 627 0 l 1
 448 0 l 1
EndSplineSet
EndChar

StartChar: v
Encoding: 118 118 87
Width: 717
Flags: HW
LayerCount: 2
Back
Fore
SplineSet
0 582 m 1
 0 627 l 1
 179 627 l 1
 179 582 l 1
 0 582 l 1
538 582 m 1
 538 627 l 1
 672 627 l 1
 672 582 l 1
 538 582 l 1
0 538 m 1
 0 582 l 1
 224 582 l 1
 224 538 l 1
 0 538 l 1
493 538 m 1
 493 582 l 1
 672 582 l 1
 672 538 l 1
 493 538 l 1
45 493 m 1
 45 538 l 1
 224 538 l 1
 224 493 l 1
 45 493 l 1
493 493 m 1
 493 538 l 1
 627 538 l 1
 627 493 l 1
 493 493 l 1
45 448 m 1
 45 493 l 1
 269 493 l 1
 269 448 l 1
 45 448 l 1
493 448 m 1
 493 493 l 1
 627 493 l 1
 627 448 l 1
 493 448 l 1
90 403 m 1
 90 448 l 1
 269 448 l 1
 269 403 l 1
 90 403 l 1
448 403 m 1
 448 448 l 1
 582 448 l 1
 582 403 l 1
 448 403 l 1
90 358 m 1
 90 403 l 1
 269 403 l 1
 269 358 l 1
 90 358 l 1
448 358 m 1
 448 403 l 1
 582 403 l 1
 582 358 l 1
 448 358 l 1
90 314 m 1
 90 358 l 1
 314 358 l 1
 314 314 l 1
 90 314 l 1
403 314 m 1
 403 358 l 1
 582 358 l 1
 582 314 l 1
 403 314 l 1
134 269 m 1
 134 314 l 1
 314 314 l 1
 314 269 l 1
 134 269 l 1
403 269 m 1
 403 314 l 1
 538 314 l 1
 538 269 l 1
 403 269 l 1
134 224 m 1
 134 269 l 1
 358 269 l 1
 358 224 l 1
 134 224 l 1
403 224 m 1
 403 269 l 1
 538 269 l 1
 538 224 l 1
 403 224 l 1
179 179 m 1
 179 224 l 1
 493 224 l 1
 493 179 l 1
 179 179 l 1
179 134 m 1
 179 179 l 1
 493 179 l 1
 493 134 l 1
 179 134 l 1
179 90 m 1
 179 134 l 1
 493 134 l 1
 493 90 l 1
 179 90 l 1
224 45 m 1
 224 90 l 1
 448 90 l 1
 448 45 l 1
 224 45 l 1
224 0 m 1
 224 45 l 1
 448 45 l 1
 448 0 l 1
 224 0 l 1
EndSplineSet
EndChar

StartChar: w
Encoding: 119 119 88
Width: 717
Flags: HW
LayerCount: 2
Back
Fore
SplineSet
0 582 m 1
 0 627 l 1
 179 627 l 1
 179 582 l 1
 0 582 l 1
582 582 m 1
 582 627 l 1
 717 627 l 1
 717 582 l 1
 582 582 l 1
0 538 m 1
 0 582 l 1
 179 582 l 1
 179 538 l 1
 0 538 l 1
314 538 m 1
 314 582 l 1
 448 582 l 1
 448 538 l 1
 314 538 l 1
582 538 m 1
 582 582 l 1
 717 582 l 1
 717 538 l 1
 582 538 l 1
0 493 m 1
 0 538 l 1
 179 538 l 1
 179 493 l 1
 0 493 l 1
269 493 m 1
 269 538 l 1
 448 538 l 1
 448 493 l 1
 269 493 l 1
582 493 m 1
 582 538 l 1
 717 538 l 1
 717 493 l 1
 582 493 l 1
45 448 m 1
 45 493 l 1
 224 493 l 1
 224 448 l 1
 45 448 l 1
269 448 m 1
 269 493 l 1
 493 493 l 1
 493 448 l 1
 269 448 l 1
582 448 m 1
 582 493 l 1
 672 493 l 1
 672 448 l 1
 582 448 l 1
45 403 m 1
 45 448 l 1
 224 448 l 1
 224 403 l 1
 45 403 l 1
269 403 m 1
 269 448 l 1
 493 448 l 1
 493 403 l 1
 269 403 l 1
538 403 m 1
 538 448 l 1
 672 448 l 1
 672 403 l 1
 538 403 l 1
45 358 m 1
 45 403 l 1
 493 403 l 1
 493 358 l 1
 45 358 l 1
538 358 m 1
 538 403 l 1
 672 403 l 1
 672 358 l 1
 538 358 l 1
45 314 m 1
 45 358 l 1
 672 358 l 1
 672 314 l 1
 45 314 l 1
45 269 m 1
 45 314 l 1
 672 314 l 1
 672 269 l 1
 45 269 l 1
45 224 m 1
 45 269 l 1
 358 269 l 1
 358 224 l 1
 45 224 l 1
403 224 m 1
 403 269 l 1
 672 269 l 1
 672 224 l 1
 403 224 l 1
90 179 m 1
 90 224 l 1
 314 224 l 1
 314 179 l 1
 90 179 l 1
403 179 m 1
 403 224 l 1
 627 224 l 1
 627 179 l 1
 403 179 l 1
90 134 m 1
 90 179 l 1
 314 179 l 1
 314 134 l 1
 90 134 l 1
403 134 m 1
 403 179 l 1
 627 179 l 1
 627 134 l 1
 403 134 l 1
90 90 m 1
 90 134 l 1
 314 134 l 1
 314 90 l 1
 90 90 l 1
448 90 m 1
 448 134 l 1
 627 134 l 1
 627 90 l 1
 448 90 l 1
90 45 m 1
 90 90 l 1
 314 90 l 1
 314 45 l 1
 90 45 l 1
448 45 m 1
 448 90 l 1
 627 90 l 1
 627 45 l 1
 448 45 l 1
90 0 m 1
 90 45 l 1
 269 45 l 1
 269 0 l 1
 90 0 l 1
448 0 m 1
 448 45 l 1
 627 45 l 1
 627 0 l 1
 448 0 l 1
EndSplineSet
EndChar

StartChar: x
Encoding: 120 120 89
Width: 717
Flags: HW
LayerCount: 2
Back
Fore
SplineSet
45 582 m 1
 45 627 l 1
 269 627 l 1
 269 582 l 1
 45 582 l 1
493 582 m 1
 493 627 l 1
 672 627 l 1
 672 582 l 1
 493 582 l 1
90 538 m 1
 90 582 l 1
 314 582 l 1
 314 538 l 1
 90 538 l 1
448 538 m 1
 448 582 l 1
 627 582 l 1
 627 538 l 1
 448 538 l 1
134 493 m 1
 134 538 l 1
 358 538 l 1
 358 493 l 1
 134 493 l 1
403 493 m 1
 403 538 l 1
 582 538 l 1
 582 493 l 1
 403 493 l 1
134 448 m 1
 134 493 l 1
 358 493 l 1
 358 448 l 1
 134 448 l 1
403 448 m 1
 403 493 l 1
 538 493 l 1
 538 448 l 1
 403 448 l 1
179 403 m 1
 179 448 l 1
 538 448 l 1
 538 403 l 1
 179 403 l 1
224 358 m 1
 224 403 l 1
 493 403 l 1
 493 358 l 1
 224 358 l 1
224 314 m 1
 224 358 l 1
 448 358 l 1
 448 314 l 1
 224 314 l 1
224 269 m 1
 224 314 l 1
 493 314 l 1
 493 269 l 1
 224 269 l 1
179 224 m 1
 179 269 l 1
 538 269 l 1
 538 224 l 1
 179 224 l 1
179 179 m 1
 179 224 l 1
 538 224 l 1
 538 179 l 1
 179 179 l 1
134 134 m 1
 134 179 l 1
 314 179 l 1
 314 134 l 1
 134 134 l 1
358 134 m 1
 358 179 l 1
 582 179 l 1
 582 134 l 1
 358 134 l 1
90 90 m 1
 90 134 l 1
 269 134 l 1
 269 90 l 1
 90 90 l 1
403 90 m 1
 403 134 l 1
 627 134 l 1
 627 90 l 1
 403 90 l 1
90 45 m 1
 90 90 l 1
 224 90 l 1
 224 45 l 1
 90 45 l 1
403 45 m 1
 403 90 l 1
 627 90 l 1
 627 45 l 1
 403 45 l 1
45 0 m 1
 45 45 l 1
 224 45 l 1
 224 0 l 1
 45 0 l 1
448 0 m 1
 448 45 l 1
 672 45 l 1
 672 0 l 1
 448 0 l 1
EndSplineSet
EndChar

StartChar: y
Encoding: 121 121 90
Width: 717
Flags: HW
LayerCount: 2
Back
Fore
SplineSet
0 582 m 1
 0 627 l 1
 224 627 l 1
 224 582 l 1
 0 582 l 1
538 582 m 1
 538 627 l 1
 672 627 l 1
 672 582 l 1
 538 582 l 1
45 538 m 1
 45 582 l 1
 224 582 l 1
 224 538 l 1
 45 538 l 1
493 538 m 1
 493 582 l 1
 672 582 l 1
 672 538 l 1
 493 538 l 1
45 493 m 1
 45 538 l 1
 269 538 l 1
 269 493 l 1
 45 493 l 1
493 493 m 1
 493 538 l 1
 627 538 l 1
 627 493 l 1
 493 493 l 1
90 448 m 1
 90 493 l 1
 269 493 l 1
 269 448 l 1
 90 448 l 1
448 448 m 1
 448 493 l 1
 627 493 l 1
 627 448 l 1
 448 448 l 1
90 403 m 1
 90 448 l 1
 269 448 l 1
 269 403 l 1
 90 403 l 1
448 403 m 1
 448 448 l 1
 582 448 l 1
 582 403 l 1
 448 403 l 1
134 358 m 1
 134 403 l 1
 314 403 l 1
 314 358 l 1
 134 358 l 1
403 358 m 1
 403 403 l 1
 582 403 l 1
 582 358 l 1
 403 358 l 1
134 314 m 1
 134 358 l 1
 314 358 l 1
 314 314 l 1
 134 314 l 1
403 314 m 1
 403 358 l 1
 538 358 l 1
 538 314 l 1
 403 314 l 1
179 269 m 1
 179 314 l 1
 358 314 l 1
 358 269 l 1
 179 269 l 1
403 269 m 1
 403 314 l 1
 538 314 l 1
 538 269 l 1
 403 269 l 1
179 224 m 1
 179 269 l 1
 493 269 l 1
 493 224 l 1
 179 224 l 1
179 179 m 1
 179 224 l 1
 493 224 l 1
 493 179 l 1
 179 179 l 1
224 134 m 1
 224 179 l 1
 448 179 l 1
 448 134 l 1
 224 134 l 1
224 90 m 1
 224 134 l 1
 448 134 l 1
 448 90 l 1
 224 90 l 1
269 45 m 1
 269 90 l 1
 448 90 l 1
 448 45 l 1
 269 45 l 1
269 0 m 1
 269 45 l 1
 403 45 l 1
 403 0 l 1
 269 0 l 1
224 -45 m 1
 224 0 l 1
 403 0 l 1
 403 -45 l 1
 224 -45 l 1
224 -90 m 1
 224 -45 l 1
 358 -45 l 1
 358 -90 l 1
 224 -90 l 1
45 -134 m 1
 45 -90 l 1
 358 -90 l 1
 358 -134 l 1
 45 -134 l 1
45 -179 m 1
 45 -134 l 1
 314 -134 l 1
 314 -179 l 1
 45 -179 l 1
45 -224 m 1
 45 -179 l 1
 269 -179 l 1
 269 -224 l 1
 45 -224 l 1
EndSplineSet
EndChar

StartChar: z
Encoding: 122 122 91
Width: 717
Flags: HW
LayerCount: 2
Back
Fore
SplineSet
45 582 m 1
 45 627 l 1
 627 627 l 1
 627 582 l 1
 45 582 l 1
45 538 m 1
 45 582 l 1
 627 582 l 1
 627 538 l 1
 45 538 l 1
45 493 m 1
 45 538 l 1
 627 538 l 1
 627 493 l 1
 45 493 l 1
358 448 m 1
 358 493 l 1
 582 493 l 1
 582 448 l 1
 358 448 l 1
314 403 m 1
 314 448 l 1
 538 448 l 1
 538 403 l 1
 314 403 l 1
269 358 m 1
 269 403 l 1
 538 403 l 1
 538 358 l 1
 269 358 l 1
224 314 m 1
 224 358 l 1
 493 358 l 1
 493 314 l 1
 224 314 l 1
179 269 m 1
 179 314 l 1
 448 314 l 1
 448 269 l 1
 179 269 l 1
134 224 m 1
 134 269 l 1
 403 269 l 1
 403 224 l 1
 134 224 l 1
90 179 m 1
 90 224 l 1
 358 224 l 1
 358 179 l 1
 90 179 l 1
45 134 m 1
 45 179 l 1
 314 179 l 1
 314 134 l 1
 45 134 l 1
45 90 m 1
 45 134 l 1
 627 134 l 1
 627 90 l 1
 45 90 l 1
45 45 m 1
 45 90 l 1
 627 90 l 1
 627 45 l 1
 45 45 l 1
45 0 m 1
 45 45 l 1
 627 45 l 1
 627 0 l 1
 45 0 l 1
EndSplineSet
EndChar

StartChar: braceleft
Encoding: 123 123 92
Width: 717
Flags: HW
LayerCount: 2
Back
Fore
SplineSet
358 851 m 1
 358 896 l 1
 627 896 l 1
 627 851 l 1
 358 851 l 1
314 806 m 1
 314 851 l 1
 627 851 l 1
 627 806 l 1
 314 806 l 1
269 762 m 1
 269 806 l 1
 627 806 l 1
 627 762 l 1
 269 762 l 1
269 717 m 1
 269 762 l 1
 448 762 l 1
 448 717 l 1
 269 717 l 1
269 672 m 1
 269 717 l 1
 448 717 l 1
 448 672 l 1
 269 672 l 1
269 627 m 1
 269 672 l 1
 448 672 l 1
 448 627 l 1
 269 627 l 1
314 582 m 1
 314 627 l 1
 493 627 l 1
 493 582 l 1
 314 582 l 1
314 538 m 1
 314 582 l 1
 493 582 l 1
 493 538 l 1
 314 538 l 1
314 493 m 1
 314 538 l 1
 493 538 l 1
 493 493 l 1
 314 493 l 1
314 448 m 1
 314 493 l 1
 493 493 l 1
 493 448 l 1
 314 448 l 1
269 403 m 1
 269 448 l 1
 448 448 l 1
 448 403 l 1
 269 403 l 1
90 358 m 1
 90 403 l 1
 403 403 l 1
 403 358 l 1
 90 358 l 1
90 314 m 1
 90 358 l 1
 403 358 l 1
 403 314 l 1
 90 314 l 1
90 269 m 1
 90 314 l 1
 448 314 l 1
 448 269 l 1
 90 269 l 1
269 224 m 1
 269 269 l 1
 493 269 l 1
 493 224 l 1
 269 224 l 1
314 179 m 1
 314 224 l 1
 493 224 l 1
 493 179 l 1
 314 179 l 1
314 134 m 1
 314 179 l 1
 493 179 l 1
 493 134 l 1
 314 134 l 1
314 90 m 1
 314 134 l 1
 493 134 l 1
 493 90 l 1
 314 90 l 1
269 45 m 1
 269 90 l 1
 448 90 l 1
 448 45 l 1
 269 45 l 1
269 0 m 1
 269 45 l 1
 448 45 l 1
 448 0 l 1
 269 0 l 1
269 -45 m 1
 269 0 l 1
 448 0 l 1
 448 -45 l 1
 269 -45 l 1
269 -90 m 1
 269 -45 l 1
 627 -45 l 1
 627 -90 l 1
 269 -90 l 1
269 -134 m 1
 269 -90 l 1
 627 -90 l 1
 627 -134 l 1
 269 -134 l 1
358 -179 m 1
 358 -134 l 1
 627 -134 l 1
 627 -179 l 1
 358 -179 l 1
EndSplineSet
EndChar

StartChar: bar
Encoding: 124 124 93
Width: 717
Flags: HW
LayerCount: 2
Back
Fore
SplineSet
269 851 m 1
 269 896 l 1
 403 896 l 1
 403 851 l 1
 269 851 l 1
269 806 m 1
 269 851 l 1
 403 851 l 1
 403 806 l 1
 269 806 l 1
269 762 m 1
 269 806 l 1
 403 806 l 1
 403 762 l 1
 269 762 l 1
269 717 m 1
 269 762 l 1
 403 762 l 1
 403 717 l 1
 269 717 l 1
269 672 m 1
 269 717 l 1
 403 717 l 1
 403 672 l 1
 269 672 l 1
269 627 m 1
 269 672 l 1
 403 672 l 1
 403 627 l 1
 269 627 l 1
269 582 m 1
 269 627 l 1
 403 627 l 1
 403 582 l 1
 269 582 l 1
269 538 m 1
 269 582 l 1
 403 582 l 1
 403 538 l 1
 269 538 l 1
269 493 m 1
 269 538 l 1
 403 538 l 1
 403 493 l 1
 269 493 l 1
269 448 m 1
 269 493 l 1
 403 493 l 1
 403 448 l 1
 269 448 l 1
269 403 m 1
 269 448 l 1
 403 448 l 1
 403 403 l 1
 269 403 l 1
269 358 m 1
 269 403 l 1
 403 403 l 1
 403 358 l 1
 269 358 l 1
269 314 m 1
 269 358 l 1
 403 358 l 1
 403 314 l 1
 269 314 l 1
269 269 m 1
 269 314 l 1
 403 314 l 1
 403 269 l 1
 269 269 l 1
269 224 m 1
 269 269 l 1
 403 269 l 1
 403 224 l 1
 269 224 l 1
269 179 m 1
 269 224 l 1
 403 224 l 1
 403 179 l 1
 269 179 l 1
269 134 m 1
 269 179 l 1
 403 179 l 1
 403 134 l 1
 269 134 l 1
269 90 m 1
 269 134 l 1
 403 134 l 1
 403 90 l 1
 269 90 l 1
269 45 m 1
 269 90 l 1
 403 90 l 1
 403 45 l 1
 269 45 l 1
269 0 m 1
 269 45 l 1
 403 45 l 1
 403 0 l 1
 269 0 l 1
269 -45 m 1
 269 0 l 1
 403 0 l 1
 403 -45 l 1
 269 -45 l 1
269 -90 m 1
 269 -45 l 1
 403 -45 l 1
 403 -90 l 1
 269 -90 l 1
269 -134 m 1
 269 -90 l 1
 403 -90 l 1
 403 -134 l 1
 269 -134 l 1
269 -179 m 1
 269 -134 l 1
 403 -134 l 1
 403 -179 l 1
 269 -179 l 1
EndSplineSet
EndChar

StartChar: braceright
Encoding: 125 125 94
Width: 717
Flags: HW
LayerCount: 2
Back
Fore
SplineSet
45 851 m 1
 45 896 l 1
 314 896 l 1
 314 851 l 1
 45 851 l 1
45 806 m 1
 45 851 l 1
 358 851 l 1
 358 806 l 1
 45 806 l 1
45 762 m 1
 45 806 l 1
 403 806 l 1
 403 762 l 1
 45 762 l 1
224 717 m 1
 224 762 l 1
 403 762 l 1
 403 717 l 1
 224 717 l 1
224 672 m 1
 224 717 l 1
 403 717 l 1
 403 672 l 1
 224 672 l 1
224 627 m 1
 224 672 l 1
 403 672 l 1
 403 627 l 1
 224 627 l 1
179 582 m 1
 179 627 l 1
 358 627 l 1
 358 582 l 1
 179 582 l 1
179 538 m 1
 179 582 l 1
 358 582 l 1
 358 538 l 1
 179 538 l 1
179 493 m 1
 179 538 l 1
 358 538 l 1
 358 493 l 1
 179 493 l 1
179 448 m 1
 179 493 l 1
 358 493 l 1
 358 448 l 1
 179 448 l 1
224 403 m 1
 224 448 l 1
 403 448 l 1
 403 403 l 1
 224 403 l 1
269 358 m 1
 269 403 l 1
 582 403 l 1
 582 358 l 1
 269 358 l 1
269 314 m 1
 269 358 l 1
 582 358 l 1
 582 314 l 1
 269 314 l 1
224 269 m 1
 224 314 l 1
 582 314 l 1
 582 269 l 1
 224 269 l 1
179 224 m 1
 179 269 l 1
 403 269 l 1
 403 224 l 1
 179 224 l 1
179 179 m 1
 179 224 l 1
 358 224 l 1
 358 179 l 1
 179 179 l 1
179 134 m 1
 179 179 l 1
 358 179 l 1
 358 134 l 1
 179 134 l 1
179 90 m 1
 179 134 l 1
 358 134 l 1
 358 90 l 1
 179 90 l 1
224 45 m 1
 224 90 l 1
 358 90 l 1
 358 45 l 1
 224 45 l 1
224 0 m 1
 224 45 l 1
 403 45 l 1
 403 0 l 1
 224 0 l 1
224 -45 m 1
 224 0 l 1
 403 0 l 1
 403 -45 l 1
 224 -45 l 1
45 -90 m 1
 45 -45 l 1
 403 -45 l 1
 403 -90 l 1
 45 -90 l 1
45 -134 m 1
 45 -90 l 1
 403 -90 l 1
 403 -134 l 1
 45 -134 l 1
45 -179 m 1
 45 -134 l 1
 314 -134 l 1
 314 -179 l 1
 45 -179 l 1
EndSplineSet
EndChar

StartChar: asciitilde
Encoding: 126 126 95
Width: 717
Flags: HW
LayerCount: 2
Back
Fore
SplineSet
134 403 m 1
 134 448 l 1
 314 448 l 1
 314 403 l 1
 134 403 l 1
493 403 m 1
 493 448 l 1
 627 448 l 1
 627 403 l 1
 493 403 l 1
90 358 m 1
 90 403 l 1
 358 403 l 1
 358 358 l 1
 90 358 l 1
493 358 m 1
 493 403 l 1
 627 403 l 1
 627 358 l 1
 493 358 l 1
90 314 m 1
 90 358 l 1
 403 358 l 1
 403 314 l 1
 90 314 l 1
493 314 m 1
 493 358 l 1
 627 358 l 1
 627 314 l 1
 493 314 l 1
45 269 m 1
 45 314 l 1
 179 314 l 1
 179 269 l 1
 45 269 l 1
269 269 m 1
 269 314 l 1
 582 314 l 1
 582 269 l 1
 269 269 l 1
45 224 m 1
 45 269 l 1
 179 269 l 1
 179 224 l 1
 45 224 l 1
314 224 m 1
 314 269 l 1
 582 269 l 1
 582 224 l 1
 314 224 l 1
45 179 m 1
 45 224 l 1
 179 224 l 1
 179 179 l 1
 45 179 l 1
358 179 m 1
 358 224 l 1
 538 224 l 1
 538 179 l 1
 358 179 l 1
EndSplineSet
EndChar

StartChar: exclamdown
Encoding: 161 161 97
Width: 717
Flags: HW
LayerCount: 2
Back
Fore
SplineSet
269 582 m 1
 269 627 l 1
 448 627 l 1
 448 582 l 1
 269 582 l 1
269 538 m 1
 269 582 l 1
 448 582 l 1
 448 538 l 1
 269 538 l 1
269 493 m 1
 269 538 l 1
 448 538 l 1
 448 493 l 1
 269 493 l 1
269 448 m 1
 269 493 l 1
 448 493 l 1
 448 448 l 1
 269 448 l 1
314 314 m 1
 314 358 l 1
 448 358 l 1
 448 314 l 1
 314 314 l 1
314 269 m 1
 314 314 l 1
 448 314 l 1
 448 269 l 1
 314 269 l 1
314 224 m 1
 314 269 l 1
 448 269 l 1
 448 224 l 1
 314 224 l 1
314 179 m 1
 314 224 l 1
 448 224 l 1
 448 179 l 1
 314 179 l 1
269 134 m 1
 269 179 l 1
 448 179 l 1
 448 134 l 1
 269 134 l 1
269 90 m 1
 269 134 l 1
 448 134 l 1
 448 90 l 1
 269 90 l 1
269 45 m 1
 269 90 l 1
 448 90 l 1
 448 45 l 1
 269 45 l 1
269 0 m 1
 269 45 l 1
 448 45 l 1
 448 0 l 1
 269 0 l 1
269 -45 m 1
 269 0 l 1
 448 0 l 1
 448 -45 l 1
 269 -45 l 1
269 -90 m 1
 269 -45 l 1
 448 -45 l 1
 448 -90 l 1
 269 -90 l 1
269 -134 m 1
 269 -90 l 1
 448 -90 l 1
 448 -134 l 1
 269 -134 l 1
269 -179 m 1
 269 -134 l 1
 448 -134 l 1
 448 -179 l 1
 269 -179 l 1
269 -224 m 1
 269 -179 l 1
 448 -179 l 1
 448 -224 l 1
 269 -224 l 1
EndSplineSet
EndChar

StartChar: cent
Encoding: 162 162 98
Width: 717
Flags: HW
LayerCount: 2
Back
Fore
SplineSet
358 806 m 1
 358 851 l 1
 493 851 l 1
 493 806 l 1
 358 806 l 1
358 762 m 1
 358 806 l 1
 493 806 l 1
 493 762 l 1
 358 762 l 1
314 717 m 1
 314 762 l 1
 493 762 l 1
 493 717 l 1
 314 717 l 1
224 672 m 1
 224 717 l 1
 627 717 l 1
 627 672 l 1
 224 672 l 1
179 627 m 1
 179 672 l 1
 627 672 l 1
 627 627 l 1
 179 627 l 1
134 582 m 1
 134 627 l 1
 627 627 l 1
 627 582 l 1
 134 582 l 1
134 538 m 1
 134 582 l 1
 358 582 l 1
 358 538 l 1
 134 538 l 1
90 493 m 1
 90 538 l 1
 314 538 l 1
 314 493 l 1
 90 493 l 1
90 448 m 1
 90 493 l 1
 269 493 l 1
 269 448 l 1
 90 448 l 1
90 403 m 1
 90 448 l 1
 269 448 l 1
 269 403 l 1
 90 403 l 1
90 358 m 1
 90 403 l 1
 269 403 l 1
 269 358 l 1
 90 358 l 1
90 314 m 1
 90 358 l 1
 314 358 l 1
 314 314 l 1
 90 314 l 1
134 269 m 1
 134 314 l 1
 358 314 l 1
 358 269 l 1
 134 269 l 1
134 224 m 1
 134 269 l 1
 627 269 l 1
 627 224 l 1
 134 224 l 1
179 179 m 1
 179 224 l 1
 627 224 l 1
 627 179 l 1
 179 179 l 1
269 134 m 1
 269 179 l 1
 627 179 l 1
 627 134 l 1
 269 134 l 1
358 90 m 1
 358 134 l 1
 493 134 l 1
 493 90 l 1
 358 90 l 1
358 45 m 1
 358 90 l 1
 493 90 l 1
 493 45 l 1
 358 45 l 1
358 0 m 1
 358 45 l 1
 493 45 l 1
 493 0 l 1
 358 0 l 1
EndSplineSet
EndChar

StartChar: sterling
Encoding: 163 163 99
Width: 717
Flags: HW
LayerCount: 2
Back
Fore
SplineSet
314 806 m 1
 314 851 l 1
 627 851 l 1
 627 806 l 1
 314 806 l 1
269 762 m 1
 269 806 l 1
 627 806 l 1
 627 762 l 1
 269 762 l 1
224 717 m 1
 224 762 l 1
 627 762 l 1
 627 717 l 1
 224 717 l 1
224 672 m 1
 224 717 l 1
 403 717 l 1
 403 672 l 1
 224 672 l 1
582 672 m 1
 582 717 l 1
 627 717 l 1
 627 672 l 1
 582 672 l 1
224 627 m 1
 224 672 l 1
 403 672 l 1
 403 627 l 1
 224 627 l 1
224 582 m 1
 224 627 l 1
 403 627 l 1
 403 582 l 1
 224 582 l 1
224 538 m 1
 224 582 l 1
 403 582 l 1
 403 538 l 1
 224 538 l 1
224 493 m 1
 224 538 l 1
 403 538 l 1
 403 493 l 1
 224 493 l 1
134 448 m 1
 134 493 l 1
 538 493 l 1
 538 448 l 1
 134 448 l 1
134 403 m 1
 134 448 l 1
 538 448 l 1
 538 403 l 1
 134 403 l 1
134 358 m 1
 134 403 l 1
 538 403 l 1
 538 358 l 1
 134 358 l 1
224 314 m 1
 224 358 l 1
 403 358 l 1
 403 314 l 1
 224 314 l 1
224 269 m 1
 224 314 l 1
 403 314 l 1
 403 269 l 1
 224 269 l 1
224 224 m 1
 224 269 l 1
 403 269 l 1
 403 224 l 1
 224 224 l 1
224 179 m 1
 224 224 l 1
 358 224 l 1
 358 179 l 1
 224 179 l 1
224 134 m 1
 224 179 l 1
 314 179 l 1
 314 134 l 1
 224 134 l 1
134 90 m 1
 134 134 l 1
 627 134 l 1
 627 90 l 1
 134 90 l 1
134 45 m 1
 134 90 l 1
 627 90 l 1
 627 45 l 1
 134 45 l 1
134 0 m 1
 134 45 l 1
 627 45 l 1
 627 0 l 1
 134 0 l 1
EndSplineSet
EndChar

StartChar: currency
Encoding: 164 164 100
Width: 717
Flags: HW
LayerCount: 2
Back
Fore
SplineSet
90 717 m 1
 90 762 l 1
 179 762 l 1
 179 717 l 1
 90 717 l 1
538 717 m 1
 538 762 l 1
 627 762 l 1
 627 717 l 1
 538 717 l 1
45 672 m 1
 45 717 l 1
 672 717 l 1
 672 672 l 1
 45 672 l 1
45 627 m 1
 45 672 l 1
 627 672 l 1
 627 627 l 1
 45 627 l 1
90 582 m 1
 90 627 l 1
 627 627 l 1
 627 582 l 1
 90 582 l 1
90 538 m 1
 90 582 l 1
 269 582 l 1
 269 538 l 1
 90 538 l 1
403 538 m 1
 403 582 l 1
 582 582 l 1
 582 538 l 1
 403 538 l 1
90 493 m 1
 90 538 l 1
 224 538 l 1
 224 493 l 1
 90 493 l 1
448 493 m 1
 448 538 l 1
 627 538 l 1
 627 493 l 1
 448 493 l 1
90 448 m 1
 90 493 l 1
 224 493 l 1
 224 448 l 1
 90 448 l 1
493 448 m 1
 493 493 l 1
 627 493 l 1
 627 448 l 1
 493 448 l 1
90 403 m 1
 90 448 l 1
 224 448 l 1
 224 403 l 1
 90 403 l 1
493 403 m 1
 493 448 l 1
 627 448 l 1
 627 403 l 1
 493 403 l 1
90 358 m 1
 90 403 l 1
 224 403 l 1
 224 358 l 1
 90 358 l 1
493 358 m 1
 493 403 l 1
 627 403 l 1
 627 358 l 1
 493 358 l 1
90 314 m 1
 90 358 l 1
 224 358 l 1
 224 314 l 1
 90 314 l 1
448 314 m 1
 448 358 l 1
 627 358 l 1
 627 314 l 1
 448 314 l 1
90 269 m 1
 90 314 l 1
 269 314 l 1
 269 269 l 1
 90 269 l 1
448 269 m 1
 448 314 l 1
 582 314 l 1
 582 269 l 1
 448 269 l 1
90 224 m 1
 90 269 l 1
 627 269 l 1
 627 224 l 1
 90 224 l 1
45 179 m 1
 45 224 l 1
 672 224 l 1
 672 179 l 1
 45 179 l 1
45 134 m 1
 45 179 l 1
 627 179 l 1
 627 134 l 1
 45 134 l 1
90 90 m 1
 90 134 l 1
 179 134 l 1
 179 90 l 1
 90 90 l 1
538 90 m 1
 538 134 l 1
 627 134 l 1
 627 90 l 1
 538 90 l 1
EndSplineSet
EndChar

StartChar: yen
Encoding: 165 165 101
Width: 717
Flags: HW
LayerCount: 2
Back
Fore
SplineSet
0 806 m 1
 0 851 l 1
 224 851 l 1
 224 806 l 1
 0 806 l 1
538 806 m 1
 538 851 l 1
 717 851 l 1
 717 806 l 1
 538 806 l 1
45 762 m 1
 45 806 l 1
 269 806 l 1
 269 762 l 1
 45 762 l 1
493 762 m 1
 493 806 l 1
 672 806 l 1
 672 762 l 1
 493 762 l 1
90 717 m 1
 90 762 l 1
 314 762 l 1
 314 717 l 1
 90 717 l 1
493 717 m 1
 493 762 l 1
 627 762 l 1
 627 717 l 1
 493 717 l 1
90 672 m 1
 90 717 l 1
 358 717 l 1
 358 672 l 1
 90 672 l 1
448 672 m 1
 448 717 l 1
 627 717 l 1
 627 672 l 1
 448 672 l 1
134 627 m 1
 134 672 l 1
 358 672 l 1
 358 627 l 1
 134 627 l 1
403 627 m 1
 403 672 l 1
 582 672 l 1
 582 627 l 1
 403 627 l 1
179 582 m 1
 179 627 l 1
 538 627 l 1
 538 582 l 1
 179 582 l 1
224 538 m 1
 224 582 l 1
 493 582 l 1
 493 538 l 1
 224 538 l 1
224 493 m 1
 224 538 l 1
 493 538 l 1
 493 493 l 1
 224 493 l 1
134 448 m 1
 134 493 l 1
 582 493 l 1
 582 448 l 1
 134 448 l 1
134 403 m 1
 134 448 l 1
 582 448 l 1
 582 403 l 1
 134 403 l 1
134 358 m 1
 134 403 l 1
 582 403 l 1
 582 358 l 1
 134 358 l 1
269 314 m 1
 269 358 l 1
 448 358 l 1
 448 314 l 1
 269 314 l 1
134 269 m 1
 134 314 l 1
 582 314 l 1
 582 269 l 1
 134 269 l 1
134 224 m 1
 134 269 l 1
 582 269 l 1
 582 224 l 1
 134 224 l 1
134 179 m 1
 134 224 l 1
 582 224 l 1
 582 179 l 1
 134 179 l 1
269 134 m 1
 269 179 l 1
 448 179 l 1
 448 134 l 1
 269 134 l 1
269 90 m 1
 269 134 l 1
 448 134 l 1
 448 90 l 1
 269 90 l 1
269 45 m 1
 269 90 l 1
 448 90 l 1
 448 45 l 1
 269 45 l 1
269 0 m 1
 269 45 l 1
 448 45 l 1
 448 0 l 1
 269 0 l 1
EndSplineSet
EndChar

StartChar: brokenbar
Encoding: 166 166 102
Width: 717
Flags: HW
LayerCount: 2
Back
Fore
SplineSet
269 851 m 1
 269 896 l 1
 403 896 l 1
 403 851 l 1
 269 851 l 1
269 806 m 1
 269 851 l 1
 403 851 l 1
 403 806 l 1
 269 806 l 1
269 762 m 1
 269 806 l 1
 403 806 l 1
 403 762 l 1
 269 762 l 1
269 717 m 1
 269 762 l 1
 403 762 l 1
 403 717 l 1
 269 717 l 1
269 672 m 1
 269 717 l 1
 403 717 l 1
 403 672 l 1
 269 672 l 1
269 627 m 1
 269 672 l 1
 403 672 l 1
 403 627 l 1
 269 627 l 1
269 582 m 1
 269 627 l 1
 403 627 l 1
 403 582 l 1
 269 582 l 1
269 538 m 1
 269 582 l 1
 403 582 l 1
 403 538 l 1
 269 538 l 1
269 493 m 1
 269 538 l 1
 403 538 l 1
 403 493 l 1
 269 493 l 1
269 179 m 1
 269 224 l 1
 403 224 l 1
 403 179 l 1
 269 179 l 1
269 134 m 1
 269 179 l 1
 403 179 l 1
 403 134 l 1
 269 134 l 1
269 90 m 1
 269 134 l 1
 403 134 l 1
 403 90 l 1
 269 90 l 1
269 45 m 1
 269 90 l 1
 403 90 l 1
 403 45 l 1
 269 45 l 1
269 0 m 1
 269 45 l 1
 403 45 l 1
 403 0 l 1
 269 0 l 1
269 -45 m 1
 269 0 l 1
 403 0 l 1
 403 -45 l 1
 269 -45 l 1
269 -90 m 1
 269 -45 l 1
 403 -45 l 1
 403 -90 l 1
 269 -90 l 1
269 -134 m 1
 269 -90 l 1
 403 -90 l 1
 403 -134 l 1
 269 -134 l 1
269 -179 m 1
 269 -134 l 1
 403 -134 l 1
 403 -179 l 1
 269 -179 l 1
EndSplineSet
EndChar

StartChar: section
Encoding: 167 167 103
Width: 717
Flags: HW
LayerCount: 2
Back
Fore
SplineSet
224 806 m 1
 224 851 l 1
 493 851 l 1
 493 806 l 1
 224 806 l 1
134 762 m 1
 134 806 l 1
 538 806 l 1
 538 762 l 1
 134 762 l 1
90 717 m 1
 90 762 l 1
 538 762 l 1
 538 717 l 1
 90 717 l 1
90 672 m 1
 90 717 l 1
 269 717 l 1
 269 672 l 1
 90 672 l 1
493 672 m 1
 493 717 l 1
 538 717 l 1
 538 672 l 1
 493 672 l 1
90 627 m 1
 90 672 l 1
 269 672 l 1
 269 627 l 1
 90 627 l 1
90 582 m 1
 90 627 l 1
 269 627 l 1
 269 582 l 1
 90 582 l 1
134 538 m 1
 134 582 l 1
 358 582 l 1
 358 538 l 1
 134 538 l 1
179 493 m 1
 179 538 l 1
 448 538 l 1
 448 493 l 1
 179 493 l 1
134 448 m 1
 134 493 l 1
 493 493 l 1
 493 448 l 1
 134 448 l 1
134 403 m 1
 134 448 l 1
 269 448 l 1
 269 403 l 1
 134 403 l 1
314 403 m 1
 314 448 l 1
 538 448 l 1
 538 403 l 1
 314 403 l 1
90 358 m 1
 90 403 l 1
 224 403 l 1
 224 358 l 1
 90 358 l 1
403 358 m 1
 403 403 l 1
 582 403 l 1
 582 358 l 1
 403 358 l 1
90 314 m 1
 90 358 l 1
 224 358 l 1
 224 314 l 1
 90 314 l 1
448 314 m 1
 448 358 l 1
 582 358 l 1
 582 314 l 1
 448 314 l 1
90 269 m 1
 90 314 l 1
 269 314 l 1
 269 269 l 1
 90 269 l 1
448 269 m 1
 448 314 l 1
 582 314 l 1
 582 269 l 1
 448 269 l 1
90 224 m 1
 90 269 l 1
 358 269 l 1
 358 224 l 1
 90 224 l 1
448 224 m 1
 448 269 l 1
 582 269 l 1
 582 224 l 1
 448 224 l 1
134 179 m 1
 134 224 l 1
 538 224 l 1
 538 179 l 1
 134 179 l 1
134 134 m 1
 134 179 l 1
 493 179 l 1
 493 134 l 1
 134 134 l 1
224 90 m 1
 224 134 l 1
 493 134 l 1
 493 90 l 1
 224 90 l 1
314 45 m 1
 314 90 l 1
 538 90 l 1
 538 45 l 1
 314 45 l 1
358 0 m 1
 358 45 l 1
 582 45 l 1
 582 0 l 1
 358 0 l 1
403 -45 m 1
 403 0 l 1
 582 0 l 1
 582 -45 l 1
 403 -45 l 1
90 -90 m 1
 90 -45 l 1
 179 -45 l 1
 179 -90 l 1
 90 -90 l 1
358 -90 m 1
 358 -45 l 1
 582 -45 l 1
 582 -90 l 1
 358 -90 l 1
90 -134 m 1
 90 -90 l 1
 538 -90 l 1
 538 -134 l 1
 90 -134 l 1
90 -179 m 1
 90 -134 l 1
 538 -134 l 1
 538 -179 l 1
 90 -179 l 1
90 -224 m 1
 90 -179 l 1
 448 -179 l 1
 448 -224 l 1
 90 -224 l 1
EndSplineSet
EndChar

StartChar: dieresis
Encoding: 168 168 104
Width: 717
Flags: HW
LayerCount: 2
Back
Fore
SplineSet
179 806 m 1
 179 851 l 1
 314 851 l 1
 314 806 l 1
 179 806 l 1
403 806 m 1
 403 851 l 1
 538 851 l 1
 538 806 l 1
 403 806 l 1
179 762 m 1
 179 806 l 1
 314 806 l 1
 314 762 l 1
 179 762 l 1
403 762 m 1
 403 806 l 1
 538 806 l 1
 538 762 l 1
 403 762 l 1
179 717 m 1
 179 762 l 1
 314 762 l 1
 314 717 l 1
 179 717 l 1
403 717 m 1
 403 762 l 1
 538 762 l 1
 538 717 l 1
 403 717 l 1
EndSplineSet
EndChar

StartChar: copyright
Encoding: 169 169 105
Width: 717
Flags: HW
LayerCount: 2
Back
Fore
SplineSet
224 806 m 1
 224 851 l 1
 448 851 l 1
 448 806 l 1
 224 806 l 1
134 762 m 1
 134 806 l 1
 538 806 l 1
 538 762 l 1
 134 762 l 1
90 717 m 1
 90 762 l 1
 582 762 l 1
 582 717 l 1
 90 717 l 1
45 672 m 1
 45 717 l 1
 224 717 l 1
 224 672 l 1
 45 672 l 1
448 672 m 1
 448 717 l 1
 627 717 l 1
 627 672 l 1
 448 672 l 1
45 627 m 1
 45 672 l 1
 179 672 l 1
 179 627 l 1
 45 627 l 1
493 627 m 1
 493 672 l 1
 627 672 l 1
 627 627 l 1
 493 627 l 1
0 582 m 1
 0 627 l 1
 134 627 l 1
 134 582 l 1
 0 582 l 1
269 582 m 1
 269 627 l 1
 448 627 l 1
 448 582 l 1
 269 582 l 1
538 582 m 1
 538 627 l 1
 672 627 l 1
 672 582 l 1
 538 582 l 1
0 538 m 1
 0 582 l 1
 134 582 l 1
 134 538 l 1
 0 538 l 1
224 538 m 1
 224 582 l 1
 448 582 l 1
 448 538 l 1
 224 538 l 1
538 538 m 1
 538 582 l 1
 672 582 l 1
 672 538 l 1
 538 538 l 1
0 493 m 1
 0 538 l 1
 134 538 l 1
 134 493 l 1
 0 493 l 1
179 493 m 1
 179 538 l 1
 314 538 l 1
 314 493 l 1
 179 493 l 1
403 493 m 1
 403 538 l 1
 448 538 l 1
 448 493 l 1
 403 493 l 1
538 493 m 1
 538 538 l 1
 672 538 l 1
 672 493 l 1
 538 493 l 1
0 448 m 1
 0 493 l 1
 134 493 l 1
 134 448 l 1
 0 448 l 1
179 448 m 1
 179 493 l 1
 314 493 l 1
 314 448 l 1
 179 448 l 1
538 448 m 1
 538 493 l 1
 672 493 l 1
 672 448 l 1
 538 448 l 1
0 403 m 1
 0 448 l 1
 134 448 l 1
 134 403 l 1
 0 403 l 1
179 403 m 1
 179 448 l 1
 314 448 l 1
 314 403 l 1
 179 403 l 1
538 403 m 1
 538 448 l 1
 672 448 l 1
 672 403 l 1
 538 403 l 1
0 358 m 1
 0 403 l 1
 134 403 l 1
 134 358 l 1
 0 358 l 1
179 358 m 1
 179 403 l 1
 314 403 l 1
 314 358 l 1
 179 358 l 1
538 358 m 1
 538 403 l 1
 672 403 l 1
 672 358 l 1
 538 358 l 1
0 314 m 1
 0 358 l 1
 134 358 l 1
 134 314 l 1
 0 314 l 1
179 314 m 1
 179 358 l 1
 314 358 l 1
 314 314 l 1
 179 314 l 1
403 314 m 1
 403 358 l 1
 448 358 l 1
 448 314 l 1
 403 314 l 1
538 314 m 1
 538 358 l 1
 672 358 l 1
 672 314 l 1
 538 314 l 1
0 269 m 1
 0 314 l 1
 134 314 l 1
 134 269 l 1
 0 269 l 1
224 269 m 1
 224 314 l 1
 448 314 l 1
 448 269 l 1
 224 269 l 1
538 269 m 1
 538 314 l 1
 672 314 l 1
 672 269 l 1
 538 269 l 1
0 224 m 1
 0 269 l 1
 179 269 l 1
 179 224 l 1
 0 224 l 1
269 224 m 1
 269 269 l 1
 448 269 l 1
 448 224 l 1
 269 224 l 1
493 224 m 1
 493 269 l 1
 672 269 l 1
 672 224 l 1
 493 224 l 1
45 179 m 1
 45 224 l 1
 179 224 l 1
 179 179 l 1
 45 179 l 1
493 179 m 1
 493 224 l 1
 627 224 l 1
 627 179 l 1
 493 179 l 1
45 134 m 1
 45 179 l 1
 224 179 l 1
 224 134 l 1
 45 134 l 1
448 134 m 1
 448 179 l 1
 627 179 l 1
 627 134 l 1
 448 134 l 1
90 90 m 1
 90 134 l 1
 582 134 l 1
 582 90 l 1
 90 90 l 1
134 45 m 1
 134 90 l 1
 538 90 l 1
 538 45 l 1
 134 45 l 1
224 0 m 1
 224 45 l 1
 448 45 l 1
 448 0 l 1
 224 0 l 1
EndSplineSet
EndChar

StartChar: ordfeminine
Encoding: 170 170 106
Width: 717
Flags: HW
LayerCount: 2
Back
Fore
SplineSet
134 806 m 1
 134 851 l 1
 493 851 l 1
 493 806 l 1
 134 806 l 1
90 762 m 1
 90 806 l 1
 582 806 l 1
 582 762 l 1
 90 762 l 1
90 717 m 1
 90 762 l 1
 582 762 l 1
 582 717 l 1
 90 717 l 1
90 672 m 1
 90 717 l 1
 179 717 l 1
 179 672 l 1
 90 672 l 1
448 672 m 1
 448 717 l 1
 582 717 l 1
 582 672 l 1
 448 672 l 1
179 627 m 1
 179 672 l 1
 582 672 l 1
 582 627 l 1
 179 627 l 1
134 582 m 1
 134 627 l 1
 582 627 l 1
 582 582 l 1
 134 582 l 1
90 538 m 1
 90 582 l 1
 224 582 l 1
 224 538 l 1
 90 538 l 1
448 538 m 1
 448 582 l 1
 582 582 l 1
 582 538 l 1
 448 538 l 1
90 493 m 1
 90 538 l 1
 627 538 l 1
 627 493 l 1
 90 493 l 1
90 448 m 1
 90 493 l 1
 627 493 l 1
 627 448 l 1
 90 448 l 1
134 403 m 1
 134 448 l 1
 358 448 l 1
 358 403 l 1
 134 403 l 1
448 403 m 1
 448 448 l 1
 627 448 l 1
 627 403 l 1
 448 403 l 1
EndSplineSet
EndChar

StartChar: guillemotleft
Encoding: 171 171 107
Width: 717
Flags: HW
LayerCount: 2
Back
Fore
SplineSet
269 538 m 1
 269 582 l 1
 314 582 l 1
 314 538 l 1
 269 538 l 1
582 538 m 1
 582 582 l 1
 627 582 l 1
 627 538 l 1
 582 538 l 1
224 493 m 1
 224 538 l 1
 358 538 l 1
 358 493 l 1
 224 493 l 1
538 493 m 1
 538 538 l 1
 672 538 l 1
 672 493 l 1
 538 493 l 1
179 448 m 1
 179 493 l 1
 403 493 l 1
 403 448 l 1
 179 448 l 1
493 448 m 1
 493 493 l 1
 627 493 l 1
 627 448 l 1
 493 448 l 1
179 403 m 1
 179 448 l 1
 314 448 l 1
 314 403 l 1
 179 403 l 1
448 403 m 1
 448 448 l 1
 627 448 l 1
 627 403 l 1
 448 403 l 1
134 358 m 1
 134 403 l 1
 314 403 l 1
 314 358 l 1
 134 358 l 1
403 358 m 1
 403 403 l 1
 582 403 l 1
 582 358 l 1
 403 358 l 1
90 314 m 1
 90 358 l 1
 269 358 l 1
 269 314 l 1
 90 314 l 1
314 314 m 1
 314 358 l 1
 538 358 l 1
 538 314 l 1
 314 314 l 1
45 269 m 1
 45 314 l 1
 269 314 l 1
 269 269 l 1
 45 269 l 1
358 269 m 1
 358 314 l 1
 538 314 l 1
 538 269 l 1
 358 269 l 1
90 224 m 1
 90 269 l 1
 314 269 l 1
 314 224 l 1
 90 224 l 1
403 224 m 1
 403 269 l 1
 582 269 l 1
 582 224 l 1
 403 224 l 1
134 179 m 1
 134 224 l 1
 314 224 l 1
 314 179 l 1
 134 179 l 1
448 179 m 1
 448 224 l 1
 627 224 l 1
 627 179 l 1
 448 179 l 1
179 134 m 1
 179 179 l 1
 358 179 l 1
 358 134 l 1
 179 134 l 1
493 134 m 1
 493 179 l 1
 627 179 l 1
 627 134 l 1
 493 134 l 1
224 90 m 1
 224 134 l 1
 358 134 l 1
 358 90 l 1
 224 90 l 1
538 90 m 1
 538 134 l 1
 672 134 l 1
 672 90 l 1
 538 90 l 1
269 45 m 1
 269 90 l 1
 314 90 l 1
 314 45 l 1
 269 45 l 1
582 45 m 1
 582 90 l 1
 627 90 l 1
 627 45 l 1
 582 45 l 1
EndSplineSet
EndChar

StartChar: logicalnot
Encoding: 172 172 108
Width: 717
Flags: HW
LayerCount: 2
Back
Fore
SplineSet
45 358 m 1
 45 403 l 1
 627 403 l 1
 627 358 l 1
 45 358 l 1
45 314 m 1
 45 358 l 1
 627 358 l 1
 627 314 l 1
 45 314 l 1
45 269 m 1
 45 314 l 1
 627 314 l 1
 627 269 l 1
 45 269 l 1
493 224 m 1
 493 269 l 1
 627 269 l 1
 627 224 l 1
 493 224 l 1
493 179 m 1
 493 224 l 1
 627 224 l 1
 627 179 l 1
 493 179 l 1
493 134 m 1
 493 179 l 1
 627 179 l 1
 627 134 l 1
 493 134 l 1
493 90 m 1
 493 134 l 1
 627 134 l 1
 627 90 l 1
 493 90 l 1
EndSplineSet
EndChar

StartChar: hyphen
Encoding: 45 45 109
Width: 717
Flags: HW
LayerCount: 2
Back
Fore
SplineSet
45 314 m 1
 45 358 l 1
 627 358 l 1
 627 314 l 1
 45 314 l 1
45 269 m 1
 45 314 l 1
 627 314 l 1
 627 269 l 1
 45 269 l 1
45 224 m 1
 45 269 l 1
 627 269 l 1
 627 224 l 1
 45 224 l 1
EndSplineSet
EndChar

StartChar: registered
Encoding: 174 174 110
Width: 717
Flags: HW
LayerCount: 2
Back
Fore
SplineSet
224 806 m 1
 224 851 l 1
 448 851 l 1
 448 806 l 1
 224 806 l 1
134 762 m 1
 134 806 l 1
 493 806 l 1
 493 762 l 1
 134 762 l 1
90 717 m 1
 90 762 l 1
 538 762 l 1
 538 717 l 1
 90 717 l 1
90 672 m 1
 90 717 l 1
 269 717 l 1
 269 672 l 1
 90 672 l 1
403 672 m 1
 403 717 l 1
 582 717 l 1
 582 672 l 1
 403 672 l 1
45 627 m 1
 45 672 l 1
 627 672 l 1
 627 627 l 1
 45 627 l 1
45 582 m 1
 45 627 l 1
 179 627 l 1
 179 582 l 1
 45 582 l 1
224 582 m 1
 224 627 l 1
 627 627 l 1
 627 582 l 1
 224 582 l 1
45 538 m 1
 45 582 l 1
 179 582 l 1
 179 538 l 1
 45 538 l 1
224 538 m 1
 224 582 l 1
 358 582 l 1
 358 538 l 1
 224 538 l 1
403 538 m 1
 403 582 l 1
 627 582 l 1
 627 538 l 1
 403 538 l 1
45 493 m 1
 45 538 l 1
 179 538 l 1
 179 493 l 1
 45 493 l 1
224 493 m 1
 224 538 l 1
 627 538 l 1
 627 493 l 1
 224 493 l 1
45 448 m 1
 45 493 l 1
 179 493 l 1
 179 448 l 1
 45 448 l 1
224 448 m 1
 224 493 l 1
 448 493 l 1
 448 448 l 1
 224 448 l 1
493 448 m 1
 493 493 l 1
 627 493 l 1
 627 448 l 1
 493 448 l 1
45 403 m 1
 45 448 l 1
 627 448 l 1
 627 403 l 1
 45 403 l 1
90 358 m 1
 90 403 l 1
 582 403 l 1
 582 358 l 1
 90 358 l 1
90 314 m 1
 90 358 l 1
 538 358 l 1
 538 314 l 1
 90 314 l 1
134 269 m 1
 134 314 l 1
 493 314 l 1
 493 269 l 1
 134 269 l 1
224 224 m 1
 224 269 l 1
 448 269 l 1
 448 224 l 1
 224 224 l 1
EndSplineSet
EndChar

StartChar: degree
Encoding: 176 176 112
Width: 717
Flags: HW
LayerCount: 2
Back
Fore
SplineSet
269 806 m 1
 269 851 l 1
 403 851 l 1
 403 806 l 1
 269 806 l 1
224 762 m 1
 224 806 l 1
 448 806 l 1
 448 762 l 1
 224 762 l 1
224 717 m 1
 224 762 l 1
 314 762 l 1
 314 717 l 1
 224 717 l 1
358 717 m 1
 358 762 l 1
 448 762 l 1
 448 717 l 1
 358 717 l 1
224 672 m 1
 224 717 l 1
 448 717 l 1
 448 672 l 1
 224 672 l 1
269 627 m 1
 269 672 l 1
 403 672 l 1
 403 627 l 1
 269 627 l 1
EndSplineSet
EndChar

StartChar: plusminus
Encoding: 177 177 113
Width: 717
Flags: HW
LayerCount: 2
Back
Fore
SplineSet
269 582 m 1
 269 627 l 1
 403 627 l 1
 403 582 l 1
 269 582 l 1
269 538 m 1
 269 582 l 1
 403 582 l 1
 403 538 l 1
 269 538 l 1
269 493 m 1
 269 538 l 1
 403 538 l 1
 403 493 l 1
 269 493 l 1
45 448 m 1
 45 493 l 1
 627 493 l 1
 627 448 l 1
 45 448 l 1
45 403 m 1
 45 448 l 1
 627 448 l 1
 627 403 l 1
 45 403 l 1
45 358 m 1
 45 403 l 1
 627 403 l 1
 627 358 l 1
 45 358 l 1
269 314 m 1
 269 358 l 1
 403 358 l 1
 403 314 l 1
 269 314 l 1
269 269 m 1
 269 314 l 1
 403 314 l 1
 403 269 l 1
 269 269 l 1
269 224 m 1
 269 269 l 1
 403 269 l 1
 403 224 l 1
 269 224 l 1
45 90 m 1
 45 134 l 1
 627 134 l 1
 627 90 l 1
 45 90 l 1
45 45 m 1
 45 90 l 1
 627 90 l 1
 627 45 l 1
 45 45 l 1
45 0 m 1
 45 45 l 1
 627 45 l 1
 627 0 l 1
 45 0 l 1
EndSplineSet
EndChar

StartChar: twosuperior
Encoding: 178 178 114
Width: 717
Flags: HW
LayerCount: 2
Back
Fore
SplineSet
-134 806 m 1
 -134 851 l 1
 90 851 l 1
 90 806 l 1
 -134 806 l 1
-134 762 m 1
 -134 806 l 1
 -90 806 l 1
 -90 762 l 1
 -134 762 l 1
45 762 m 1
 45 806 l 1
 134 806 l 1
 134 762 l 1
 45 762 l 1
45 717 m 1
 45 762 l 1
 134 762 l 1
 134 717 l 1
 45 717 l 1
45 672 m 1
 45 717 l 1
 134 717 l 1
 134 672 l 1
 45 672 l 1
0 627 m 1
 0 672 l 1
 90 672 l 1
 90 627 l 1
 0 627 l 1
-45 582 m 1
 -45 627 l 1
 45 627 l 1
 45 582 l 1
 -45 582 l 1
-90 538 m 1
 -90 582 l 1
 0 582 l 1
 0 538 l 1
 -90 538 l 1
-134 493 m 1
 -134 538 l 1
 -45 538 l 1
 -45 493 l 1
 -134 493 l 1
-134 448 m 1
 -134 493 l 1
 134 493 l 1
 134 448 l 1
 -134 448 l 1
EndSplineSet
EndChar

StartChar: threesuperior
Encoding: 179 179 115
Width: 717
Flags: HW
LayerCount: 2
Back
Fore
SplineSet
-134 806 m 1
 -134 851 l 1
 45 851 l 1
 45 806 l 1
 -134 806 l 1
0 762 m 1
 0 806 l 1
 90 806 l 1
 90 762 l 1
 0 762 l 1
0 717 m 1
 0 762 l 1
 90 762 l 1
 90 717 l 1
 0 717 l 1
-45 672 m 1
 -45 717 l 1
 45 717 l 1
 45 672 l 1
 -45 672 l 1
-90 627 m 1
 -90 672 l 1
 45 672 l 1
 45 627 l 1
 -90 627 l 1
-45 582 m 1
 -45 627 l 1
 90 627 l 1
 90 582 l 1
 -45 582 l 1
0 538 m 1
 0 582 l 1
 90 582 l 1
 90 538 l 1
 0 538 l 1
0 493 m 1
 0 538 l 1
 90 538 l 1
 90 493 l 1
 0 493 l 1
-134 448 m 1
 -134 493 l 1
 45 493 l 1
 45 448 l 1
 -134 448 l 1
EndSplineSet
EndChar

StartChar: acute
Encoding: 180 180 116
Width: 717
Flags: HW
LayerCount: 2
Back
Fore
SplineSet
314 851 m 1
 314 896 l 1
 493 896 l 1
 493 851 l 1
 314 851 l 1
269 806 m 1
 269 851 l 1
 448 851 l 1
 448 806 l 1
 269 806 l 1
269 762 m 1
 269 806 l 1
 403 806 l 1
 403 762 l 1
 269 762 l 1
224 717 m 1
 224 762 l 1
 358 762 l 1
 358 717 l 1
 224 717 l 1
EndSplineSet
EndChar

StartChar: paragraph
Encoding: 182 182 118
Width: 717
Flags: HW
LayerCount: 2
Back
Fore
SplineSet
179 806 m 1
 179 851 l 1
 582 851 l 1
 582 806 l 1
 179 806 l 1
134 762 m 1
 134 806 l 1
 582 806 l 1
 582 762 l 1
 134 762 l 1
90 717 m 1
 90 762 l 1
 582 762 l 1
 582 717 l 1
 90 717 l 1
90 672 m 1
 90 717 l 1
 582 717 l 1
 582 672 l 1
 90 672 l 1
90 627 m 1
 90 672 l 1
 582 672 l 1
 582 627 l 1
 90 627 l 1
90 582 m 1
 90 627 l 1
 582 627 l 1
 582 582 l 1
 90 582 l 1
90 538 m 1
 90 582 l 1
 582 582 l 1
 582 538 l 1
 90 538 l 1
134 493 m 1
 134 538 l 1
 582 538 l 1
 582 493 l 1
 134 493 l 1
179 448 m 1
 179 493 l 1
 582 493 l 1
 582 448 l 1
 179 448 l 1
269 403 m 1
 269 448 l 1
 582 448 l 1
 582 403 l 1
 269 403 l 1
314 358 m 1
 314 403 l 1
 582 403 l 1
 582 358 l 1
 314 358 l 1
314 314 m 1
 314 358 l 1
 582 358 l 1
 582 314 l 1
 314 314 l 1
314 269 m 1
 314 314 l 1
 582 314 l 1
 582 269 l 1
 314 269 l 1
314 224 m 1
 314 269 l 1
 582 269 l 1
 582 224 l 1
 314 224 l 1
314 179 m 1
 314 224 l 1
 582 224 l 1
 582 179 l 1
 314 179 l 1
314 134 m 1
 314 179 l 1
 582 179 l 1
 582 134 l 1
 314 134 l 1
314 90 m 1
 314 134 l 1
 582 134 l 1
 582 90 l 1
 314 90 l 1
314 45 m 1
 314 90 l 1
 582 90 l 1
 582 45 l 1
 314 45 l 1
314 0 m 1
 314 45 l 1
 582 45 l 1
 582 0 l 1
 314 0 l 1
314 -45 m 1
 314 0 l 1
 582 0 l 1
 582 -45 l 1
 314 -45 l 1
314 -90 m 1
 314 -45 l 1
 582 -45 l 1
 582 -90 l 1
 314 -90 l 1
314 -134 m 1
 314 -90 l 1
 582 -90 l 1
 582 -134 l 1
 314 -134 l 1
314 -179 m 1
 314 -134 l 1
 582 -134 l 1
 582 -179 l 1
 314 -179 l 1
EndSplineSet
EndChar

StartChar: cedilla
Encoding: 184 184 120
Width: 717
Flags: HW
LayerCount: 2
Back
Fore
SplineSet
314 0 m 1
 314 45 l 1
 403 45 l 1
 403 0 l 1
 314 0 l 1
314 -45 m 1
 314 0 l 1
 403 0 l 1
 403 -45 l 1
 314 -45 l 1
269 -90 m 1
 269 -45 l 1
 493 -45 l 1
 493 -90 l 1
 269 -90 l 1
403 -134 m 1
 403 -90 l 1
 493 -90 l 1
 493 -134 l 1
 403 -134 l 1
269 -179 m 1
 269 -134 l 1
 493 -134 l 1
 493 -179 l 1
 269 -179 l 1
269 -224 m 1
 269 -179 l 1
 448 -179 l 1
 448 -224 l 1
 269 -224 l 1
EndSplineSet
EndChar

StartChar: onesuperior
Encoding: 185 185 121
Width: 717
Flags: HW
LayerCount: 2
Back
Fore
SplineSet
-134 806 m 1
 -134 851 l 1
 45 851 l 1
 45 806 l 1
 -134 806 l 1
-45 762 m 1
 -45 806 l 1
 45 806 l 1
 45 762 l 1
 -45 762 l 1
-45 717 m 1
 -45 762 l 1
 45 762 l 1
 45 717 l 1
 -45 717 l 1
-45 672 m 1
 -45 717 l 1
 45 717 l 1
 45 672 l 1
 -45 672 l 1
-45 627 m 1
 -45 672 l 1
 45 672 l 1
 45 627 l 1
 -45 627 l 1
-45 582 m 1
 -45 627 l 1
 45 627 l 1
 45 582 l 1
 -45 582 l 1
-45 538 m 1
 -45 582 l 1
 45 582 l 1
 45 538 l 1
 -45 538 l 1
-45 493 m 1
 -45 538 l 1
 45 538 l 1
 45 493 l 1
 -45 493 l 1
-134 448 m 1
 -134 493 l 1
 134 493 l 1
 134 448 l 1
 -134 448 l 1
EndSplineSet
EndChar

StartChar: ordmasculine
Encoding: 186 186 122
Width: 717
Flags: HW
LayerCount: 2
Back
Fore
SplineSet
224 806 m 1
 224 851 l 1
 493 851 l 1
 493 806 l 1
 224 806 l 1
134 762 m 1
 134 806 l 1
 582 806 l 1
 582 762 l 1
 134 762 l 1
134 717 m 1
 134 762 l 1
 582 762 l 1
 582 717 l 1
 134 717 l 1
90 672 m 1
 90 717 l 1
 269 717 l 1
 269 672 l 1
 90 672 l 1
448 672 m 1
 448 717 l 1
 627 717 l 1
 627 672 l 1
 448 672 l 1
90 627 m 1
 90 672 l 1
 224 672 l 1
 224 627 l 1
 90 627 l 1
493 627 m 1
 493 672 l 1
 627 672 l 1
 627 627 l 1
 493 627 l 1
90 582 m 1
 90 627 l 1
 224 627 l 1
 224 582 l 1
 90 582 l 1
493 582 m 1
 493 627 l 1
 627 627 l 1
 627 582 l 1
 493 582 l 1
90 538 m 1
 90 582 l 1
 269 582 l 1
 269 538 l 1
 90 538 l 1
448 538 m 1
 448 582 l 1
 627 582 l 1
 627 538 l 1
 448 538 l 1
134 493 m 1
 134 538 l 1
 582 538 l 1
 582 493 l 1
 134 493 l 1
134 448 m 1
 134 493 l 1
 582 493 l 1
 582 448 l 1
 134 448 l 1
224 403 m 1
 224 448 l 1
 493 448 l 1
 493 403 l 1
 224 403 l 1
EndSplineSet
EndChar

StartChar: guillemotright
Encoding: 187 187 123
Width: 717
Flags: HW
LayerCount: 2
Back
Fore
SplineSet
134 538 m 1
 134 582 l 1
 179 582 l 1
 179 538 l 1
 134 538 l 1
403 538 m 1
 403 582 l 1
 448 582 l 1
 448 538 l 1
 403 538 l 1
45 493 m 1
 45 538 l 1
 179 538 l 1
 179 493 l 1
 45 493 l 1
358 493 m 1
 358 538 l 1
 493 538 l 1
 493 493 l 1
 358 493 l 1
90 448 m 1
 90 493 l 1
 224 493 l 1
 224 448 l 1
 90 448 l 1
358 448 m 1
 358 493 l 1
 538 493 l 1
 538 448 l 1
 358 448 l 1
90 403 m 1
 90 448 l 1
 269 448 l 1
 269 403 l 1
 90 403 l 1
403 403 m 1
 403 448 l 1
 582 448 l 1
 582 403 l 1
 403 403 l 1
134 358 m 1
 134 403 l 1
 314 403 l 1
 314 358 l 1
 134 358 l 1
403 358 m 1
 403 403 l 1
 627 403 l 1
 627 358 l 1
 403 358 l 1
179 314 m 1
 179 358 l 1
 358 358 l 1
 358 314 l 1
 179 314 l 1
448 314 m 1
 448 358 l 1
 672 358 l 1
 672 314 l 1
 448 314 l 1
179 269 m 1
 179 314 l 1
 403 314 l 1
 403 269 l 1
 179 269 l 1
448 269 m 1
 448 314 l 1
 627 314 l 1
 627 269 l 1
 448 269 l 1
134 224 m 1
 134 269 l 1
 314 269 l 1
 314 224 l 1
 134 224 l 1
403 224 m 1
 403 269 l 1
 582 269 l 1
 582 224 l 1
 403 224 l 1
90 179 m 1
 90 224 l 1
 269 224 l 1
 269 179 l 1
 90 179 l 1
403 179 m 1
 403 224 l 1
 582 224 l 1
 582 179 l 1
 403 179 l 1
90 134 m 1
 90 179 l 1
 224 179 l 1
 224 134 l 1
 90 134 l 1
358 134 m 1
 358 179 l 1
 538 179 l 1
 538 134 l 1
 358 134 l 1
45 90 m 1
 45 134 l 1
 179 134 l 1
 179 90 l 1
 45 90 l 1
314 90 m 1
 314 134 l 1
 493 134 l 1
 493 90 l 1
 314 90 l 1
90 45 m 1
 90 90 l 1
 134 90 l 1
 134 45 l 1
 90 45 l 1
403 45 m 1
 403 90 l 1
 448 90 l 1
 448 45 l 1
 403 45 l 1
EndSplineSet
EndChar

StartChar: onequarter
Encoding: 188 188 124
Width: 717
Flags: HW
LayerCount: 2
Back
Fore
SplineSet
90 806 m 1
 90 851 l 1
 269 851 l 1
 269 806 l 1
 90 806 l 1
627 806 m 1
 627 851 l 1
 806 851 l 1
 806 806 l 1
 627 806 l 1
179 762 m 1
 179 806 l 1
 269 806 l 1
 269 762 l 1
 179 762 l 1
627 762 m 1
 627 806 l 1
 762 806 l 1
 762 762 l 1
 627 762 l 1
179 717 m 1
 179 762 l 1
 269 762 l 1
 269 717 l 1
 179 717 l 1
582 717 m 1
 582 762 l 1
 762 762 l 1
 762 717 l 1
 582 717 l 1
179 672 m 1
 179 717 l 1
 269 717 l 1
 269 672 l 1
 179 672 l 1
538 672 m 1
 538 717 l 1
 717 717 l 1
 717 672 l 1
 538 672 l 1
179 627 m 1
 179 672 l 1
 269 672 l 1
 269 627 l 1
 179 627 l 1
538 627 m 1
 538 672 l 1
 672 672 l 1
 672 627 l 1
 538 627 l 1
179 582 m 1
 179 627 l 1
 269 627 l 1
 269 582 l 1
 179 582 l 1
493 582 m 1
 493 627 l 1
 672 627 l 1
 672 582 l 1
 493 582 l 1
179 538 m 1
 179 582 l 1
 269 582 l 1
 269 538 l 1
 179 538 l 1
448 538 m 1
 448 582 l 1
 627 582 l 1
 627 538 l 1
 448 538 l 1
179 493 m 1
 179 538 l 1
 269 538 l 1
 269 493 l 1
 179 493 l 1
448 493 m 1
 448 538 l 1
 582 538 l 1
 582 493 l 1
 448 493 l 1
90 448 m 1
 90 493 l 1
 358 493 l 1
 358 448 l 1
 90 448 l 1
403 448 m 1
 403 493 l 1
 582 493 l 1
 582 448 l 1
 403 448 l 1
358 403 m 1
 358 448 l 1
 538 448 l 1
 538 403 l 1
 358 403 l 1
314 358 m 1
 314 403 l 1
 493 403 l 1
 493 358 l 1
 314 358 l 1
672 358 m 1
 672 403 l 1
 762 403 l 1
 762 358 l 1
 672 358 l 1
314 314 m 1
 314 358 l 1
 448 358 l 1
 448 314 l 1
 314 314 l 1
627 314 m 1
 627 358 l 1
 762 358 l 1
 762 314 l 1
 627 314 l 1
269 269 m 1
 269 314 l 1
 448 314 l 1
 448 269 l 1
 269 269 l 1
582 269 m 1
 582 314 l 1
 762 314 l 1
 762 269 l 1
 582 269 l 1
224 224 m 1
 224 269 l 1
 403 269 l 1
 403 224 l 1
 224 224 l 1
582 224 m 1
 582 269 l 1
 627 269 l 1
 627 224 l 1
 582 224 l 1
672 224 m 1
 672 269 l 1
 762 269 l 1
 762 224 l 1
 672 224 l 1
224 179 m 1
 224 224 l 1
 358 224 l 1
 358 179 l 1
 224 179 l 1
538 179 m 1
 538 224 l 1
 582 224 l 1
 582 179 l 1
 538 179 l 1
672 179 m 1
 672 224 l 1
 762 224 l 1
 762 179 l 1
 672 179 l 1
179 134 m 1
 179 179 l 1
 358 179 l 1
 358 134 l 1
 179 134 l 1
493 134 m 1
 493 179 l 1
 806 179 l 1
 806 134 l 1
 493 134 l 1
134 90 m 1
 134 134 l 1
 314 134 l 1
 314 90 l 1
 134 90 l 1
493 90 m 1
 493 134 l 1
 806 134 l 1
 806 90 l 1
 493 90 l 1
134 45 m 1
 134 90 l 1
 269 90 l 1
 269 45 l 1
 134 45 l 1
672 45 m 1
 672 90 l 1
 762 90 l 1
 762 45 l 1
 672 45 l 1
90 0 m 1
 90 45 l 1
 269 45 l 1
 269 0 l 1
 90 0 l 1
672 0 m 1
 672 45 l 1
 762 45 l 1
 762 0 l 1
 672 0 l 1
EndSplineSet
EndChar

StartChar: onehalf
Encoding: 189 189 125
Width: 717
Flags: HW
LayerCount: 2
Back
Fore
SplineSet
90 806 m 1
 90 851 l 1
 269 851 l 1
 269 806 l 1
 90 806 l 1
627 806 m 1
 627 851 l 1
 806 851 l 1
 806 806 l 1
 627 806 l 1
179 762 m 1
 179 806 l 1
 269 806 l 1
 269 762 l 1
 179 762 l 1
627 762 m 1
 627 806 l 1
 762 806 l 1
 762 762 l 1
 627 762 l 1
179 717 m 1
 179 762 l 1
 269 762 l 1
 269 717 l 1
 179 717 l 1
582 717 m 1
 582 762 l 1
 762 762 l 1
 762 717 l 1
 582 717 l 1
179 672 m 1
 179 717 l 1
 269 717 l 1
 269 672 l 1
 179 672 l 1
538 672 m 1
 538 717 l 1
 717 717 l 1
 717 672 l 1
 538 672 l 1
179 627 m 1
 179 672 l 1
 269 672 l 1
 269 627 l 1
 179 627 l 1
538 627 m 1
 538 672 l 1
 672 672 l 1
 672 627 l 1
 538 627 l 1
179 582 m 1
 179 627 l 1
 269 627 l 1
 269 582 l 1
 179 582 l 1
493 582 m 1
 493 627 l 1
 672 627 l 1
 672 582 l 1
 493 582 l 1
179 538 m 1
 179 582 l 1
 269 582 l 1
 269 538 l 1
 179 538 l 1
448 538 m 1
 448 582 l 1
 627 582 l 1
 627 538 l 1
 448 538 l 1
179 493 m 1
 179 538 l 1
 269 538 l 1
 269 493 l 1
 179 493 l 1
448 493 m 1
 448 538 l 1
 582 538 l 1
 582 493 l 1
 448 493 l 1
90 448 m 1
 90 493 l 1
 358 493 l 1
 358 448 l 1
 90 448 l 1
403 448 m 1
 403 493 l 1
 582 493 l 1
 582 448 l 1
 403 448 l 1
358 403 m 1
 358 448 l 1
 538 448 l 1
 538 403 l 1
 358 403 l 1
314 358 m 1
 314 403 l 1
 493 403 l 1
 493 358 l 1
 314 358 l 1
538 358 m 1
 538 403 l 1
 762 403 l 1
 762 358 l 1
 538 358 l 1
314 314 m 1
 314 358 l 1
 448 358 l 1
 448 314 l 1
 314 314 l 1
538 314 m 1
 538 358 l 1
 582 358 l 1
 582 314 l 1
 538 314 l 1
717 314 m 1
 717 358 l 1
 806 358 l 1
 806 314 l 1
 717 314 l 1
269 269 m 1
 269 314 l 1
 448 314 l 1
 448 269 l 1
 269 269 l 1
717 269 m 1
 717 314 l 1
 806 314 l 1
 806 269 l 1
 717 269 l 1
224 224 m 1
 224 269 l 1
 403 269 l 1
 403 224 l 1
 224 224 l 1
717 224 m 1
 717 269 l 1
 806 269 l 1
 806 224 l 1
 717 224 l 1
224 179 m 1
 224 224 l 1
 358 224 l 1
 358 179 l 1
 224 179 l 1
672 179 m 1
 672 224 l 1
 762 224 l 1
 762 179 l 1
 672 179 l 1
179 134 m 1
 179 179 l 1
 358 179 l 1
 358 134 l 1
 179 134 l 1
627 134 m 1
 627 179 l 1
 717 179 l 1
 717 134 l 1
 627 134 l 1
134 90 m 1
 134 134 l 1
 314 134 l 1
 314 90 l 1
 134 90 l 1
582 90 m 1
 582 134 l 1
 672 134 l 1
 672 90 l 1
 582 90 l 1
134 45 m 1
 134 90 l 1
 269 90 l 1
 269 45 l 1
 134 45 l 1
538 45 m 1
 538 90 l 1
 627 90 l 1
 627 45 l 1
 538 45 l 1
90 0 m 1
 90 45 l 1
 269 45 l 1
 269 0 l 1
 90 0 l 1
538 0 m 1
 538 45 l 1
 806 45 l 1
 806 0 l 1
 538 0 l 1
EndSplineSet
EndChar

StartChar: threequarters
Encoding: 190 190 126
Width: 717
Flags: HW
LayerCount: 2
Back
Fore
SplineSet
90 806 m 1
 90 851 l 1
 269 851 l 1
 269 806 l 1
 90 806 l 1
627 806 m 1
 627 851 l 1
 806 851 l 1
 806 806 l 1
 627 806 l 1
224 762 m 1
 224 806 l 1
 314 806 l 1
 314 762 l 1
 224 762 l 1
627 762 m 1
 627 806 l 1
 762 806 l 1
 762 762 l 1
 627 762 l 1
224 717 m 1
 224 762 l 1
 314 762 l 1
 314 717 l 1
 224 717 l 1
582 717 m 1
 582 762 l 1
 762 762 l 1
 762 717 l 1
 582 717 l 1
179 672 m 1
 179 717 l 1
 269 717 l 1
 269 672 l 1
 179 672 l 1
538 672 m 1
 538 717 l 1
 717 717 l 1
 717 672 l 1
 538 672 l 1
134 627 m 1
 134 672 l 1
 269 672 l 1
 269 627 l 1
 134 627 l 1
538 627 m 1
 538 672 l 1
 672 672 l 1
 672 627 l 1
 538 627 l 1
179 582 m 1
 179 627 l 1
 314 627 l 1
 314 582 l 1
 179 582 l 1
493 582 m 1
 493 627 l 1
 672 627 l 1
 672 582 l 1
 493 582 l 1
224 538 m 1
 224 582 l 1
 314 582 l 1
 314 538 l 1
 224 538 l 1
448 538 m 1
 448 582 l 1
 627 582 l 1
 627 538 l 1
 448 538 l 1
224 493 m 1
 224 538 l 1
 314 538 l 1
 314 493 l 1
 224 493 l 1
448 493 m 1
 448 538 l 1
 582 538 l 1
 582 493 l 1
 448 493 l 1
90 448 m 1
 90 493 l 1
 269 493 l 1
 269 448 l 1
 90 448 l 1
403 448 m 1
 403 493 l 1
 582 493 l 1
 582 448 l 1
 403 448 l 1
358 403 m 1
 358 448 l 1
 538 448 l 1
 538 403 l 1
 358 403 l 1
314 358 m 1
 314 403 l 1
 493 403 l 1
 493 358 l 1
 314 358 l 1
672 358 m 1
 672 403 l 1
 762 403 l 1
 762 358 l 1
 672 358 l 1
314 314 m 1
 314 358 l 1
 448 358 l 1
 448 314 l 1
 314 314 l 1
627 314 m 1
 627 358 l 1
 762 358 l 1
 762 314 l 1
 627 314 l 1
269 269 m 1
 269 314 l 1
 448 314 l 1
 448 269 l 1
 269 269 l 1
582 269 m 1
 582 314 l 1
 762 314 l 1
 762 269 l 1
 582 269 l 1
224 224 m 1
 224 269 l 1
 403 269 l 1
 403 224 l 1
 224 224 l 1
582 224 m 1
 582 269 l 1
 627 269 l 1
 627 224 l 1
 582 224 l 1
672 224 m 1
 672 269 l 1
 762 269 l 1
 762 224 l 1
 672 224 l 1
224 179 m 1
 224 224 l 1
 358 224 l 1
 358 179 l 1
 224 179 l 1
538 179 m 1
 538 224 l 1
 582 224 l 1
 582 179 l 1
 538 179 l 1
672 179 m 1
 672 224 l 1
 762 224 l 1
 762 179 l 1
 672 179 l 1
179 134 m 1
 179 179 l 1
 358 179 l 1
 358 134 l 1
 179 134 l 1
493 134 m 1
 493 179 l 1
 806 179 l 1
 806 134 l 1
 493 134 l 1
134 90 m 1
 134 134 l 1
 314 134 l 1
 314 90 l 1
 134 90 l 1
493 90 m 1
 493 134 l 1
 806 134 l 1
 806 90 l 1
 493 90 l 1
134 45 m 1
 134 90 l 1
 269 90 l 1
 269 45 l 1
 134 45 l 1
672 45 m 1
 672 90 l 1
 762 90 l 1
 762 45 l 1
 672 45 l 1
90 0 m 1
 90 45 l 1
 269 45 l 1
 269 0 l 1
 90 0 l 1
672 0 m 1
 672 45 l 1
 762 45 l 1
 762 0 l 1
 672 0 l 1
EndSplineSet
EndChar

StartChar: questiondown
Encoding: 191 191 127
Width: 717
Flags: HW
LayerCount: 2
Back
Fore
SplineSet
314 582 m 1
 314 627 l 1
 493 627 l 1
 493 582 l 1
 314 582 l 1
314 538 m 1
 314 582 l 1
 493 582 l 1
 493 538 l 1
 314 538 l 1
314 493 m 1
 314 538 l 1
 493 538 l 1
 493 493 l 1
 314 493 l 1
314 448 m 1
 314 493 l 1
 493 493 l 1
 493 448 l 1
 314 448 l 1
314 358 m 1
 314 403 l 1
 493 403 l 1
 493 358 l 1
 314 358 l 1
314 314 m 1
 314 358 l 1
 493 358 l 1
 493 314 l 1
 314 314 l 1
269 269 m 1
 269 314 l 1
 493 314 l 1
 493 269 l 1
 269 269 l 1
224 224 m 1
 224 269 l 1
 448 269 l 1
 448 224 l 1
 224 224 l 1
179 179 m 1
 179 224 l 1
 403 224 l 1
 403 179 l 1
 179 179 l 1
90 134 m 1
 90 179 l 1
 358 179 l 1
 358 134 l 1
 90 134 l 1
45 90 m 1
 45 134 l 1
 269 134 l 1
 269 90 l 1
 45 90 l 1
0 45 m 1
 0 90 l 1
 224 90 l 1
 224 45 l 1
 0 45 l 1
0 0 m 1
 0 45 l 1
 179 45 l 1
 179 0 l 1
 0 0 l 1
493 0 m 1
 493 45 l 1
 627 45 l 1
 627 0 l 1
 493 0 l 1
0 -45 m 1
 0 0 l 1
 179 0 l 1
 179 -45 l 1
 0 -45 l 1
493 -45 m 1
 493 0 l 1
 627 0 l 1
 627 -45 l 1
 493 -45 l 1
0 -90 m 1
 0 -45 l 1
 224 -45 l 1
 224 -90 l 1
 0 -90 l 1
493 -90 m 1
 493 -45 l 1
 627 -45 l 1
 627 -90 l 1
 493 -90 l 1
45 -134 m 1
 45 -90 l 1
 627 -90 l 1
 627 -134 l 1
 45 -134 l 1
45 -179 m 1
 45 -134 l 1
 627 -134 l 1
 627 -179 l 1
 45 -179 l 1
179 -224 m 1
 179 -179 l 1
 538 -179 l 1
 538 -224 l 1
 179 -224 l 1
EndSplineSet
EndChar

StartChar: Agrave
Encoding: 192 192 128
Width: 717
Flags: HW
LayerCount: 2
Back
Fore
SplineSet
224 1030 m 1
 224 1075 l 1
 403 1075 l 1
 403 1030 l 1
 224 1030 l 1
269 986 m 1
 269 1030 l 1
 448 1030 l 1
 448 986 l 1
 269 986 l 1
314 941 m 1
 314 986 l 1
 448 986 l 1
 448 941 l 1
 314 941 l 1
358 896 m 1
 358 941 l 1
 493 941 l 1
 493 896 l 1
 358 896 l 1
224 806 m 1
 224 851 l 1
 448 851 l 1
 448 806 l 1
 224 806 l 1
224 762 m 1
 224 806 l 1
 448 806 l 1
 448 762 l 1
 224 762 l 1
224 717 m 1
 224 762 l 1
 493 762 l 1
 493 717 l 1
 224 717 l 1
224 672 m 1
 224 717 l 1
 493 717 l 1
 493 672 l 1
 224 672 l 1
179 627 m 1
 179 672 l 1
 493 672 l 1
 493 627 l 1
 179 627 l 1
179 582 m 1
 179 627 l 1
 538 627 l 1
 538 582 l 1
 179 582 l 1
179 538 m 1
 179 582 l 1
 314 582 l 1
 314 538 l 1
 179 538 l 1
358 538 m 1
 358 582 l 1
 538 582 l 1
 538 538 l 1
 358 538 l 1
134 493 m 1
 134 538 l 1
 314 538 l 1
 314 493 l 1
 134 493 l 1
358 493 m 1
 358 538 l 1
 538 538 l 1
 538 493 l 1
 358 493 l 1
134 448 m 1
 134 493 l 1
 269 493 l 1
 269 448 l 1
 134 448 l 1
358 448 m 1
 358 493 l 1
 538 493 l 1
 538 448 l 1
 358 448 l 1
134 403 m 1
 134 448 l 1
 269 448 l 1
 269 403 l 1
 134 403 l 1
358 403 m 1
 358 448 l 1
 582 448 l 1
 582 403 l 1
 358 403 l 1
90 358 m 1
 90 403 l 1
 224 403 l 1
 224 358 l 1
 90 358 l 1
403 358 m 1
 403 403 l 1
 582 403 l 1
 582 358 l 1
 403 358 l 1
90 314 m 1
 90 358 l 1
 582 358 l 1
 582 314 l 1
 90 314 l 1
90 269 m 1
 90 314 l 1
 582 314 l 1
 582 269 l 1
 90 269 l 1
45 224 m 1
 45 269 l 1
 627 269 l 1
 627 224 l 1
 45 224 l 1
45 179 m 1
 45 224 l 1
 179 224 l 1
 179 179 l 1
 45 179 l 1
448 179 m 1
 448 224 l 1
 627 224 l 1
 627 179 l 1
 448 179 l 1
45 134 m 1
 45 179 l 1
 179 179 l 1
 179 134 l 1
 45 134 l 1
448 134 m 1
 448 179 l 1
 627 179 l 1
 627 134 l 1
 448 134 l 1
0 90 m 1
 0 134 l 1
 179 134 l 1
 179 90 l 1
 0 90 l 1
448 90 m 1
 448 134 l 1
 672 134 l 1
 672 90 l 1
 448 90 l 1
0 45 m 1
 0 90 l 1
 134 90 l 1
 134 45 l 1
 0 45 l 1
493 45 m 1
 493 90 l 1
 672 90 l 1
 672 45 l 1
 493 45 l 1
0 0 m 1
 0 45 l 1
 134 45 l 1
 134 0 l 1
 0 0 l 1
493 0 m 1
 493 45 l 1
 672 45 l 1
 672 0 l 1
 493 0 l 1
EndSplineSet
EndChar

StartChar: Aacute
Encoding: 193 193 129
Width: 717
Flags: HW
LayerCount: 2
Back
Fore
SplineSet
314 1030 m 1
 314 1075 l 1
 493 1075 l 1
 493 1030 l 1
 314 1030 l 1
269 986 m 1
 269 1030 l 1
 448 1030 l 1
 448 986 l 1
 269 986 l 1
269 941 m 1
 269 986 l 1
 403 986 l 1
 403 941 l 1
 269 941 l 1
224 896 m 1
 224 941 l 1
 358 941 l 1
 358 896 l 1
 224 896 l 1
224 806 m 1
 224 851 l 1
 448 851 l 1
 448 806 l 1
 224 806 l 1
224 762 m 1
 224 806 l 1
 448 806 l 1
 448 762 l 1
 224 762 l 1
224 717 m 1
 224 762 l 1
 493 762 l 1
 493 717 l 1
 224 717 l 1
224 672 m 1
 224 717 l 1
 493 717 l 1
 493 672 l 1
 224 672 l 1
179 627 m 1
 179 672 l 1
 493 672 l 1
 493 627 l 1
 179 627 l 1
179 582 m 1
 179 627 l 1
 538 627 l 1
 538 582 l 1
 179 582 l 1
179 538 m 1
 179 582 l 1
 314 582 l 1
 314 538 l 1
 179 538 l 1
358 538 m 1
 358 582 l 1
 538 582 l 1
 538 538 l 1
 358 538 l 1
134 493 m 1
 134 538 l 1
 314 538 l 1
 314 493 l 1
 134 493 l 1
358 493 m 1
 358 538 l 1
 538 538 l 1
 538 493 l 1
 358 493 l 1
134 448 m 1
 134 493 l 1
 269 493 l 1
 269 448 l 1
 134 448 l 1
358 448 m 1
 358 493 l 1
 538 493 l 1
 538 448 l 1
 358 448 l 1
134 403 m 1
 134 448 l 1
 269 448 l 1
 269 403 l 1
 134 403 l 1
358 403 m 1
 358 448 l 1
 582 448 l 1
 582 403 l 1
 358 403 l 1
90 358 m 1
 90 403 l 1
 224 403 l 1
 224 358 l 1
 90 358 l 1
403 358 m 1
 403 403 l 1
 582 403 l 1
 582 358 l 1
 403 358 l 1
90 314 m 1
 90 358 l 1
 582 358 l 1
 582 314 l 1
 90 314 l 1
90 269 m 1
 90 314 l 1
 582 314 l 1
 582 269 l 1
 90 269 l 1
45 224 m 1
 45 269 l 1
 627 269 l 1
 627 224 l 1
 45 224 l 1
45 179 m 1
 45 224 l 1
 179 224 l 1
 179 179 l 1
 45 179 l 1
448 179 m 1
 448 224 l 1
 627 224 l 1
 627 179 l 1
 448 179 l 1
45 134 m 1
 45 179 l 1
 179 179 l 1
 179 134 l 1
 45 134 l 1
448 134 m 1
 448 179 l 1
 627 179 l 1
 627 134 l 1
 448 134 l 1
0 90 m 1
 0 134 l 1
 179 134 l 1
 179 90 l 1
 0 90 l 1
448 90 m 1
 448 134 l 1
 672 134 l 1
 672 90 l 1
 448 90 l 1
0 45 m 1
 0 90 l 1
 134 90 l 1
 134 45 l 1
 0 45 l 1
493 45 m 1
 493 90 l 1
 672 90 l 1
 672 45 l 1
 493 45 l 1
0 0 m 1
 0 45 l 1
 134 45 l 1
 134 0 l 1
 0 0 l 1
493 0 m 1
 493 45 l 1
 672 45 l 1
 672 0 l 1
 493 0 l 1
EndSplineSet
EndChar

StartChar: Acircumflex
Encoding: 194 194 130
Width: 717
Flags: HW
LayerCount: 2
Back
Fore
SplineSet
224 1030 m 1
 224 1075 l 1
 403 1075 l 1
 403 1030 l 1
 224 1030 l 1
179 986 m 1
 179 1030 l 1
 448 1030 l 1
 448 986 l 1
 179 986 l 1
179 941 m 1
 179 986 l 1
 448 986 l 1
 448 941 l 1
 179 941 l 1
134 896 m 1
 134 941 l 1
 269 941 l 1
 269 896 l 1
 134 896 l 1
358 896 m 1
 358 941 l 1
 493 941 l 1
 493 896 l 1
 358 896 l 1
224 806 m 1
 224 851 l 1
 448 851 l 1
 448 806 l 1
 224 806 l 1
224 762 m 1
 224 806 l 1
 448 806 l 1
 448 762 l 1
 224 762 l 1
224 717 m 1
 224 762 l 1
 493 762 l 1
 493 717 l 1
 224 717 l 1
224 672 m 1
 224 717 l 1
 493 717 l 1
 493 672 l 1
 224 672 l 1
179 627 m 1
 179 672 l 1
 493 672 l 1
 493 627 l 1
 179 627 l 1
179 582 m 1
 179 627 l 1
 538 627 l 1
 538 582 l 1
 179 582 l 1
179 538 m 1
 179 582 l 1
 314 582 l 1
 314 538 l 1
 179 538 l 1
358 538 m 1
 358 582 l 1
 538 582 l 1
 538 538 l 1
 358 538 l 1
134 493 m 1
 134 538 l 1
 314 538 l 1
 314 493 l 1
 134 493 l 1
358 493 m 1
 358 538 l 1
 538 538 l 1
 538 493 l 1
 358 493 l 1
134 448 m 1
 134 493 l 1
 269 493 l 1
 269 448 l 1
 134 448 l 1
358 448 m 1
 358 493 l 1
 538 493 l 1
 538 448 l 1
 358 448 l 1
134 403 m 1
 134 448 l 1
 269 448 l 1
 269 403 l 1
 134 403 l 1
358 403 m 1
 358 448 l 1
 582 448 l 1
 582 403 l 1
 358 403 l 1
90 358 m 1
 90 403 l 1
 224 403 l 1
 224 358 l 1
 90 358 l 1
403 358 m 1
 403 403 l 1
 582 403 l 1
 582 358 l 1
 403 358 l 1
90 314 m 1
 90 358 l 1
 582 358 l 1
 582 314 l 1
 90 314 l 1
90 269 m 1
 90 314 l 1
 582 314 l 1
 582 269 l 1
 90 269 l 1
45 224 m 1
 45 269 l 1
 627 269 l 1
 627 224 l 1
 45 224 l 1
45 179 m 1
 45 224 l 1
 179 224 l 1
 179 179 l 1
 45 179 l 1
448 179 m 1
 448 224 l 1
 627 224 l 1
 627 179 l 1
 448 179 l 1
45 134 m 1
 45 179 l 1
 179 179 l 1
 179 134 l 1
 45 134 l 1
448 134 m 1
 448 179 l 1
 627 179 l 1
 627 134 l 1
 448 134 l 1
0 90 m 1
 0 134 l 1
 179 134 l 1
 179 90 l 1
 0 90 l 1
448 90 m 1
 448 134 l 1
 672 134 l 1
 672 90 l 1
 448 90 l 1
0 45 m 1
 0 90 l 1
 134 90 l 1
 134 45 l 1
 0 45 l 1
493 45 m 1
 493 90 l 1
 672 90 l 1
 672 45 l 1
 493 45 l 1
0 0 m 1
 0 45 l 1
 134 45 l 1
 134 0 l 1
 0 0 l 1
493 0 m 1
 493 45 l 1
 672 45 l 1
 672 0 l 1
 493 0 l 1
EndSplineSet
EndChar

StartChar: Atilde
Encoding: 195 195 131
Width: 717
Flags: HW
LayerCount: 2
Back
Fore
SplineSet
224 1030 m 1
 224 1075 l 1
 358 1075 l 1
 358 1030 l 1
 224 1030 l 1
448 1030 m 1
 448 1075 l 1
 538 1075 l 1
 538 1030 l 1
 448 1030 l 1
179 986 m 1
 179 1030 l 1
 538 1030 l 1
 538 986 l 1
 179 986 l 1
179 941 m 1
 179 986 l 1
 538 986 l 1
 538 941 l 1
 179 941 l 1
179 896 m 1
 179 941 l 1
 269 941 l 1
 269 896 l 1
 179 896 l 1
358 896 m 1
 358 941 l 1
 493 941 l 1
 493 896 l 1
 358 896 l 1
224 806 m 1
 224 851 l 1
 448 851 l 1
 448 806 l 1
 224 806 l 1
224 762 m 1
 224 806 l 1
 448 806 l 1
 448 762 l 1
 224 762 l 1
224 717 m 1
 224 762 l 1
 493 762 l 1
 493 717 l 1
 224 717 l 1
224 672 m 1
 224 717 l 1
 493 717 l 1
 493 672 l 1
 224 672 l 1
179 627 m 1
 179 672 l 1
 493 672 l 1
 493 627 l 1
 179 627 l 1
179 582 m 1
 179 627 l 1
 538 627 l 1
 538 582 l 1
 179 582 l 1
179 538 m 1
 179 582 l 1
 314 582 l 1
 314 538 l 1
 179 538 l 1
358 538 m 1
 358 582 l 1
 538 582 l 1
 538 538 l 1
 358 538 l 1
134 493 m 1
 134 538 l 1
 314 538 l 1
 314 493 l 1
 134 493 l 1
358 493 m 1
 358 538 l 1
 538 538 l 1
 538 493 l 1
 358 493 l 1
134 448 m 1
 134 493 l 1
 269 493 l 1
 269 448 l 1
 134 448 l 1
358 448 m 1
 358 493 l 1
 538 493 l 1
 538 448 l 1
 358 448 l 1
134 403 m 1
 134 448 l 1
 269 448 l 1
 269 403 l 1
 134 403 l 1
358 403 m 1
 358 448 l 1
 582 448 l 1
 582 403 l 1
 358 403 l 1
90 358 m 1
 90 403 l 1
 224 403 l 1
 224 358 l 1
 90 358 l 1
403 358 m 1
 403 403 l 1
 582 403 l 1
 582 358 l 1
 403 358 l 1
90 314 m 1
 90 358 l 1
 582 358 l 1
 582 314 l 1
 90 314 l 1
90 269 m 1
 90 314 l 1
 582 314 l 1
 582 269 l 1
 90 269 l 1
45 224 m 1
 45 269 l 1
 627 269 l 1
 627 224 l 1
 45 224 l 1
45 179 m 1
 45 224 l 1
 179 224 l 1
 179 179 l 1
 45 179 l 1
448 179 m 1
 448 224 l 1
 627 224 l 1
 627 179 l 1
 448 179 l 1
45 134 m 1
 45 179 l 1
 179 179 l 1
 179 134 l 1
 45 134 l 1
448 134 m 1
 448 179 l 1
 627 179 l 1
 627 134 l 1
 448 134 l 1
0 90 m 1
 0 134 l 1
 179 134 l 1
 179 90 l 1
 0 90 l 1
448 90 m 1
 448 134 l 1
 672 134 l 1
 672 90 l 1
 448 90 l 1
0 45 m 1
 0 90 l 1
 134 90 l 1
 134 45 l 1
 0 45 l 1
493 45 m 1
 493 90 l 1
 672 90 l 1
 672 45 l 1
 493 45 l 1
0 0 m 1
 0 45 l 1
 134 45 l 1
 134 0 l 1
 0 0 l 1
493 0 m 1
 493 45 l 1
 672 45 l 1
 672 0 l 1
 493 0 l 1
EndSplineSet
EndChar

StartChar: Adieresis
Encoding: 196 196 132
Width: 717
Flags: HW
LayerCount: 2
Back
Fore
SplineSet
134 986 m 1
 134 1030 l 1
 269 1030 l 1
 269 986 l 1
 134 986 l 1
358 986 m 1
 358 1030 l 1
 493 1030 l 1
 493 986 l 1
 358 986 l 1
134 941 m 1
 134 986 l 1
 269 986 l 1
 269 941 l 1
 134 941 l 1
358 941 m 1
 358 986 l 1
 493 986 l 1
 493 941 l 1
 358 941 l 1
134 896 m 1
 134 941 l 1
 269 941 l 1
 269 896 l 1
 134 896 l 1
358 896 m 1
 358 941 l 1
 493 941 l 1
 493 896 l 1
 358 896 l 1
224 806 m 1
 224 851 l 1
 448 851 l 1
 448 806 l 1
 224 806 l 1
224 762 m 1
 224 806 l 1
 448 806 l 1
 448 762 l 1
 224 762 l 1
224 717 m 1
 224 762 l 1
 493 762 l 1
 493 717 l 1
 224 717 l 1
224 672 m 1
 224 717 l 1
 493 717 l 1
 493 672 l 1
 224 672 l 1
179 627 m 1
 179 672 l 1
 493 672 l 1
 493 627 l 1
 179 627 l 1
179 582 m 1
 179 627 l 1
 538 627 l 1
 538 582 l 1
 179 582 l 1
179 538 m 1
 179 582 l 1
 314 582 l 1
 314 538 l 1
 179 538 l 1
358 538 m 1
 358 582 l 1
 538 582 l 1
 538 538 l 1
 358 538 l 1
134 493 m 1
 134 538 l 1
 314 538 l 1
 314 493 l 1
 134 493 l 1
358 493 m 1
 358 538 l 1
 538 538 l 1
 538 493 l 1
 358 493 l 1
134 448 m 1
 134 493 l 1
 269 493 l 1
 269 448 l 1
 134 448 l 1
358 448 m 1
 358 493 l 1
 538 493 l 1
 538 448 l 1
 358 448 l 1
134 403 m 1
 134 448 l 1
 269 448 l 1
 269 403 l 1
 134 403 l 1
358 403 m 1
 358 448 l 1
 582 448 l 1
 582 403 l 1
 358 403 l 1
90 358 m 1
 90 403 l 1
 224 403 l 1
 224 358 l 1
 90 358 l 1
403 358 m 1
 403 403 l 1
 582 403 l 1
 582 358 l 1
 403 358 l 1
90 314 m 1
 90 358 l 1
 582 358 l 1
 582 314 l 1
 90 314 l 1
90 269 m 1
 90 314 l 1
 582 314 l 1
 582 269 l 1
 90 269 l 1
45 224 m 1
 45 269 l 1
 627 269 l 1
 627 224 l 1
 45 224 l 1
45 179 m 1
 45 224 l 1
 179 224 l 1
 179 179 l 1
 45 179 l 1
448 179 m 1
 448 224 l 1
 627 224 l 1
 627 179 l 1
 448 179 l 1
45 134 m 1
 45 179 l 1
 179 179 l 1
 179 134 l 1
 45 134 l 1
448 134 m 1
 448 179 l 1
 627 179 l 1
 627 134 l 1
 448 134 l 1
0 90 m 1
 0 134 l 1
 179 134 l 1
 179 90 l 1
 0 90 l 1
448 90 m 1
 448 134 l 1
 672 134 l 1
 672 90 l 1
 448 90 l 1
0 45 m 1
 0 90 l 1
 134 90 l 1
 134 45 l 1
 0 45 l 1
493 45 m 1
 493 90 l 1
 672 90 l 1
 672 45 l 1
 493 45 l 1
0 0 m 1
 0 45 l 1
 134 45 l 1
 134 0 l 1
 0 0 l 1
493 0 m 1
 493 45 l 1
 672 45 l 1
 672 0 l 1
 493 0 l 1
EndSplineSet
EndChar

StartChar: Aring
Encoding: 197 197 133
Width: 717
Flags: HW
LayerCount: 2
Back
Fore
SplineSet
314 1030 m 1
 314 1075 l 1
 403 1075 l 1
 403 1030 l 1
 314 1030 l 1
269 986 m 1
 269 1030 l 1
 314 1030 l 1
 314 986 l 1
 269 986 l 1
403 986 m 1
 403 1030 l 1
 448 1030 l 1
 448 986 l 1
 403 986 l 1
269 941 m 1
 269 986 l 1
 314 986 l 1
 314 941 l 1
 269 941 l 1
403 941 m 1
 403 986 l 1
 448 986 l 1
 448 941 l 1
 403 941 l 1
314 896 m 1
 314 941 l 1
 403 941 l 1
 403 896 l 1
 314 896 l 1
224 806 m 1
 224 851 l 1
 448 851 l 1
 448 806 l 1
 224 806 l 1
224 762 m 1
 224 806 l 1
 448 806 l 1
 448 762 l 1
 224 762 l 1
224 717 m 1
 224 762 l 1
 493 762 l 1
 493 717 l 1
 224 717 l 1
224 672 m 1
 224 717 l 1
 493 717 l 1
 493 672 l 1
 224 672 l 1
179 627 m 1
 179 672 l 1
 493 672 l 1
 493 627 l 1
 179 627 l 1
179 582 m 1
 179 627 l 1
 538 627 l 1
 538 582 l 1
 179 582 l 1
179 538 m 1
 179 582 l 1
 314 582 l 1
 314 538 l 1
 179 538 l 1
358 538 m 1
 358 582 l 1
 538 582 l 1
 538 538 l 1
 358 538 l 1
134 493 m 1
 134 538 l 1
 314 538 l 1
 314 493 l 1
 134 493 l 1
358 493 m 1
 358 538 l 1
 538 538 l 1
 538 493 l 1
 358 493 l 1
134 448 m 1
 134 493 l 1
 269 493 l 1
 269 448 l 1
 134 448 l 1
358 448 m 1
 358 493 l 1
 538 493 l 1
 538 448 l 1
 358 448 l 1
134 403 m 1
 134 448 l 1
 269 448 l 1
 269 403 l 1
 134 403 l 1
358 403 m 1
 358 448 l 1
 582 448 l 1
 582 403 l 1
 358 403 l 1
90 358 m 1
 90 403 l 1
 224 403 l 1
 224 358 l 1
 90 358 l 1
403 358 m 1
 403 403 l 1
 582 403 l 1
 582 358 l 1
 403 358 l 1
90 314 m 1
 90 358 l 1
 582 358 l 1
 582 314 l 1
 90 314 l 1
90 269 m 1
 90 314 l 1
 582 314 l 1
 582 269 l 1
 90 269 l 1
45 224 m 1
 45 269 l 1
 627 269 l 1
 627 224 l 1
 45 224 l 1
45 179 m 1
 45 224 l 1
 179 224 l 1
 179 179 l 1
 45 179 l 1
448 179 m 1
 448 224 l 1
 627 224 l 1
 627 179 l 1
 448 179 l 1
45 134 m 1
 45 179 l 1
 179 179 l 1
 179 134 l 1
 45 134 l 1
448 134 m 1
 448 179 l 1
 627 179 l 1
 627 134 l 1
 448 134 l 1
0 90 m 1
 0 134 l 1
 179 134 l 1
 179 90 l 1
 0 90 l 1
448 90 m 1
 448 134 l 1
 672 134 l 1
 672 90 l 1
 448 90 l 1
0 45 m 1
 0 90 l 1
 134 90 l 1
 134 45 l 1
 0 45 l 1
493 45 m 1
 493 90 l 1
 672 90 l 1
 672 45 l 1
 493 45 l 1
0 0 m 1
 0 45 l 1
 134 45 l 1
 134 0 l 1
 0 0 l 1
493 0 m 1
 493 45 l 1
 672 45 l 1
 672 0 l 1
 493 0 l 1
EndSplineSet
EndChar

